Coda Normal-Medium.ufo
<glyph name="exclam" format="1">
  <advance width="577"/>
  <unicode hex="0021"/>
  <outline>
    <contour>
      <point x="288" y="505" type="curve" smooth="yes"/>
      <point x="302" y="505"/>
      <point x="317" y="512"/>
      <point x="322" y="546" type="curve" smooth="yes"/>
      <point x="361" y="910"/>
      <point x="420" y="1365"/>
      <point x="420" y="1417" type="curve" smooth="yes"/>
      <point x="420" y="1517"/>
      <point x="378" y="1568"/>
      <point x="287" y="1568" type="curve" smooth="yes"/>
      <point x="198" y="1568"/>
      <point x="157" y="1518"/>
      <point x="157" y="1417" type="curve" smooth="yes"/>
      <point x="157" y="1366"/>
      <point x="212" y="911"/>
      <point x="254" y="546" type="curve" smooth="yes"/>
      <point x="258" y="512"/>
      <point x="274" y="505"/>
    </contour>
    <contour>
      <point x="290" y="-24" type="curve" smooth="yes"/>
      <point x="365" y="-24"/>
      <point x="439" y="28"/>
      <point x="439" y="134" type="curve" smooth="yes"/>
      <point x="439" y="237"/>
      <point x="361" y="291"/>
      <point x="285" y="291" type="curve" smooth="yes"/>
      <point x="211" y="291"/>
      <point x="138" y="240"/>
      <point x="138" y="134" type="curve" smooth="yes"/>
      <point x="138" y="30"/>
      <point x="214" y="-24"/>
    </contour>
  </outline>
</glyph>
<glyph name="quotedbl" format="1">
  <advance width="785"/>
  <unicode hex="0022"/>
  <outline>
    <contour>
      <point x="233" y="915" type="curve"/>
      <point x="236" y="915"/>
      <point x="250" y="915"/>
      <point x="251" y="920" type="curve"/>
      <point x="256" y="943"/>
      <point x="331" y="1301"/>
      <point x="331" y="1387" type="curve" smooth="yes"/>
      <point x="331" y="1473"/>
      <point x="293" y="1515"/>
      <point x="232" y="1515" type="curve" smooth="yes"/>
      <point x="157" y="1515"/>
      <point x="133" y="1473"/>
      <point x="133" y="1374" type="curve" smooth="yes"/>
      <point x="133" y="1292"/>
      <point x="210" y="948"/>
      <point x="215" y="925" type="curve"/>
      <point x="217" y="920"/>
      <point x="231" y="915"/>
    </contour>
    <contour>
      <point x="565" y="915" type="curve"/>
      <point x="568" y="915"/>
      <point x="581" y="915"/>
      <point x="582" y="920" type="curve"/>
      <point x="588" y="943"/>
      <point x="663" y="1301"/>
      <point x="663" y="1387" type="curve" smooth="yes"/>
      <point x="663" y="1473"/>
      <point x="625" y="1515"/>
      <point x="564" y="1515" type="curve" smooth="yes"/>
      <point x="488" y="1515"/>
      <point x="465" y="1473"/>
      <point x="465" y="1374" type="curve" smooth="yes"/>
      <point x="465" y="1292"/>
      <point x="542" y="948"/>
      <point x="547" y="925" type="curve"/>
      <point x="548" y="920"/>
      <point x="562" y="915"/>
    </contour>
  </outline>
</glyph>
<glyph name="numbersign" format="1">
  <advance width="1635"/>
  <unicode hex="0023"/>
  <outline>
    <contour>
      <point x="307" y="0" type="line"/>
      <point x="536" y="0" type="line"/>
      <point x="606" y="410" type="line"/>
      <point x="913" y="410" type="line"/>
      <point x="845" y="0" type="line"/>
      <point x="1073" y="0" type="line"/>
      <point x="1141" y="410" type="line"/>
      <point x="1402" y="410" type="line"/>
      <point x="1425" y="571" type="line"/>
      <point x="1167" y="571" type="line"/>
      <point x="1231" y="968" type="line"/>
      <point x="1489" y="968" type="line"/>
      <point x="1513" y="1142" type="line"/>
      <point x="1260" y="1142" type="line"/>
      <point x="1320" y="1507" type="line"/>
      <point x="1092" y="1507" type="line"/>
      <point x="1031" y="1142" type="line"/>
      <point x="729" y="1142" type="line"/>
      <point x="791" y="1507" type="line"/>
      <point x="558" y="1507" type="line"/>
      <point x="496" y="1142" type="line"/>
      <point x="243" y="1142" type="line"/>
      <point x="215" y="968" type="line"/>
      <point x="466" y="968" type="line"/>
      <point x="401" y="571" type="line"/>
      <point x="149" y="571" type="line"/>
      <point x="122" y="410" type="line"/>
      <point x="375" y="410" type="line"/>
    </contour>
    <contour>
      <point x="633" y="571" type="line"/>
      <point x="700" y="968" type="line"/>
      <point x="1003" y="968" type="line"/>
      <point x="938" y="571" type="line"/>
    </contour>
  </outline>
</glyph>
<glyph name="dollar" format="1">
  <advance width="1313"/>
  <unicode hex="0024"/>
  <outline>
    <contour>
      <point x="638" y="58" type="line"/>
      <point x="638" y="-257" type="line"/>
      <point x="737" y="-257" type="line"/>
      <point x="737" y="58" type="line"/>
    </contour>
    <contour>
      <point x="638" y="1752" type="line"/>
      <point x="638" y="1437" type="line"/>
      <point x="737" y="1437" type="line"/>
      <point x="737" y="1752" type="line"/>
    </contour>
    <component base="S"/>
  </outline>
</glyph>
<glyph name="percent" format="1">
  <advance width="2379"/>
  <unicode hex="0025"/>
  <outline>
    <contour>
      <point x="506" y="735" type="curve" smooth="yes"/>
      <point x="364" y="735"/>
      <point x="345" y="746"/>
      <point x="345" y="918" type="curve" smooth="yes"/>
      <point x="345" y="951"/>
      <point x="346" y="1079"/>
      <point x="346" y="1127" type="curve" smooth="yes"/>
      <point x="346" y="1318"/>
      <point x="367" y="1318"/>
      <point x="520" y="1318" type="curve" smooth="yes"/>
      <point x="682" y="1318"/>
      <point x="692" y="1316"/>
      <point x="692" y="1123" type="curve" smooth="yes"/>
      <point x="692" y="914" type="line" smooth="yes"/>
      <point x="692" y="747"/>
      <point x="673" y="735"/>
    </contour>
    <contour>
      <point x="520" y="589" type="curve" smooth="yes"/>
      <point x="774" y="589"/>
      <point x="887" y="648"/>
      <point x="887" y="903" type="curve" smooth="yes"/>
      <point x="887" y="978"/>
      <point x="887" y="1099"/>
      <point x="884" y="1153" type="curve" smooth="yes"/>
      <point x="872" y="1406"/>
      <point x="784" y="1463"/>
      <point x="520" y="1463" type="curve" smooth="yes"/>
      <point x="270" y="1463"/>
      <point x="156" y="1408"/>
      <point x="156" y="1150" type="curve" smooth="yes"/>
      <point x="156" y="1077"/>
      <point x="157" y="957"/>
      <point x="159" y="905" type="curve" smooth="yes"/>
      <point x="169" y="644"/>
      <point x="253" y="589"/>
    </contour>
    <contour>
      <point x="1846" y="306" type="curve" smooth="yes"/>
      <point x="1704" y="306"/>
      <point x="1685" y="318"/>
      <point x="1685" y="489" type="curve" smooth="yes"/>
      <point x="1685" y="523"/>
      <point x="1686" y="650"/>
      <point x="1686" y="698" type="curve" smooth="yes"/>
      <point x="1686" y="889"/>
      <point x="1707" y="889"/>
      <point x="1860" y="889" type="curve" smooth="yes"/>
      <point x="2022" y="889"/>
      <point x="2032" y="887"/>
      <point x="2032" y="695" type="curve" smooth="yes"/>
      <point x="2032" y="486" type="line" smooth="yes"/>
      <point x="2032" y="318"/>
      <point x="2013" y="306"/>
    </contour>
    <contour>
      <point x="1860" y="160" type="curve" smooth="yes"/>
      <point x="2114" y="160"/>
      <point x="2227" y="221"/>
      <point x="2227" y="474" type="curve" smooth="yes"/>
      <point x="2227" y="546"/>
      <point x="2227" y="665"/>
      <point x="2224" y="717" type="curve" smooth="yes"/>
      <point x="2213" y="976"/>
      <point x="2127" y="1034"/>
      <point x="1860" y="1034" type="curve" smooth="yes"/>
      <point x="1610" y="1034"/>
      <point x="1497" y="979"/>
      <point x="1497" y="721" type="curve" smooth="yes"/>
      <point x="1497" y="648"/>
      <point x="1497" y="530"/>
      <point x="1499" y="478" type="curve" smooth="yes"/>
      <point x="1509" y="217"/>
      <point x="1592" y="160"/>
    </contour>
    <contour>
      <point x="898" y="-5" type="line"/>
      <point x="1101" y="-5" type="line"/>
      <point x="1482" y="1582" type="line"/>
      <point x="1277" y="1582" type="line"/>
    </contour>
  </outline>
</glyph>
<glyph name="ampersand" format="1">
  <advance width="1577"/>
  <unicode hex="0026"/>
  <outline>
    <contour>
      <point x="729" y="-23" type="curve" smooth="yes"/>
      <point x="1205" y="-23"/>
      <point x="1316" y="89"/>
      <point x="1316" y="441" type="curve" smooth="yes"/>
      <point x="1315" y="730" type="line"/>
      <point x="1456" y="731" type="line"/>
      <point x="1456" y="886" type="line"/>
      <point x="1316" y="886" type="line"/>
      <point x="1316" y="1008" type="line"/>
      <point x="999" y="1008" type="line"/>
      <point x="999" y="886" type="line"/>
      <point x="657" y="886" type="line" smooth="yes"/>
      <point x="602" y="886"/>
      <point x="531" y="909"/>
      <point x="528" y="1035" type="curve" smooth="yes"/>
      <point x="528" y="1248" type="line" smooth="yes"/>
      <point x="528" y="1337"/>
      <point x="613" y="1366"/>
      <point x="759" y="1366" type="curve" smooth="yes"/>
      <point x="851" y="1366"/>
      <point x="942" y="1364"/>
      <point x="970" y="1350" type="curve" smooth="yes"/>
      <point x="999" y="1337"/>
      <point x="1002" y="1239"/>
      <point x="1006" y="1194" type="curve"/>
      <point x="1305" y="1212" type="line"/>
      <point x="1305" y="1285" type="line" smooth="yes"/>
      <point x="1305" y="1509"/>
      <point x="1121" y="1564"/>
      <point x="765" y="1564" type="curve" smooth="yes"/>
      <point x="372" y="1564"/>
      <point x="181" y="1496"/>
      <point x="181" y="1168" type="curve" smooth="yes"/>
      <point x="181" y="997"/>
      <point x="232" y="910"/>
      <point x="289" y="873" type="curve" smooth="yes"/>
      <point x="299" y="863"/>
      <point x="365" y="846"/>
      <point x="378" y="840" type="curve"/>
      <point x="378" y="828" type="line"/>
      <point x="360" y="825"/>
      <point x="302" y="811"/>
      <point x="288" y="802" type="curve" smooth="yes"/>
      <point x="187" y="759"/>
      <point x="142" y="589"/>
      <point x="142" y="422" type="curve" smooth="yes"/>
      <point x="142" y="73"/>
      <point x="345" y="-23"/>
    </contour>
    <contour>
      <point x="738" y="184" type="curve" smooth="yes"/>
      <point x="570" y="184"/>
      <point x="488" y="227"/>
      <point x="488" y="320" type="curve" smooth="yes"/>
      <point x="488" y="446"/>
      <point x="490" y="731"/>
      <point x="583" y="731" type="curve" smooth="yes"/>
      <point x="999" y="731" type="line"/>
      <point x="999" y="306" type="line" smooth="yes"/>
      <point x="999" y="225"/>
      <point x="942" y="184"/>
    </contour>
  </outline>
</glyph>
<glyph name="quotesingle" format="1">
  <advance width="520"/>
  <unicode hex="0027"/>
  <outline>
    <contour>
      <point x="281" y="919" type="curve"/>
      <point x="288" y="949"/>
      <point x="364" y="1303"/>
      <point x="364" y="1390" type="curve" smooth="yes"/>
      <point x="364" y="1477"/>
      <point x="323" y="1521"/>
      <point x="261" y="1521" type="curve" smooth="yes"/>
      <point x="184" y="1521"/>
      <point x="158" y="1478"/>
      <point x="158" y="1378" type="curve" smooth="yes"/>
      <point x="158" y="1294"/>
      <point x="235" y="955"/>
      <point x="242" y="924" type="curve"/>
      <point x="244" y="917"/>
      <point x="258" y="912"/>
      <point x="262" y="912" type="curve"/>
      <point x="265" y="912"/>
      <point x="279" y="912"/>
    </contour>
  </outline>
</glyph>
<glyph name="parenleft" format="1">
  <advance width="855"/>
  <unicode hex="0028"/>
  <outline>
    <contour>
      <point x="714" y="-222" type="curve"/>
      <point x="727" y="-68" type="line"/>
      <point x="464" y="-32"/>
      <point x="375" y="286"/>
      <point x="375" y="740" type="curve" smooth="yes"/>
      <point x="375" y="1194"/>
      <point x="464" y="1514"/>
      <point x="727" y="1550" type="curve"/>
      <point x="714" y="1704" type="line"/>
      <point x="300" y="1674"/>
      <point x="159" y="1250"/>
      <point x="159" y="741" type="curve" smooth="yes"/>
      <point x="159" y="230"/>
      <point x="300" y="-192"/>
    </contour>
  </outline>
</glyph>
<glyph name="parenright" format="1">
  <advance width="872"/>
  <unicode hex="0029"/>
  <outline>
    <contour>
      <point x="147" y="-219" type="line"/>
      <point x="565" y="-191"/>
      <point x="709" y="236"/>
      <point x="709" y="745" type="curve"/>
      <point x="709" y="1253"/>
      <point x="565" y="1681"/>
      <point x="147" y="1710" type="curve"/>
      <point x="134" y="1550" type="line"/>
      <point x="395" y="1516"/>
      <point x="484" y="1194"/>
      <point x="484" y="744" type="curve" smooth="yes"/>
      <point x="484" y="294"/>
      <point x="395" y="-25"/>
      <point x="134" y="-60" type="curve"/>
    </contour>
  </outline>
</glyph>
<glyph name="asterisk" format="1">
  <advance width="1209"/>
  <unicode hex="002A"/>
  <outline>
    <contour>
      <point x="418" y="551" type="curve" smooth="yes"/>
      <point x="514" y="551"/>
      <point x="532" y="695"/>
      <point x="605" y="964" type="curve"/>
      <point x="638" y="830"/>
      <point x="675" y="661"/>
      <point x="727" y="590" type="curve" smooth="yes"/>
      <point x="791" y="503"/>
      <point x="896" y="570"/>
      <point x="896" y="651" type="curve" smooth="yes"/>
      <point x="896" y="694"/>
      <point x="801" y="804"/>
      <point x="638" y="981" type="curve"/>
      <point x="727" y="955"/>
      <point x="891" y="899"/>
      <point x="969" y="899" type="curve" smooth="yes"/>
      <point x="1040" y="899"/>
      <point x="1075" y="936"/>
      <point x="1075" y="999" type="curve" smooth="yes"/>
      <point x="1075" y="1061"/>
      <point x="1041" y="1099"/>
      <point x="972" y="1099" type="curve" smooth="yes"/>
      <point x="894" y="1099"/>
      <point x="813" y="1067"/>
      <point x="638" y="1014" type="curve"/>
      <point x="834" y="1221"/>
      <point x="884" y="1294"/>
      <point x="884" y="1353" type="curve" smooth="yes"/>
      <point x="884" y="1412"/>
      <point x="818" y="1456"/>
      <point x="774" y="1437" type="curve" smooth="yes"/>
      <point x="659" y="1426"/>
      <point x="621" y="1090"/>
      <point x="605" y="1031" type="curve"/>
      <point x="564" y="1214"/>
      <point x="517" y="1426"/>
      <point x="432" y="1437" type="curve" smooth="yes"/>
      <point x="375" y="1456"/>
      <point x="316" y="1409"/>
      <point x="316" y="1345" type="curve" smooth="yes"/>
      <point x="316" y="1302"/>
      <point x="407" y="1193"/>
      <point x="574" y="1014" type="curve"/>
      <point x="490" y="1037"/>
      <point x="314" y="1099"/>
      <point x="236" y="1099" type="curve" smooth="yes"/>
      <point x="168" y="1099"/>
      <point x="133" y="1061"/>
      <point x="133" y="999" type="curve" smooth="yes"/>
      <point x="133" y="936"/>
      <point x="168" y="899"/>
      <point x="238" y="899" type="curve" smooth="yes"/>
      <point x="312" y="899"/>
      <point x="446" y="943"/>
      <point x="574" y="981" type="curve"/>
      <point x="434" y="831"/>
      <point x="324" y="722"/>
      <point x="324" y="637" type="curve" smooth="yes"/>
      <point x="324" y="594"/>
      <point x="374" y="551"/>
    </contour>
  </outline>
</glyph>
<glyph name="plus" format="1">
  <advance width="1108"/>
  <unicode hex="002B"/>
  <outline>
    <contour>
      <point x="452" y="203" type="line"/>
      <point x="654" y="203" type="line"/>
      <point x="654" y="568" type="line"/>
      <point x="971" y="568" type="line"/>
      <point x="971" y="763" type="line"/>
      <point x="654" y="763" type="line"/>
      <point x="654" y="1129" type="line"/>
      <point x="452" y="1129" type="line"/>
      <point x="452" y="763" type="line"/>
      <point x="136" y="763" type="line"/>
      <point x="136" y="568" type="line"/>
      <point x="452" y="568" type="line"/>
    </contour>
  </outline>
</glyph>
<glyph name="comma" format="1">
  <advance width="720"/>
  <unicode hex="002C"/>
  <outline>
    <contour>
      <point x="241" y="-232" type="curve" smooth="yes"/>
      <point x="411" y="-232"/>
      <point x="530" y="-28"/>
      <point x="530" y="147" type="curve" smooth="yes"/>
      <point x="530" y="257"/>
      <point x="472" y="353"/>
      <point x="364" y="353" type="curve" smooth="yes"/>
      <point x="267" y="353"/>
      <point x="196" y="285"/>
      <point x="196" y="178" type="curve" smooth="yes"/>
      <point x="196" y="74"/>
      <point x="265" y="4"/>
      <point x="353" y="0" type="curve"/>
      <point x="350" y="-84"/>
      <point x="271" y="-142"/>
      <point x="186" y="-143" type="curve"/>
      <point x="186" y="-229" type="line"/>
      <point x="199" y="-231"/>
      <point x="217" y="-232"/>
    </contour>
  </outline>
</glyph>
<glyph name="hyphen" format="1">
  <advance width="928"/>
  <unicode hex="002D"/>
  <outline>
    <contour>
      <point x="468" y="613" type="move" name="_mid"/>
    </contour>
    <contour>
      <point x="147" y="533" type="line"/>
      <point x="778" y="533" type="line"/>
      <point x="778" y="697" type="line"/>
      <point x="147" y="697" type="line"/>
    </contour>
  </outline>
</glyph>
<glyph name="period" format="1">
  <advance width="701"/>
  <unicode hex="002E"/>
  <outline>
    <contour>
      <point x="349" y="-35" type="curve" smooth="yes"/>
      <point x="431" y="-35"/>
      <point x="512" y="23"/>
      <point x="512" y="141" type="curve" smooth="yes"/>
      <point x="512" y="256"/>
      <point x="428" y="315"/>
      <point x="345" y="315" type="curve" smooth="yes"/>
      <point x="264" y="315"/>
      <point x="184" y="258"/>
      <point x="184" y="141" type="curve" smooth="yes"/>
      <point x="184" y="25"/>
      <point x="267" y="-35"/>
    </contour>
  </outline>
</glyph>
<glyph name="slash" format="1">
  <advance width="841"/>
  <unicode hex="002F"/>
  <outline>
    <contour>
      <point x="131" y="-22" type="line"/>
      <point x="342" y="-22" type="line"/>
      <point x="714" y="1529" type="line"/>
      <point x="496" y="1529" type="line"/>
    </contour>
  </outline>
</glyph>
<glyph name="zero" format="1">
  <advance width="1388"/>
  <unicode hex="0030"/>
  <outline>
    <contour>
      <point x="694" y="185" type="curve" smooth="yes"/>
      <point x="564" y="185"/>
      <point x="475" y="212"/>
      <point x="471" y="276" type="curve" smooth="yes"/>
      <point x="465" y="355"/>
      <point x="464" y="681"/>
      <point x="464" y="767" type="curve" smooth="yes"/>
      <point x="464" y="851"/>
      <point x="466" y="1174"/>
      <point x="471" y="1253" type="curve" smooth="yes"/>
      <point x="476" y="1324"/>
      <point x="569" y="1353"/>
      <point x="694" y="1353" type="curve" smooth="yes"/>
      <point x="818" y="1353"/>
      <point x="912" y="1324"/>
      <point x="917" y="1253" type="curve" smooth="yes"/>
      <point x="922" y="1174"/>
      <point x="925" y="851"/>
      <point x="925" y="767" type="curve" smooth="yes"/>
      <point x="925" y="681"/>
      <point x="923" y="355"/>
      <point x="918" y="276" type="curve" smooth="yes"/>
      <point x="913" y="212"/>
      <point x="825" y="185"/>
    </contour>
    <contour>
      <point x="695" y="-21" type="curve" smooth="yes"/>
      <point x="1122" y="-21"/>
      <point x="1250" y="122"/>
      <point x="1250" y="599" type="curve" smooth="yes"/>
      <point x="1250" y="1006" type="line" smooth="yes"/>
      <point x="1250" y="1431"/>
      <point x="1090" y="1557"/>
      <point x="695" y="1557" type="curve" smooth="yes"/>
      <point x="291" y="1557"/>
      <point x="139" y="1425"/>
      <point x="139" y="976" type="curve" smooth="yes"/>
      <point x="139" y="562" type="line" smooth="yes"/>
      <point x="139" y="117"/>
      <point x="279" y="-21"/>
    </contour>
  </outline>
</glyph>
<glyph name="one" format="1">
  <advance width="792"/>
  <unicode hex="0031"/>
  <outline>
    <contour>
      <point x="323" y="0" type="line"/>
      <point x="577" y="0" type="line"/>
      <point x="577" y="1507" type="line"/>
      <point x="370" y="1507" type="line"/>
      <point x="323" y="1418"/>
      <point x="240" y="1374"/>
      <point x="132" y="1371" type="curve"/>
      <point x="132" y="1258" type="line"/>
      <point x="323" y="1258" type="line"/>
    </contour>
  </outline>
</glyph>
<glyph name="two" format="1">
  <advance width="1329"/>
  <unicode hex="0032"/>
  <outline>
    <contour>
      <point x="191" y="0" type="line"/>
      <point x="1107" y="0" type="line"/>
      <point x="1107" y="171" type="line"/>
      <point x="430" y="171" type="line"/>
      <point x="430" y="364"/>
      <point x="490" y="400"/>
      <point x="681" y="516" type="curve" smooth="yes"/>
      <point x="954" y="679"/>
      <point x="1143" y="750"/>
      <point x="1143" y="1101" type="curve" smooth="yes"/>
      <point x="1143" y="1434"/>
      <point x="1006" y="1527"/>
      <point x="661" y="1527" type="curve" smooth="yes"/>
      <point x="341" y="1527"/>
      <point x="191" y="1442"/>
      <point x="191" y="1178" type="curve" smooth="yes"/>
      <point x="192" y="1145" type="line"/>
      <point x="415" y="1116" type="line"/>
      <point x="423" y="1206"/>
      <point x="423" y="1302"/>
      <point x="460" y="1330" type="curve" smooth="yes"/>
      <point x="497" y="1359"/>
      <point x="586" y="1367"/>
      <point x="672" y="1367" type="curve" smooth="yes"/>
      <point x="771" y="1367"/>
      <point x="838" y="1351"/>
      <point x="864" y="1314" type="curve" smooth="yes"/>
      <point x="890" y="1277"/>
      <point x="902" y="1177"/>
      <point x="902" y="1097" type="curve" smooth="yes"/>
      <point x="902" y="841"/>
      <point x="791" y="828"/>
      <point x="561" y="687" type="curve" smooth="yes"/>
      <point x="341" y="557"/>
      <point x="191" y="476"/>
      <point x="191" y="142" type="curve" smooth="yes"/>
    </contour>
  </outline>
</glyph>
<glyph name="three" format="1">
  <advance width="1329"/>
  <unicode hex="0033"/>
  <outline>
    <contour>
      <point x="634" y="-20" type="curve" smooth="yes"/>
      <point x="971" y="-20"/>
      <point x="1154" y="54"/>
      <point x="1154" y="406" type="curve" smooth="yes"/>
      <point x="1154" y="693"/>
      <point x="1070" y="746"/>
      <point x="978" y="777" type="curve"/>
      <point x="1060" y="800"/>
      <point x="1146" y="831"/>
      <point x="1146" y="1149" type="curve" smooth="yes"/>
      <point x="1146" y="1420"/>
      <point x="992" y="1527"/>
      <point x="662" y="1527" type="curve" smooth="yes"/>
      <point x="271" y="1527"/>
      <point x="154" y="1438"/>
      <point x="153" y="1190" type="curve" smooth="yes"/>
      <point x="153" y="1141" type="line"/>
      <point x="381" y="1128" type="line"/>
      <point x="381" y="1230"/>
      <point x="389" y="1317"/>
      <point x="403" y="1331" type="curve" smooth="yes"/>
      <point x="432" y="1361"/>
      <point x="545" y="1368"/>
      <point x="662" y="1368" type="curve" smooth="yes"/>
      <point x="866" y="1368"/>
      <point x="900" y="1328"/>
      <point x="900" y="1175" type="curve" smooth="yes"/>
      <point x="900" y="1002"/>
      <point x="897" y="855"/>
      <point x="852" y="855" type="curve" smooth="yes"/>
      <point x="510" y="855" type="line"/>
      <point x="517" y="699" type="line"/>
      <point x="858" y="698" type="line" smooth="yes"/>
      <point x="897" y="698"/>
      <point x="906" y="575"/>
      <point x="906" y="389" type="curve" smooth="yes"/>
      <point x="906" y="188"/>
      <point x="877" y="139"/>
      <point x="637" y="139" type="curve" smooth="yes"/>
      <point x="515" y="139"/>
      <point x="417" y="144"/>
      <point x="389" y="181" type="curve" smooth="yes"/>
      <point x="366" y="211"/>
      <point x="367" y="311"/>
      <point x="367" y="390" type="curve"/>
      <point x="139" y="372" type="line"/>
      <point x="138" y="302" type="line" smooth="yes"/>
      <point x="136" y="47"/>
      <point x="313" y="-20"/>
    </contour>
  </outline>
</glyph>
<glyph name="four" format="1">
  <advance width="1329"/>
  <unicode hex="0034"/>
  <outline>
    <contour>
      <point x="617" y="1507" type="line"/>
      <point x="139" y="558" type="line"/>
      <point x="139" y="365" type="line"/>
      <point x="838" y="365" type="line"/>
      <point x="838" y="0" type="line"/>
      <point x="1076" y="0" type="line"/>
      <point x="1076" y="1004" type="line"/>
      <point x="838" y="1004" type="line"/>
      <point x="838" y="534" type="line"/>
      <point x="393" y="534" type="line"/>
      <point x="474" y="704" type="line"/>
      <point x="872" y="1507" type="line"/>
    </contour>
  </outline>
</glyph>
<glyph name="five" format="1">
  <advance width="1329"/>
  <unicode hex="0035"/>
  <outline>
    <contour>
      <point x="672" y="-20" type="curve" smooth="yes"/>
      <point x="1068" y="-20"/>
      <point x="1200" y="66"/>
      <point x="1200" y="472" type="curve" smooth="yes"/>
      <point x="1200" y="821"/>
      <point x="1128" y="976"/>
      <point x="759" y="976" type="curve" smooth="yes"/>
      <point x="542" y="976"/>
      <point x="482" y="899"/>
      <point x="437" y="802" type="curve"/>
      <point x="464" y="1330" type="line"/>
      <point x="1105" y="1330" type="line"/>
      <point x="1105" y="1507" type="line"/>
      <point x="223" y="1507" type="line"/>
      <point x="215" y="661" type="line"/>
      <point x="446" y="650" type="line"/>
      <point x="455" y="700"/>
      <point x="475" y="760"/>
      <point x="503" y="778" type="curve" smooth="yes"/>
      <point x="545" y="804"/>
      <point x="618" y="806"/>
      <point x="692" y="806" type="curve" smooth="yes"/>
      <point x="939" y="806"/>
      <point x="958" y="767"/>
      <point x="958" y="573" type="curve" smooth="yes"/>
      <point x="958" y="529"/>
      <point x="961" y="394"/>
      <point x="961" y="357" type="curve" smooth="yes"/>
      <point x="961" y="231"/>
      <point x="918" y="149"/>
      <point x="672" y="149" type="curve" smooth="yes"/>
      <point x="489" y="149"/>
      <point x="439" y="170"/>
      <point x="423" y="289" type="curve" smooth="yes"/>
      <point x="420" y="308"/>
      <point x="418" y="364"/>
      <point x="416" y="387" type="curve"/>
      <point x="201" y="370" type="line"/>
      <point x="201" y="351"/>
      <point x="199" y="321"/>
      <point x="199" y="303" type="curve" smooth="yes"/>
      <point x="199" y="29"/>
      <point x="377" y="-20"/>
    </contour>
  </outline>
</glyph>
<glyph name="six" format="1">
  <advance width="1319"/>
  <unicode hex="0036"/>
  <outline>
    <contour>
      <point x="723" y="-20" type="curve" smooth="yes"/>
      <point x="1115" y="-20"/>
      <point x="1217" y="81"/>
      <point x="1217" y="489" type="curve" smooth="yes"/>
      <point x="1217" y="882"/>
      <point x="1080" y="963"/>
      <point x="708" y="963" type="curve" smooth="yes"/>
      <point x="540" y="963"/>
      <point x="459" y="932"/>
      <point x="411" y="870" type="curve"/>
      <point x="411" y="1181" type="line" smooth="yes"/>
      <point x="412" y="1327"/>
      <point x="476" y="1372"/>
      <point x="685" y="1372" type="curve" smooth="yes"/>
      <point x="789" y="1372"/>
      <point x="902" y="1368"/>
      <point x="928" y="1343" type="curve" smooth="yes"/>
      <point x="955" y="1318"/>
      <point x="955" y="1228"/>
      <point x="955" y="1142" type="curve"/>
      <point x="1167" y="1152" type="line"/>
      <point x="1167" y="1275" type="line" smooth="yes"/>
      <point x="1168" y="1501"/>
      <point x="934" y="1523"/>
      <point x="687" y="1523" type="curve" smooth="yes"/>
      <point x="207" y="1523"/>
      <point x="178" y="1353"/>
      <point x="178" y="832" type="curve" smooth="yes"/>
      <point x="178" y="621" type="line" smooth="yes"/>
      <point x="178" y="89"/>
      <point x="239" y="-20"/>
    </contour>
    <contour>
      <point x="692" y="133" type="curve" smooth="yes"/>
      <point x="434" y="133"/>
      <point x="411" y="204"/>
      <point x="410" y="352" type="curve" smooth="yes"/>
      <point x="408" y="558" type="line" smooth="yes"/>
      <point x="406" y="717"/>
      <point x="412" y="795"/>
      <point x="693" y="795" type="curve" smooth="yes"/>
      <point x="961" y="795"/>
      <point x="990" y="756"/>
      <point x="990" y="563" type="curve" smooth="yes"/>
      <point x="990" y="320" type="line" smooth="yes"/>
      <point x="990" y="183"/>
      <point x="953" y="133"/>
    </contour>
  </outline>
</glyph>
<glyph name="seven" format="1">
  <advance width="1329"/>
  <unicode hex="0037"/>
  <outline>
    <contour>
      <point x="405" y="0" type="line"/>
      <point x="670" y="0" type="line"/>
      <point x="1165" y="1317" type="line"/>
      <point x="1165" y="1507" type="line"/>
      <point x="198" y="1507" type="line"/>
      <point x="198" y="1332" type="line"/>
      <point x="907" y="1332" type="line"/>
    </contour>
  </outline>
</glyph>
<glyph name="eight" format="1">
  <advance width="1329"/>
  <unicode hex="0038"/>
  <outline>
    <contour>
      <point x="665" y="-20" type="curve" smooth="yes"/>
      <point x="1035" y="-20"/>
      <point x="1192" y="51"/>
      <point x="1192" y="388" type="curve" smooth="yes"/>
      <point x="1192" y="670"/>
      <point x="1124" y="740"/>
      <point x="994" y="807" type="curve"/>
      <point x="1087" y="854"/>
      <point x="1116" y="975"/>
      <point x="1116" y="1147" type="curve" smooth="yes"/>
      <point x="1116" y="1439"/>
      <point x="1028" y="1527"/>
      <point x="664" y="1527" type="curve" smooth="yes"/>
      <point x="299" y="1527"/>
      <point x="211" y="1439"/>
      <point x="211" y="1147" type="curve" smooth="yes"/>
      <point x="211" y="975"/>
      <point x="240" y="854"/>
      <point x="332" y="807" type="curve"/>
      <point x="203" y="740"/>
      <point x="136" y="670"/>
      <point x="136" y="388" type="curve" smooth="yes"/>
      <point x="136" y="50"/>
      <point x="292" y="-20"/>
    </contour>
    <contour>
      <point x="664" y="143" type="curve" smooth="yes"/>
      <point x="404" y="143"/>
      <point x="374" y="211"/>
      <point x="374" y="335" type="curve" smooth="yes"/>
      <point x="374" y="492" type="line" smooth="yes"/>
      <point x="374" y="707"/>
      <point x="445" y="709"/>
      <point x="665" y="709" type="curve" smooth="yes"/>
      <point x="882" y="709"/>
      <point x="953" y="706"/>
      <point x="953" y="492" type="curve" smooth="yes"/>
      <point x="953" y="335" type="line" smooth="yes"/>
      <point x="953" y="211"/>
      <point x="923" y="143"/>
    </contour>
    <contour>
      <point x="511" y="865" type="line"/>
      <point x="447" y="909"/>
      <point x="434" y="997"/>
      <point x="434" y="1152" type="curve" smooth="yes"/>
      <point x="434" y="1339"/>
      <point x="452" y="1359"/>
      <point x="665" y="1359" type="curve" smooth="yes"/>
      <point x="875" y="1359"/>
      <point x="892" y="1338"/>
      <point x="892" y="1152" type="curve" smooth="yes"/>
      <point x="892" y="986"/>
      <point x="878" y="909"/>
      <point x="814" y="865" type="curve"/>
    </contour>
  </outline>
</glyph>
<glyph name="nine" format="1">
  <advance width="1319"/>
  <unicode hex="0039"/>
  <outline>
    <contour>
      <point x="670" y="-20" type="curve" smooth="yes"/>
      <point x="1147" y="-20"/>
      <point x="1179" y="148"/>
      <point x="1179" y="666" type="curve" smooth="yes"/>
      <point x="1179" y="882" type="line" smooth="yes"/>
      <point x="1179" y="1415"/>
      <point x="1123" y="1523"/>
      <point x="633" y="1523" type="curve" smooth="yes"/>
      <point x="249" y="1523"/>
      <point x="140" y="1425"/>
      <point x="140" y="1014" type="curve" smooth="yes"/>
      <point x="140" y="623"/>
      <point x="271" y="535"/>
      <point x="636" y="535" type="curve" smooth="yes"/>
      <point x="804" y="535"/>
      <point x="897" y="567"/>
      <point x="946" y="629" type="curve"/>
      <point x="945" y="322" type="line" smooth="yes"/>
      <point x="944" y="176"/>
      <point x="881" y="131"/>
      <point x="671" y="131" type="curve" smooth="yes"/>
      <point x="567" y="131"/>
      <point x="453" y="135"/>
      <point x="427" y="159" type="curve" smooth="yes"/>
      <point x="400" y="185"/>
      <point x="399" y="253"/>
      <point x="399" y="340" type="curve"/>
      <point x="188" y="329" type="line"/>
      <point x="188" y="225" type="line" smooth="yes"/>
      <point x="186" y="3"/>
      <point x="425" y="-20"/>
    </contour>
    <contour>
      <point x="663" y="703" type="curve" smooth="yes"/>
      <point x="395" y="703"/>
      <point x="367" y="743"/>
      <point x="367" y="936" type="curve" smooth="yes"/>
      <point x="367" y="1183" type="line" smooth="yes"/>
      <point x="367" y="1320"/>
      <point x="403" y="1370"/>
      <point x="664" y="1370" type="curve" smooth="yes"/>
      <point x="923" y="1370"/>
      <point x="944" y="1299"/>
      <point x="946" y="1151" type="curve" smooth="yes"/>
      <point x="948" y="941" type="line" smooth="yes"/>
      <point x="949" y="782"/>
      <point x="944" y="703"/>
    </contour>
  </outline>
</glyph>
<glyph name="colon" format="1">
  <advance width="723"/>
  <unicode hex="003A"/>
  <outline>
    <contour>
      <point x="359" y="126" type="curve" smooth="yes"/>
      <point x="441" y="126"/>
      <point x="524" y="185"/>
      <point x="524" y="303" type="curve" smooth="yes"/>
      <point x="524" y="422"/>
      <point x="441" y="481"/>
      <point x="359" y="481" type="curve" smooth="yes"/>
      <point x="277" y="481"/>
      <point x="196" y="423"/>
      <point x="196" y="303" type="curve" smooth="yes"/>
      <point x="196" y="185"/>
      <point x="277" y="126"/>
    </contour>
    <contour>
      <point x="361" y="924" type="curve" smooth="yes"/>
      <point x="442" y="924"/>
      <point x="524" y="983"/>
      <point x="524" y="1103" type="curve" smooth="yes"/>
      <point x="524" y="1221"/>
      <point x="441" y="1281"/>
      <point x="359" y="1281" type="curve" smooth="yes"/>
      <point x="277" y="1281"/>
      <point x="196" y="1222"/>
      <point x="196" y="1103" type="curve" smooth="yes"/>
      <point x="196" y="984"/>
      <point x="279" y="924"/>
    </contour>
  </outline>
</glyph>
<glyph name="semicolon" format="1">
  <advance width="763"/>
  <unicode hex="003B"/>
  <outline>
    <contour>
      <point x="264" y="-109" type="curve" smooth="yes"/>
      <point x="434" y="-109"/>
      <point x="555" y="94"/>
      <point x="555" y="270" type="curve" smooth="yes"/>
      <point x="555" y="380"/>
      <point x="496" y="476"/>
      <point x="388" y="476" type="curve" smooth="yes"/>
      <point x="292" y="476"/>
      <point x="220" y="407"/>
      <point x="220" y="302" type="curve" smooth="yes"/>
      <point x="220" y="197"/>
      <point x="290" y="127"/>
      <point x="377" y="123" type="curve"/>
      <point x="375" y="39"/>
      <point x="296" y="-19"/>
      <point x="211" y="-20" type="curve"/>
      <point x="211" y="-106" type="line"/>
      <point x="224" y="-108"/>
      <point x="241" y="-109"/>
    </contour>
    <contour>
      <point x="386" y="924" type="curve" smooth="yes"/>
      <point x="480" y="924"/>
      <point x="550" y="992"/>
      <point x="550" y="1103" type="curve" smooth="yes"/>
      <point x="550" y="1211"/>
      <point x="476" y="1281"/>
      <point x="386" y="1281" type="curve" smooth="yes"/>
      <point x="293" y="1281"/>
      <point x="223" y="1213"/>
      <point x="223" y="1103" type="curve" smooth="yes"/>
      <point x="223" y="994"/>
      <point x="296" y="924"/>
    </contour>
  </outline>
</glyph>
<glyph name="less" format="1">
  <advance width="1022"/>
  <unicode hex="003C"/>
  <outline>
    <contour>
      <point x="858" y="206" type="line"/>
      <point x="858" y="467" type="line"/>
      <point x="329" y="754" type="line"/>
      <point x="858" y="1033" type="line"/>
      <point x="858" y="1301" type="line"/>
      <point x="141" y="856" type="line"/>
      <point x="141" y="637" type="line"/>
    </contour>
  </outline>
</glyph>
<glyph name="equal" format="1">
  <advance width="1154"/>
  <unicode hex="003D"/>
  <outline>
    <contour>
      <point x="158" y="264" type="line"/>
      <point x="1003" y="264" type="line"/>
      <point x="1003" y="476" type="line"/>
      <point x="158" y="476" type="line"/>
    </contour>
    <contour>
      <point x="158" y="671" type="line"/>
      <point x="1003" y="671" type="line"/>
      <point x="1003" y="884" type="line"/>
      <point x="158" y="884" type="line"/>
    </contour>
  </outline>
</glyph>
<glyph name="greater" format="1">
  <advance width="1041"/>
  <unicode hex="003E"/>
  <outline>
    <contour>
      <point x="171" y="197" type="line"/>
      <point x="897" y="627" type="line"/>
      <point x="897" y="863" type="line"/>
      <point x="171" y="1308" type="line"/>
      <point x="171" y="1029" type="line"/>
      <point x="704" y="752" type="line"/>
      <point x="171" y="468" type="line"/>
    </contour>
  </outline>
</glyph>
<glyph name="question" format="1">
  <advance width="947"/>
  <unicode hex="003F"/>
  <outline>
    <contour>
      <point x="387" y="471" type="curve" smooth="yes"/>
      <point x="421" y="471"/>
      <point x="441" y="488"/>
      <point x="443" y="520" type="curve"/>
      <point x="452" y="622"/>
      <point x="510" y="708"/>
      <point x="589" y="801" type="curve" smooth="yes"/>
      <point x="711" y="956"/>
      <point x="835" y="1070"/>
      <point x="835" y="1241" type="curve" smooth="yes"/>
      <point x="835" y="1443"/>
      <point x="711" y="1570"/>
      <point x="435" y="1570" type="curve" smooth="yes"/>
      <point x="350" y="1570"/>
      <point x="253" y="1549"/>
      <point x="137" y="1503" type="curve"/>
      <point x="164" y="1259" type="line"/>
      <point x="266" y="1290"/>
      <point x="331" y="1303"/>
      <point x="379" y="1303" type="curve" smooth="yes"/>
      <point x="492" y="1303"/>
      <point x="545" y="1238"/>
      <point x="545" y="1149" type="curve" smooth="yes"/>
      <point x="545" y="1070"/>
      <point x="512" y="997"/>
      <point x="461" y="908" type="curve" smooth="yes"/>
      <point x="379" y="786"/>
      <point x="333" y="687"/>
      <point x="333" y="527" type="curve"/>
      <point x="333" y="496"/>
      <point x="350" y="471"/>
    </contour>
    <contour>
      <point x="385" y="-35" type="curve" smooth="yes"/>
      <point x="466" y="-35"/>
      <point x="547" y="23"/>
      <point x="547" y="141" type="curve" smooth="yes"/>
      <point x="547" y="256"/>
      <point x="463" y="315"/>
      <point x="381" y="315" type="curve" smooth="yes"/>
      <point x="300" y="315"/>
      <point x="219" y="258"/>
      <point x="219" y="141" type="curve" smooth="yes"/>
      <point x="219" y="25"/>
      <point x="302" y="-35"/>
    </contour>
  </outline>
</glyph>
<glyph name="at" format="1">
  <advance width="2098"/>
  <unicode hex="0040"/>
  <outline>
    <contour>
      <point x="1070" y="-259" type="curve" smooth="yes"/>
      <point x="1304" y="-259"/>
      <point x="1489" y="-223"/>
      <point x="1654" y="-152" type="curve"/>
      <point x="1610" y="-24" type="line"/>
      <point x="1419" y="-96"/>
      <point x="1196" y="-119"/>
      <point x="1080" y="-119" type="curve" smooth="yes"/>
      <point x="526" y="-119"/>
      <point x="372" y="118"/>
      <point x="372" y="663" type="curve" smooth="yes"/>
      <point x="372" y="1179"/>
      <point x="538" y="1413"/>
      <point x="1086" y="1413" type="curve" smooth="yes"/>
      <point x="1625" y="1413"/>
      <point x="1731" y="1216"/>
      <point x="1731" y="694" type="curve" smooth="yes"/>
      <point x="1731" y="424"/>
      <point x="1726" y="318"/>
      <point x="1674" y="281" type="curve"/>
      <point x="1643" y="261"/>
      <point x="1561" y="260"/>
      <point x="1482" y="260" type="curve"/>
      <point x="1482" y="902" type="line" smooth="yes"/>
      <point x="1482" y="1109"/>
      <point x="1365" y="1202"/>
      <point x="1107" y="1202" type="curve" smooth="yes"/>
      <point x="851" y="1202"/>
      <point x="693" y="1176"/>
      <point x="694" y="974" type="curve" smooth="yes"/>
      <point x="694" y="950"/>
      <point x="696" y="915"/>
      <point x="702" y="888" type="curve"/>
      <point x="888" y="888" type="line"/>
      <point x="885" y="928"/>
      <point x="875" y="1003"/>
      <point x="896" y="1028" type="curve" smooth="yes"/>
      <point x="921" y="1057"/>
      <point x="986" y="1062"/>
      <point x="1084" y="1062" type="curve"/>
      <point x="1232" y="1062"/>
      <point x="1280" y="1049"/>
      <point x="1280" y="943" type="curve" smooth="yes"/>
      <point x="1280" y="722" type="line"/>
      <point x="1152" y="744"/>
      <point x="1060" y="752"/>
      <point x="974" y="752" type="curve" smooth="yes"/>
      <point x="751" y="752"/>
      <point x="651" y="643"/>
      <point x="652" y="429" type="curve" smooth="yes"/>
      <point x="653" y="196"/>
      <point x="765" y="127"/>
      <point x="1019" y="127" type="curve" smooth="yes"/>
      <point x="1230" y="127"/>
      <point x="1291" y="190"/>
      <point x="1329" y="288" type="curve"/>
      <point x="1351" y="203"/>
      <point x="1419" y="144"/>
      <point x="1518" y="143" type="curve" smooth="yes"/>
      <point x="1875" y="143"/>
      <point x="1914" y="312"/>
      <point x="1914" y="695" type="curve" smooth="yes"/>
      <point x="1914" y="1331"/>
      <point x="1733" y="1560"/>
      <point x="1070" y="1560" type="curve" smooth="yes"/>
      <point x="441" y="1560"/>
      <point x="189" y="1289"/>
      <point x="189" y="638" type="curve" smooth="yes"/>
      <point x="189" y="-38"/>
      <point x="467" y="-259"/>
    </contour>
    <contour>
      <point x="1078" y="250" type="curve" smooth="yes"/>
      <point x="884" y="250"/>
      <point x="854" y="286"/>
      <point x="854" y="385" type="curve" smooth="yes"/>
      <point x="854" y="562"/>
      <point x="891" y="635"/>
      <point x="1026" y="636" type="curve" smooth="yes"/>
      <point x="1280" y="638" type="line"/>
      <point x="1279" y="436" type="line" smooth="yes"/>
      <point x="1278" y="341"/>
      <point x="1211" y="250"/>
    </contour>
  </outline>
</glyph>
<glyph name="A" format="1">
  <advance width="1417"/>
  <unicode hex="0041"/>
  <outline>
    <contour>
      <point x="709" y="1503" type="move" name="top"/>
    </contour>
    <contour>
      <point x="1190" y="0" type="move" name="ogonek"/>
    </contour>
    <contour>
      <point x="709" y="0" type="move" name="bot"/>
    </contour>
    <contour>
      <point x="540" y="1503" type="line"/>
      <point x="97" y="0" type="line"/>
      <point x="339" y="0" type="line"/>
      <point x="445" y="379" type="line"/>
      <point x="961" y="379" type="line"/>
      <point x="1070" y="0" type="line"/>
      <point x="1322" y="0" type="line"/>
      <point x="887" y="1503" type="line"/>
    </contour>
    <contour>
      <point x="922" y="531" type="line"/>
      <point x="485" y="531" type="line"/>
      <point x="703" y="1339" type="line"/>
      <point x="706" y="1339" type="line"/>
    </contour>
  </outline>
</glyph>
<glyph name="B" format="1">
  <advance width="1420"/>
  <unicode hex="0042"/>
  <outline>
    <contour>
      <point x="725" y="1507" type="move" name="top"/>
    </contour>
    <contour>
      <point x="190" y="0" type="line"/>
      <point x="774" y="0" type="line" smooth="yes"/>
      <point x="1199" y="0"/>
      <point x="1294" y="36"/>
      <point x="1294" y="434" type="curve" smooth="yes"/>
      <point x="1294" y="628"/>
      <point x="1257" y="786"/>
      <point x="1011" y="812" type="curve"/>
      <point x="1011" y="816" type="line"/>
      <point x="1190" y="846"/>
      <point x="1243" y="917"/>
      <point x="1243" y="1122" type="curve"/>
      <point x="1242" y="1217" type="line" smooth="yes"/>
      <point x="1239" y="1460"/>
      <point x="1080" y="1507"/>
      <point x="801" y="1507" type="curve" smooth="yes"/>
      <point x="190" y="1507" type="line"/>
    </contour>
    <contour>
      <point x="456" y="164" type="line"/>
      <point x="456" y="736" type="line"/>
      <point x="665" y="736" type="line" smooth="yes"/>
      <point x="1026" y="736"/>
      <point x="1028" y="712"/>
      <point x="1030" y="524" type="curve" smooth="yes"/>
      <point x="1032" y="327" type="line" smooth="yes"/>
      <point x="1032" y="204"/>
      <point x="981" y="164"/>
      <point x="790" y="164" type="curve" smooth="yes"/>
    </contour>
    <contour>
      <point x="456" y="875" type="line"/>
      <point x="456" y="1341" type="line"/>
      <point x="695" y="1341" type="line" smooth="yes"/>
      <point x="968" y="1341"/>
      <point x="986" y="1333"/>
      <point x="986" y="1191" type="curve" smooth="yes"/>
      <point x="986" y="983" type="line" smooth="yes"/>
      <point x="986" y="912"/>
      <point x="937" y="875"/>
      <point x="638" y="875" type="curve" smooth="yes"/>
    </contour>
  </outline>
</glyph>
<glyph name="C" format="1">
  <advance width="1413"/>
  <unicode hex="0043"/>
  <outline>
    <contour>
      <point x="749" y="1507" type="move" name="top"/>
    </contour>
    <contour>
      <point x="749" y="0" type="move" name="bot"/>
    </contour>
    <contour>
      <point x="155" y="1088" type="curve" smooth="yes"/>
      <point x="150" y="1013"/>
      <point x="148" y="862"/>
      <point x="148" y="756" type="curve" smooth="yes"/>
      <point x="148" y="658"/>
      <point x="149" y="505"/>
      <point x="156" y="431" type="curve" smooth="yes"/>
      <point x="180" y="81"/>
      <point x="348" y="-20"/>
      <point x="787" y="-20" type="curve" smooth="yes"/>
      <point x="1111" y="-20"/>
      <point x="1277" y="45"/>
      <point x="1298" y="343" type="curve" smooth="yes"/>
      <point x="1305" y="470" type="line"/>
      <point x="1062" y="483" type="line"/>
      <point x="1054" y="376"/>
      <point x="1054" y="255"/>
      <point x="1020" y="212" type="curve" smooth="yes"/>
      <point x="988" y="170"/>
      <point x="907" y="153"/>
      <point x="762" y="153" type="curve" smooth="yes"/>
      <point x="511" y="153"/>
      <point x="429" y="198"/>
      <point x="423" y="286" type="curve" smooth="yes"/>
      <point x="416" y="389"/>
      <point x="416" y="581"/>
      <point x="416" y="688" type="curve" smooth="yes"/>
      <point x="416" y="842"/>
      <point x="416" y="1074"/>
      <point x="423" y="1222" type="curve" smooth="yes"/>
      <point x="429" y="1343"/>
      <point x="550" y="1354"/>
      <point x="761" y="1354" type="curve" smooth="yes"/>
      <point x="878" y="1354"/>
      <point x="957" y="1353"/>
      <point x="995" y="1319" type="curve" smooth="yes"/>
      <point x="1035" y="1286"/>
      <point x="1048" y="1164"/>
      <point x="1061" y="1033" type="curve"/>
      <point x="1304" y="1057" type="line"/>
      <point x="1298" y="1160" type="line" smooth="yes"/>
      <point x="1271" y="1474"/>
      <point x="1090" y="1527"/>
      <point x="772" y="1527" type="curve" smooth="yes"/>
      <point x="340" y="1527"/>
      <point x="179" y="1458"/>
    </contour>
  </outline>
</glyph>
<glyph name="D" format="1">
  <advance width="1545"/>
  <unicode hex="0044"/>
  <outline>
    <contour>
      <point x="785" y="1529" type="move" name="top"/>
    </contour>
    <contour>
      <point x="785" y="0" type="move" name="bot"/>
    </contour>
    <contour>
      <point x="393" y="781" type="move" name="mid"/>
    </contour>
    <contour>
      <point x="188" y="1536" type="line"/>
      <point x="188" y="0" type="line"/>
      <point x="696" y="0" type="line" smooth="yes"/>
      <point x="1220" y="0"/>
      <point x="1391" y="25"/>
      <point x="1396" y="558" type="curve"/>
      <point x="1397" y="1009" type="line"/>
      <point x="1397" y="1442"/>
      <point x="1216" y="1536"/>
      <point x="793" y="1536" type="curve" smooth="yes"/>
    </contour>
    <contour>
      <point x="1047" y="906" type="curve" smooth="yes"/>
      <point x="1047" y="585" type="line" smooth="yes"/>
      <point x="1047" y="332"/>
      <point x="1003" y="189"/>
      <point x="755" y="189" type="curve" smooth="yes"/>
      <point x="540" y="189" type="line"/>
      <point x="540" y="1346" type="line"/>
      <point x="736" y="1346" type="line" smooth="yes"/>
      <point x="1047" y="1346"/>
      <point x="1047" y="1123"/>
    </contour>
  </outline>
</glyph>
<glyph name="E" format="1">
  <advance width="1164"/>
  <unicode hex="0045"/>
  <outline>
    <contour>
      <point x="595" y="1507" type="move" name="top"/>
    </contour>
    <contour>
      <point x="666" y="0" type="move" name="ogonek"/>
    </contour>
    <contour>
      <point x="595" y="0" type="move" name="bot"/>
    </contour>
    <contour>
      <point x="190" y="1507" type="line"/>
      <point x="190" y="0" type="line"/>
      <point x="1051" y="0" type="line"/>
      <point x="1067" y="169" type="line"/>
      <point x="458" y="169" type="line"/>
      <point x="458" y="698" type="line"/>
      <point x="976" y="698" type="line"/>
      <point x="976" y="874" type="line"/>
      <point x="458" y="874" type="line"/>
      <point x="458" y="1338" type="line"/>
      <point x="1062" y="1338" type="line"/>
      <point x="1043" y="1507" type="line"/>
    </contour>
  </outline>
</glyph>
<glyph name="F" format="1">
  <advance width="1093"/>
  <unicode hex="0046"/>
  <outline>
    <contour>
      <point x="603" y="1507" type="move" name="top"/>
    </contour>
    <contour>
      <point x="561" y="0" type="move" name="bot"/>
    </contour>
    <contour>
      <point x="190" y="1507" type="line"/>
      <point x="190" y="0" type="line"/>
      <point x="458" y="0" type="line"/>
      <point x="458" y="691" type="line"/>
      <point x="949" y="691" type="line"/>
      <point x="949" y="867" type="line"/>
      <point x="458" y="867" type="line"/>
      <point x="458" y="1338" type="line"/>
      <point x="1030" y="1338" type="line"/>
      <point x="1012" y="1507" type="line"/>
    </contour>
  </outline>
</glyph>
<glyph name="G" format="1">
  <advance width="1497"/>
  <unicode hex="0047"/>
  <outline>
    <contour>
      <point x="753" y="1529" type="move" name="top"/>
    </contour>
    <contour>
      <point x="753" y="0" type="move" name="bot"/>
    </contour>
    <contour>
      <point x="174" y="1208" type="curve" smooth="yes"/>
      <point x="157" y="1144"/>
      <point x="154" y="877"/>
      <point x="154" y="766" type="curve" smooth="yes"/>
      <point x="154" y="664"/>
      <point x="156" y="395"/>
      <point x="167" y="333" type="curve" smooth="yes"/>
      <point x="192" y="37"/>
      <point x="351" y="-21"/>
      <point x="761" y="-21" type="curve" smooth="yes"/>
      <point x="1002" y="-21"/>
      <point x="1258" y="16"/>
      <point x="1361" y="109" type="curve"/>
      <point x="1361" y="756" type="line"/>
      <point x="800" y="756" type="line"/>
      <point x="810" y="597" type="line"/>
      <point x="1062" y="597" type="line"/>
      <point x="1062" y="207" type="line"/>
      <point x="1047" y="190"/>
      <point x="912" y="182"/>
      <point x="771" y="182" type="curve" smooth="yes"/>
      <point x="568" y="182"/>
      <point x="517" y="202"/>
      <point x="512" y="306" type="curve" smooth="yes"/>
      <point x="508" y="382"/>
      <point x="506" y="702"/>
      <point x="506" y="783" type="curve" smooth="yes"/>
      <point x="506" y="861"/>
      <point x="506" y="1178"/>
      <point x="512" y="1255" type="curve" smooth="yes"/>
      <point x="517" y="1326"/>
      <point x="585" y="1349"/>
      <point x="754" y="1349" type="curve" smooth="yes"/>
      <point x="911" y="1349"/>
      <point x="999" y="1342"/>
      <point x="1001" y="1292" type="curve" smooth="yes"/>
      <point x="1008" y="1015" type="line"/>
      <point x="1344" y="1043" type="line"/>
      <point x="1345" y="1052"/>
      <point x="1346" y="1162"/>
      <point x="1346" y="1171" type="curve" smooth="yes"/>
      <point x="1346" y="1534"/>
      <point x="1040" y="1557"/>
      <point x="772" y="1557" type="curve" smooth="yes"/>
      <point x="437" y="1557"/>
      <point x="206" y="1501"/>
    </contour>
  </outline>
</glyph>
<glyph name="H" format="1">
  <advance width="1505"/>
  <unicode hex="0048"/>
  <outline>
    <contour>
      <point x="753" y="1507" type="move" name="top"/>
    </contour>
    <contour>
      <point x="753" y="0" type="move" name="bot"/>
    </contour>
    <contour>
      <point x="757" y="753" type="move" name="center"/>
    </contour>
    <contour>
      <point x="1048" y="1507" type="line"/>
      <point x="1048" y="853" type="line"/>
      <point x="458" y="853" type="line"/>
      <point x="458" y="1507" type="line"/>
      <point x="190" y="1507" type="line"/>
      <point x="190" y="0" type="line"/>
      <point x="458" y="0" type="line"/>
      <point x="458" y="685" type="line"/>
      <point x="1048" y="685" type="line"/>
      <point x="1048" y="0" type="line"/>
      <point x="1315" y="0" type="line"/>
      <point x="1315" y="1507" type="line"/>
    </contour>
  </outline>
</glyph>
<glyph name="I" format="1">
  <advance width="597"/>
  <unicode hex="0049"/>
  <outline>
    <contour>
      <point x="299" y="1507" type="move" name="top"/>
    </contour>
    <contour>
      <point x="306" y="0" type="move" name="ogonek"/>
    </contour>
    <contour>
      <point x="299" y="0" type="move" name="bot"/>
    </contour>
    <contour>
      <point x="165" y="1507" type="line"/>
      <point x="165" y="0" type="line"/>
      <point x="432" y="0" type="line"/>
      <point x="432" y="1507" type="line"/>
    </contour>
  </outline>
</glyph>
<glyph name="J" format="1">
  <advance width="812"/>
  <unicode hex="004A"/>
  <outline>
    <contour>
      <point x="514" y="1507" type="move" name="top"/>
    </contour>
    <contour>
      <point x="406" y="0" type="move" name="bot"/>
    </contour>
    <contour>
      <point x="297" y="-39" type="curve" smooth="yes"/>
      <point x="507" y="-39"/>
      <point x="650" y="22"/>
      <point x="650" y="312" type="curve" smooth="yes"/>
      <point x="650" y="1507" type="line"/>
      <point x="382" y="1507" type="line"/>
      <point x="382" y="325" type="line" smooth="yes"/>
      <point x="382" y="212"/>
      <point x="379" y="153"/>
      <point x="274" y="141" type="curve" smooth="yes"/>
      <point x="240" y="137"/>
      <point x="164" y="136"/>
      <point x="106" y="136" type="curve"/>
      <point x="116" y="-28" type="line"/>
      <point x="130" y="-31"/>
      <point x="226" y="-39"/>
    </contour>
  </outline>
</glyph>
<glyph name="K" format="1">
  <advance width="1367"/>
  <unicode hex="004B"/>
  <outline>
    <contour>
      <point x="686" y="1507" type="move" name="top"/>
    </contour>
    <contour>
      <point x="686" y="0" type="move" name="bot"/>
    </contour>
    <contour>
      <point x="990" y="1507" type="line"/>
      <point x="563" y="916" type="line"/>
      <point x="456" y="766" type="line"/>
      <point x="457" y="947" type="line"/>
      <point x="457" y="1507" type="line"/>
      <point x="190" y="1507" type="line"/>
      <point x="190" y="0" type="line"/>
      <point x="457" y="0" type="line"/>
      <point x="457" y="587" type="line"/>
      <point x="532" y="686" type="line"/>
      <point x="1045" y="0" type="line"/>
      <point x="1355" y="0" type="line"/>
      <point x="757" y="790" type="line"/>
      <point x="1292" y="1507" type="line"/>
    </contour>
  </outline>
</glyph>
<glyph name="L" format="1">
  <advance width="1049"/>
  <unicode hex="004C"/>
  <outline>
    <contour>
      <point x="360" y="1507" type="move" name="top"/>
    </contour>
    <contour>
      <point x="379" y="1130" type="move" name="caron.alt"/>
    </contour>
    <contour>
      <point x="560" y="0" type="move" name="bot"/>
    </contour>
    <contour>
      <point x="190" y="1507" type="line"/>
      <point x="190" y="0" type="line"/>
      <point x="977" y="0" type="line"/>
      <point x="994" y="167" type="line"/>
      <point x="458" y="167" type="line"/>
      <point x="458" y="1507" type="line"/>
    </contour>
  </outline>
</glyph>
<glyph name="M" format="1">
  <advance width="1810"/>
  <unicode hex="004D"/>
  <outline>
    <contour>
      <point x="905" y="1507" type="move" name="top"/>
    </contour>
    <contour>
      <point x="905" y="0" type="move" name="bot"/>
    </contour>
    <contour>
      <point x="1283" y="1507" type="line"/>
      <point x="909" y="384" type="line"/>
      <point x="905" y="384" type="line"/>
      <point x="524" y="1507" type="line"/>
      <point x="232" y="1507" type="line"/>
      <point x="136" y="0" type="line"/>
      <point x="367" y="0" type="line"/>
      <point x="433" y="1145" type="line"/>
      <point x="437" y="1145" type="line"/>
      <point x="823" y="0" type="line"/>
      <point x="989" y="0" type="line"/>
      <point x="1359" y="1145" type="line"/>
      <point x="1365" y="1145" type="line"/>
      <point x="1434" y="0" type="line"/>
      <point x="1671" y="0" type="line"/>
      <point x="1575" y="1507" type="line"/>
    </contour>
  </outline>
</glyph>
<glyph name="N" format="1">
  <advance width="1584"/>
  <unicode hex="004E"/>
  <outline>
    <contour>
      <point x="805" y="1529" type="move" name="top"/>
    </contour>
    <contour>
      <point x="792" y="0" type="move" name="bot"/>
    </contour>
    <contour>
      <point x="1119" y="1536" type="line"/>
      <point x="1119" y="533" type="line"/>
      <point x="509" y="1536" type="line"/>
      <point x="188" y="1536" type="line"/>
      <point x="188" y="0" type="line"/>
      <point x="466" y="0" type="line"/>
      <point x="466" y="972" type="line"/>
      <point x="1063" y="0" type="line"/>
      <point x="1396" y="0" type="line"/>
      <point x="1396" y="1536" type="line"/>
    </contour>
  </outline>
</glyph>
<glyph name="O" format="1">
  <advance width="1548"/>
  <unicode hex="004F"/>
  <outline>
    <contour>
      <point x="774" y="1529" type="move" name="top"/>
    </contour>
    <contour>
      <point x="883" y="0" type="move" name="ogonek"/>
    </contour>
    <contour>
      <point x="774" y="0" type="move" name="bot"/>
    </contour>
    <contour>
      <point x="774" y="186" type="curve" smooth="yes"/>
      <point x="564" y="186"/>
      <point x="512" y="212"/>
      <point x="508" y="333" type="curve" smooth="yes"/>
      <point x="506" y="384"/>
      <point x="506" y="676"/>
      <point x="506" y="767" type="curve" smooth="yes"/>
      <point x="506" y="861"/>
      <point x="506" y="1152"/>
      <point x="508" y="1203" type="curve" smooth="yes"/>
      <point x="512" y="1324"/>
      <point x="564" y="1351"/>
      <point x="774" y="1351" type="curve" smooth="yes"/>
      <point x="985" y="1351"/>
      <point x="1036" y="1324"/>
      <point x="1040" y="1203" type="curve" smooth="yes"/>
      <point x="1042" y="1152"/>
      <point x="1042" y="861"/>
      <point x="1042" y="767" type="curve" smooth="yes"/>
      <point x="1042" y="676"/>
      <point x="1042" y="384"/>
      <point x="1040" y="333" type="curve" smooth="yes"/>
      <point x="1036" y="212"/>
      <point x="985" y="186"/>
    </contour>
    <contour>
      <point x="773" y="-21" type="curve" smooth="yes"/>
      <point x="1199" y="-20"/>
      <point x="1394" y="75"/>
      <point x="1394" y="552" type="curve" smooth="yes"/>
      <point x="1394" y="984" type="line" smooth="yes"/>
      <point x="1394" y="1461"/>
      <point x="1188" y="1557"/>
      <point x="773" y="1557" type="curve" smooth="yes"/>
      <point x="347" y="1557"/>
      <point x="154" y="1458"/>
      <point x="154" y="984" type="curve" smooth="yes"/>
      <point x="154" y="552" type="line" smooth="yes"/>
      <point x="154" y="74"/>
      <point x="340" y="-21"/>
    </contour>
  </outline>
</glyph>
<glyph name="P" format="1">
  <advance width="1350"/>
  <unicode hex="0050"/>
  <outline>
    <contour>
      <point x="682" y="1503" type="move" name="top"/>
    </contour>
    <contour>
      <point x="682" y="0" type="move" name="bot"/>
    </contour>
    <contour>
      <point x="191" y="0" type="line"/>
      <point x="441" y="0" type="line"/>
      <point x="441" y="507" type="line"/>
      <point x="809" y="507" type="line" smooth="yes"/>
      <point x="1061" y="507"/>
      <point x="1236" y="556"/>
      <point x="1242" y="956" type="curve" smooth="yes"/>
      <point x="1242" y="1028" type="line" smooth="yes"/>
      <point x="1242" y="1431"/>
      <point x="1105" y="1503"/>
      <point x="757" y="1503" type="curve" smooth="yes"/>
      <point x="191" y="1503" type="line"/>
    </contour>
    <contour>
      <point x="441" y="667" type="line"/>
      <point x="441" y="1343" type="line"/>
      <point x="798" y="1343" type="line" smooth="yes"/>
      <point x="858" y="1343"/>
      <point x="908" y="1335"/>
      <point x="935" y="1314" type="curve" smooth="yes"/>
      <point x="980" y="1279"/>
      <point x="989" y="1159"/>
      <point x="991" y="1013" type="curve" smooth="yes"/>
      <point x="991" y="875"/>
      <point x="992" y="744"/>
      <point x="930" y="701" type="curve" smooth="yes"/>
      <point x="898" y="678"/>
      <point x="838" y="667"/>
      <point x="762" y="667" type="curve" smooth="yes"/>
    </contour>
  </outline>
</glyph>
<glyph name="Q" format="1">
  <advance width="1489"/>
  <unicode hex="0051"/>
  <outline>
    <contour>
      <point x="823" y="39" type="line"/>
      <point x="1091" y="-369" type="line"/>
      <point x="1269" y="-268" type="line"/>
      <point x="1054" y="78" type="line"/>
    </contour>
    <component base="O"/>
  </outline>
</glyph>
<glyph name="R" format="1">
  <advance width="1437"/>
  <unicode hex="0052"/>
  <outline>
    <contour>
      <point x="725" y="1507" type="move" name="top"/>
    </contour>
    <contour>
      <point x="725" y="0" type="move" name="bot"/>
    </contour>
    <contour>
      <point x="190" y="0" type="line"/>
      <point x="457" y="0" type="line"/>
      <point x="457" y="642" type="line"/>
      <point x="744" y="642" type="line" smooth="yes"/>
      <point x="870" y="642"/>
      <point x="955" y="592"/>
      <point x="975" y="454" type="curve" smooth="yes"/>
      <point x="1027" y="0" type="line"/>
      <point x="1306" y="0" type="line"/>
      <point x="1242" y="461" type="line" smooth="yes"/>
      <point x="1221" y="603"/>
      <point x="1162" y="698"/>
      <point x="1009" y="725" type="curve"/>
      <point x="1009" y="726" type="line" smooth="yes"/>
      <point x="1188" y="754"/>
      <point x="1277" y="844"/>
      <point x="1277" y="1106" type="curve" smooth="yes"/>
      <point x="1277" y="1474"/>
      <point x="1091" y="1507"/>
      <point x="719" y="1507" type="curve" smooth="yes"/>
      <point x="190" y="1507" type="line"/>
    </contour>
    <contour>
      <point x="457" y="813" type="line"/>
      <point x="457" y="1340" type="line"/>
      <point x="767" y="1340" type="line" smooth="yes"/>
      <point x="1003" y="1340"/>
      <point x="1014" y="1265"/>
      <point x="1014" y="1090" type="curve" smooth="yes"/>
      <point x="1014" y="899"/>
      <point x="990" y="813"/>
      <point x="778" y="813" type="curve" smooth="yes"/>
    </contour>
  </outline>
</glyph>
<glyph name="S" format="1">
  <advance width="1362"/>
  <unicode hex="0053"/>
  <outline>
    <contour>
      <point x="673" y="1507" type="move" name="top"/>
    </contour>
    <contour>
      <point x="673" y="0" type="move" name="bot"/>
    </contour>
    <contour>
      <point x="673" y="-20" type="curve" smooth="yes"/>
      <point x="1073" y="-20"/>
      <point x="1217" y="24"/>
      <point x="1217" y="457" type="curve" smooth="yes"/>
      <point x="1217" y="798"/>
      <point x="1084" y="838"/>
      <point x="831" y="882" type="curve" smooth="yes"/>
      <point x="549" y="931" type="line"/>
      <point x="488" y="942"/>
      <point x="459" y="954"/>
      <point x="442" y="978" type="curve" smooth="yes"/>
      <point x="416" y="1001"/>
      <point x="410" y="1070"/>
      <point x="410" y="1127" type="curve" smooth="yes"/>
      <point x="410" y="1309"/>
      <point x="451" y="1341"/>
      <point x="692" y="1341" type="curve" smooth="yes"/>
      <point x="812" y="1341"/>
      <point x="881" y="1333"/>
      <point x="908" y="1307" type="curve" smooth="yes"/>
      <point x="935" y="1281"/>
      <point x="934" y="1213"/>
      <point x="940" y="1137" type="curve"/>
      <point x="1176" y="1176" type="line"/>
      <point x="1176" y="1486"/>
      <point x="1030" y="1527"/>
      <point x="663" y="1527" type="curve" smooth="yes"/>
      <point x="276" y="1527"/>
      <point x="155" y="1454"/>
      <point x="155" y="1083" type="curve" smooth="yes"/>
      <point x="155" y="846"/>
      <point x="227" y="753"/>
      <point x="415" y="717" type="curve" smooth="yes"/>
      <point x="739" y="657" type="line"/>
      <point x="757" y="653"/>
      <point x="891" y="628"/>
      <point x="891" y="619" type="curve" smooth="yes"/>
      <point x="942" y="610"/>
      <point x="951" y="521"/>
      <point x="952" y="383" type="curve" smooth="yes"/>
      <point x="953" y="197"/>
      <point x="911" y="161"/>
      <point x="674" y="161" type="curve" smooth="yes"/>
      <point x="535" y="161"/>
      <point x="458" y="172"/>
      <point x="427" y="206" type="curve" smooth="yes"/>
      <point x="396" y="239"/>
      <point x="398" y="330"/>
      <point x="387" y="423" type="curve"/>
      <point x="140" y="391" type="line"/>
      <point x="151" y="64"/>
      <point x="202" y="-20"/>
    </contour>
  </outline>
</glyph>
<glyph name="T" format="1">
  <advance width="1117"/>
  <unicode hex="0054"/>
  <outline>
    <contour>
      <point x="559" y="1503" type="move" name="top"/>
    </contour>
    <contour>
      <point x="559" y="0" type="move" name="bot"/>
    </contour>
    <contour>
      <point x="557" y="890" type="move" name="mid"/>
    </contour>
    <contour>
      <point x="52" y="1503" type="line"/>
      <point x="52" y="1335" type="line"/>
      <point x="429" y="1335" type="line"/>
      <point x="429" y="0" type="line"/>
      <point x="680" y="0" type="line"/>
      <point x="680" y="1335" type="line"/>
      <point x="1065" y="1335" type="line"/>
      <point x="1065" y="1503" type="line"/>
    </contour>
  </outline>
</glyph>
<glyph name="U" format="1">
  <advance width="1461"/>
  <unicode hex="0055"/>
  <outline>
    <contour>
      <point x="731" y="1507" type="move" name="top"/>
    </contour>
    <contour>
      <point x="813" y="0" type="move" name="ogonek"/>
    </contour>
    <contour>
      <point x="731" y="0" type="move" name="bot"/>
    </contour>
    <contour>
      <point x="148" y="1507" type="line"/>
      <point x="148" y="533" type="line" smooth="yes"/>
      <point x="148" y="63"/>
      <point x="329" y="-20"/>
      <point x="729" y="-20" type="curve" smooth="yes"/>
      <point x="1150" y="-20"/>
      <point x="1314" y="79"/>
      <point x="1314" y="533" type="curve" smooth="yes"/>
      <point x="1314" y="1507" type="line"/>
      <point x="1047" y="1507" type="line"/>
      <point x="1047" y="409" type="line" smooth="yes"/>
      <point x="1047" y="201"/>
      <point x="1005" y="153"/>
      <point x="730" y="153" type="curve" smooth="yes"/>
      <point x="430" y="153"/>
      <point x="415" y="192"/>
      <point x="415" y="490" type="curve" smooth="yes"/>
      <point x="415" y="1507" type="line"/>
    </contour>
  </outline>
</glyph>
<glyph name="V" format="1">
  <advance width="1367"/>
  <unicode hex="0056"/>
  <outline>
    <contour>
      <point x="1034" y="1507" type="line"/>
      <point x="683" y="285" type="line"/>
      <point x="680" y="285" type="line"/>
      <point x="322" y="1507" type="line"/>
      <point x="47" y="1507" type="line"/>
      <point x="522" y="0" type="line"/>
      <point x="833" y="0" type="line"/>
      <point x="1314" y="1507" type="line"/>
    </contour>
  </outline>
</glyph>
<glyph name="W" format="1">
  <advance width="1938"/>
  <unicode hex="0057"/>
  <outline>
    <contour>
      <point x="966" y="1507" type="move" name="top"/>
    </contour>
    <contour>
      <point x="966" y="0" type="move" name="bot"/>
    </contour>
    <contour>
      <point x="1600" y="1507" type="line"/>
      <point x="1394" y="359" type="line"/>
      <point x="1380" y="359" type="line"/>
      <point x="1100" y="1507" type="line"/>
      <point x="854" y="1507" type="line"/>
      <point x="571" y="352" type="line"/>
      <point x="562" y="352" type="line"/>
      <point x="356" y="1507" type="line"/>
      <point x="95" y="1507" type="line"/>
      <point x="395" y="0" type="line"/>
      <point x="676" y="0" type="line"/>
      <point x="967" y="1124" type="line"/>
      <point x="981" y="1124" type="line"/>
      <point x="1252" y="0" type="line"/>
      <point x="1537" y="0" type="line"/>
      <point x="1842" y="1507" type="line"/>
    </contour>
  </outline>
</glyph>
<glyph name="X" format="1">
  <advance width="1326"/>
  <unicode hex="0058"/>
  <outline>
    <contour>
      <point x="1005" y="1507" type="line"/>
      <point x="633" y="901" type="line"/>
      <point x="543" y="819" type="line"/>
      <point x="38" y="0" type="line"/>
      <point x="311" y="0" type="line"/>
      <point x="701" y="625" type="line"/>
      <point x="795" y="716" type="line"/>
      <point x="1275" y="1507" type="line"/>
    </contour>
    <contour>
      <point x="83" y="1507" type="line"/>
      <point x="1012" y="0" type="line"/>
      <point x="1279" y="0" type="line"/>
      <point x="345" y="1507" type="line"/>
    </contour>
  </outline>
</glyph>
<glyph name="Y" format="1">
  <advance width="1345"/>
  <unicode hex="0059"/>
  <outline>
    <contour>
      <point x="680" y="1529" type="move" name="top"/>
    </contour>
    <contour>
      <point x="680" y="0" type="move" name="bot"/>
    </contour>
    <contour>
      <point x="972" y="1536" type="line"/>
      <point x="676" y="828" type="line"/>
      <point x="671" y="828" type="line"/>
      <point x="384" y="1536" type="line"/>
      <point x="44" y="1536" type="line"/>
      <point x="494" y="527" type="line"/>
      <point x="494" y="0" type="line"/>
      <point x="845" y="0" type="line"/>
      <point x="845" y="523" type="line"/>
      <point x="1306" y="1536" type="line"/>
    </contour>
  </outline>
</glyph>
<glyph name="Z" format="1">
  <advance width="1143"/>
  <unicode hex="005A"/>
  <outline>
    <contour>
      <point x="575" y="1507" type="move" name="top"/>
    </contour>
    <contour>
      <point x="575" y="0" type="move" name="bot"/>
    </contour>
    <contour>
      <point x="150" y="1507" type="line"/>
      <point x="167" y="1333" type="line"/>
      <point x="777" y="1333" type="line"/>
      <point x="122" y="190" type="line"/>
      <point x="130" y="0" type="line"/>
      <point x="1034" y="0" type="line"/>
      <point x="1035" y="174" type="line"/>
      <point x="400" y="174" type="line"/>
      <point x="1039" y="1316" type="line"/>
      <point x="1030" y="1507" type="line"/>
    </contour>
  </outline>
</glyph>
<glyph name="bracketleft" format="1">
  <advance width="818"/>
  <unicode hex="005B"/>
  <outline>
    <contour>
      <point x="207" y="1667" type="line"/>
      <point x="207" y="-280" type="line"/>
      <point x="738" y="-280" type="line"/>
      <point x="738" y="-113" type="line"/>
      <point x="469" y="-113" type="line"/>
      <point x="469" y="1502" type="line"/>
      <point x="738" y="1502" type="line"/>
      <point x="738" y="1667" type="line"/>
    </contour>
  </outline>
</glyph>
<glyph name="backslash" format="1">
  <advance width="947"/>
  <unicode hex="005C"/>
  <outline>
    <contour>
      <point x="145" y="1551" type="line"/>
      <point x="498" y="-15" type="line"/>
      <point x="793" y="-15" type="line"/>
      <point x="446" y="1551" type="line"/>
    </contour>
  </outline>
</glyph>
<glyph name="bracketright" format="1">
  <advance width="865"/>
  <unicode hex="005D"/>
  <outline>
    <contour>
      <point x="148" y="1667" type="line"/>
      <point x="148" y="1502" type="line"/>
      <point x="416" y="1502" type="line"/>
      <point x="416" y="-113" type="line"/>
      <point x="148" y="-113" type="line"/>
      <point x="148" y="-280" type="line"/>
      <point x="678" y="-280" type="line"/>
      <point x="678" y="1667" type="line"/>
    </contour>
  </outline>
</glyph>
<glyph name="asciicircum" format="1">
  <advance width="1021"/>
  <unicode hex="005E"/>
  <outline>
    <contour>
      <point x="511" y="1500" type="curve" smooth="yes"/>
      <point x="459" y="1500"/>
      <point x="420" y="1483"/>
      <point x="397" y="1434" type="curve" smooth="yes"/>
      <point x="50" y="732" type="line" smooth="yes"/>
      <point x="18" y="665"/>
      <point x="119" y="619"/>
      <point x="156" y="682" type="curve" smooth="yes"/>
      <point x="511" y="1288" type="line"/>
      <point x="866" y="682" type="line" smooth="yes"/>
      <point x="903" y="619"/>
      <point x="1004" y="665"/>
      <point x="972" y="732" type="curve" smooth="yes"/>
      <point x="625" y="1434" type="line" smooth="yes"/>
      <point x="602" y="1483"/>
      <point x="563" y="1500"/>
    </contour>
  </outline>
</glyph>
<glyph name="underscore" format="1">
  <advance width="857"/>
  <unicode hex="005F"/>
  <outline>
    <contour>
      <point x="6" y="-97" type="line"/>
      <point x="6" y="-246" type="line"/>
      <point x="851" y="-246" type="line"/>
      <point x="851" y="-97" type="line"/>
    </contour>
  </outline>
</glyph>
<glyph name="grave" format="1">
  <advance width="776"/>
  <unicode hex="0060"/>
  <outline>
    <contour>
      <point x="449" y="1129" type="move" name="_top"/>
    </contour>
    <contour>
      <point x="135" y="1590" type="curve" smooth="yes"/>
      <point x="135" y="1547"/>
      <point x="159" y="1499"/>
      <point x="213" y="1473" type="curve" smooth="yes"/>
      <point x="251" y="1455"/>
      <point x="607" y="1327"/>
      <point x="641" y="1317" type="curve" smooth="yes"/>
      <point x="651" y="1314"/>
      <point x="660" y="1316"/>
      <point x="666" y="1321" type="curve" smooth="yes"/>
      <point x="673" y="1328"/>
      <point x="674" y="1341"/>
      <point x="664" y="1352" type="curve" smooth="yes"/>
      <point x="638" y="1375"/>
      <point x="388" y="1631"/>
      <point x="340" y="1667" type="curve" smooth="yes"/>
      <point x="312" y="1687"/>
      <point x="282" y="1702"/>
      <point x="249" y="1702" type="curve" smooth="yes"/>
      <point x="177" y="1702"/>
      <point x="135" y="1648"/>
    </contour>
  </outline>
</glyph>
<glyph name="a" format="1">
  <advance width="1299"/>
  <unicode hex="0061"/>
  <outline>
    <contour>
      <point x="633" y="1172" type="move" name="top"/>
    </contour>
    <contour>
      <point x="1001" y="0" type="move" name="ogonek"/>
    </contour>
    <contour>
      <point x="649" y="0" type="move" name="bot"/>
    </contour>
    <contour>
      <point x="167" y="933" type="curve" smooth="yes"/>
      <point x="167" y="908"/>
      <point x="169" y="883"/>
      <point x="172" y="859" type="curve"/>
      <point x="463" y="864" type="line"/>
      <point x="463" y="883"/>
      <point x="464" y="982"/>
      <point x="466" y="994" type="curve" smooth="yes"/>
      <point x="473" y="1033"/>
      <point x="523" y="1042"/>
      <point x="638" y="1042" type="curve" smooth="yes"/>
      <point x="741" y="1042"/>
      <point x="813" y="1030"/>
      <point x="813" y="991" type="curve" smooth="yes"/>
      <point x="813" y="683" type="line"/>
      <point x="761" y="683"/>
      <point x="618" y="669"/>
      <point x="574" y="667" type="curve" smooth="yes"/>
      <point x="295" y="644"/>
      <point x="132" y="597"/>
      <point x="132" y="364" type="curve" smooth="yes"/>
      <point x="132" y="90"/>
      <point x="230" y="-21"/>
      <point x="499" y="-21" type="curve" smooth="yes"/>
      <point x="675" y="-21"/>
      <point x="778" y="22"/>
      <point x="828" y="149" type="curve"/>
      <point x="868" y="0" type="line"/>
      <point x="1148" y="0" type="line"/>
      <point x="1148" y="825" type="line" smooth="yes"/>
      <point x="1148" y="1154"/>
      <point x="956" y="1207"/>
      <point x="646" y="1207" type="curve" smooth="yes"/>
      <point x="410" y="1207"/>
      <point x="167" y="1192"/>
    </contour>
    <contour>
      <point x="813" y="266" type="line"/>
      <point x="813" y="204"/>
      <point x="740" y="159"/>
      <point x="598" y="159" type="curve" smooth="yes"/>
      <point x="506" y="159"/>
      <point x="459" y="172"/>
      <point x="456" y="240" type="curve" smooth="yes"/>
      <point x="455" y="254"/>
      <point x="455" y="446"/>
      <point x="455" y="465" type="curve" smooth="yes"/>
      <point x="455" y="515"/>
      <point x="560" y="551"/>
      <point x="813" y="551" type="curve"/>
    </contour>
  </outline>
</glyph>
<glyph name="b" format="1">
  <advance width="1269"/>
  <unicode hex="0062"/>
  <outline>
    <contour>
      <point x="632" y="1129" type="move" name="top"/>
    </contour>
    <contour>
      <point x="162" y="1544" type="line"/>
      <point x="162" y="0" type="line"/>
      <point x="397" y="0" type="line"/>
      <point x="418" y="134" type="line"/>
      <point x="459" y="36"/>
      <point x="572" y="-20"/>
      <point x="741" y="-20" type="curve" smooth="yes"/>
      <point x="1070" y="-20"/>
      <point x="1129" y="129"/>
      <point x="1132" y="485" type="curve" smooth="yes"/>
      <point x="1133" y="664" type="line" smooth="yes"/>
      <point x="1135" y="966"/>
      <point x="1081" y="1150"/>
      <point x="728" y="1150" type="curve" smooth="yes"/>
      <point x="562" y="1150"/>
      <point x="467" y="1103"/>
      <point x="419" y="1005" type="curve"/>
      <point x="419" y="1544" type="line"/>
    </contour>
    <contour>
      <point x="649" y="130" type="curve" smooth="yes"/>
      <point x="491" y="130"/>
      <point x="419" y="165"/>
      <point x="419" y="258" type="curve" smooth="yes"/>
      <point x="419" y="817" type="line" smooth="yes"/>
      <point x="419" y="981"/>
      <point x="465" y="999"/>
      <point x="649" y="999" type="curve" smooth="yes"/>
      <point x="857" y="999"/>
      <point x="874" y="966"/>
      <point x="874" y="807" type="curve" smooth="yes"/>
      <point x="874" y="321" type="line" smooth="yes"/>
      <point x="874" y="144"/>
      <point x="827" y="130"/>
    </contour>
  </outline>
</glyph>
<glyph name="c" format="1">
  <advance width="1158"/>
  <unicode hex="0063"/>
  <outline>
    <contour>
      <point x="568" y="1121" type="move" name="top"/>
    </contour>
    <contour>
      <point x="582" y="0" type="move" name="bot"/>
    </contour>
    <contour>
      <point x="136" y="659" type="curve" smooth="yes"/>
      <point x="136" y="497" type="line" smooth="yes"/>
      <point x="139" y="100"/>
      <point x="212" y="-20"/>
      <point x="606" y="-20" type="curve" smooth="yes"/>
      <point x="922" y="-20"/>
      <point x="1027" y="33"/>
      <point x="1044" y="263" type="curve" smooth="yes"/>
      <point x="1051" y="358" type="line"/>
      <point x="838" y="377" type="line"/>
      <point x="827" y="220" type="line" smooth="yes"/>
      <point x="820" y="140"/>
      <point x="780" y="128"/>
      <point x="598" y="128" type="curve" smooth="yes"/>
      <point x="383" y="128"/>
      <point x="369" y="168"/>
      <point x="369" y="409" type="curve" smooth="yes"/>
      <point x="369" y="765" type="line" smooth="yes"/>
      <point x="369" y="946"/>
      <point x="387" y="993"/>
      <point x="613" y="993" type="curve" smooth="yes"/>
      <point x="803" y="993"/>
      <point x="812" y="962"/>
      <point x="821" y="901" type="curve" smooth="yes"/>
      <point x="840" y="748" type="line"/>
      <point x="1051" y="773" type="line"/>
      <point x="1037" y="901" type="line" smooth="yes"/>
      <point x="1015" y="1110"/>
      <point x="901" y="1142"/>
      <point x="615" y="1142" type="curve" smooth="yes"/>
      <point x="214" y="1142"/>
      <point x="136" y="1049"/>
    </contour>
  </outline>
</glyph>
<glyph name="d" format="1">
  <advance width="1250"/>
  <unicode hex="0064"/>
  <outline>
    <contour>
      <point x="599" y="1138" type="move" name="top"/>
    </contour>
    <contour>
      <point x="985" y="1121" type="move" name="caron.alt"/>
    </contour>
    <contour>
      <point x="942" y="1337" type="move" name="mid"/>
    </contour>
    <contour>
      <point x="846" y="1539" type="line"/>
      <point x="846" y="1002" type="line"/>
      <point x="802" y="1098"/>
      <point x="711" y="1142"/>
      <point x="541" y="1142" type="curve" smooth="yes"/>
      <point x="191" y="1142"/>
      <point x="136" y="987"/>
      <point x="136" y="611" type="curve" smooth="yes"/>
      <point x="136" y="487" type="line" smooth="yes"/>
      <point x="136" y="161"/>
      <point x="181" y="-20"/>
      <point x="525" y="-20" type="curve" smooth="yes"/>
      <point x="696" y="-20"/>
      <point x="804" y="37"/>
      <point x="846" y="135" type="curve"/>
      <point x="867" y="0" type="line"/>
      <point x="1088" y="0" type="line"/>
      <point x="1088" y="1539" type="line"/>
    </contour>
    <contour>
      <point x="610" y="127" type="curve" smooth="yes"/>
      <point x="391" y="127"/>
      <point x="382" y="194"/>
      <point x="381" y="371" type="curve" smooth="yes"/>
      <point x="380" y="754" type="line" smooth="yes"/>
      <point x="379" y="953"/>
      <point x="420" y="994"/>
      <point x="610" y="994" type="curve" smooth="yes"/>
      <point x="785" y="994"/>
      <point x="846" y="962"/>
      <point x="846" y="860" type="curve" smooth="yes"/>
      <point x="846" y="248" type="line" smooth="yes"/>
      <point x="846" y="156"/>
      <point x="771" y="127"/>
    </contour>
  </outline>
</glyph>
<glyph name="e" format="1">
  <advance width="1305"/>
  <unicode hex="0065"/>
  <outline>
    <contour>
      <point x="638" y="1172" type="move" name="top"/>
    </contour>
    <contour>
      <point x="748" y="0" type="move" name="ogonek"/>
    </contour>
    <contour>
      <point x="652" y="0" type="move" name="bot"/>
    </contour>
    <contour>
      <point x="668" y="-21" type="curve" smooth="yes"/>
      <point x="1001" y="-21"/>
      <point x="1159" y="43"/>
      <point x="1162" y="296" type="curve" smooth="yes"/>
      <point x="1162" y="310"/>
      <point x="1162" y="376"/>
      <point x="1161" y="392" type="curve"/>
      <point x="852" y="397" type="line"/>
      <point x="846" y="203" type="line" smooth="yes"/>
      <point x="843" y="170"/>
      <point x="780" y="153"/>
      <point x="672" y="153" type="curve" smooth="yes"/>
      <point x="546" y="153"/>
      <point x="477" y="164"/>
      <point x="474" y="215" type="curve" smooth="yes"/>
      <point x="470" y="273"/>
      <point x="469" y="510"/>
      <point x="469" y="574" type="curve"/>
      <point x="1176" y="574" type="line" smooth="yes"/>
      <point x="1179" y="772" type="line"/>
      <point x="1176" y="1152"/>
      <point x="1009" y="1207"/>
      <point x="662" y="1207" type="curve" smooth="yes"/>
      <point x="298" y="1207"/>
      <point x="133" y="1146"/>
      <point x="133" y="752" type="curve" smooth="yes"/>
      <point x="133" y="411" type="line" smooth="yes"/>
      <point x="133" y="34"/>
      <point x="317" y="-21"/>
    </contour>
    <contour>
      <point x="469" y="709" type="line"/>
      <point x="470" y="745"/>
      <point x="469" y="944"/>
      <point x="480" y="982" type="curve" smooth="yes"/>
      <point x="493" y="1024"/>
      <point x="537" y="1035"/>
      <point x="662" y="1035" type="curve" smooth="yes"/>
      <point x="769" y="1035"/>
      <point x="834" y="1024"/>
      <point x="838" y="978" type="curve" smooth="yes"/>
      <point x="841" y="935"/>
      <point x="843" y="747"/>
      <point x="844" y="709" type="curve"/>
    </contour>
  </outline>
</glyph>
<glyph name="f" format="1">
  <advance width="908"/>
  <unicode hex="0066"/>
  <outline>
    <contour>
      <point x="454" y="1342" type="move" name="top"/>
    </contour>
    <contour>
      <point x="261" y="1186" type="curve"/>
      <point x="103" y="1186" type="line"/>
      <point x="103" y="1034" type="line"/>
      <point x="261" y="1034" type="line"/>
      <point x="261" y="0" type="line"/>
      <point x="596" y="0" type="line"/>
      <point x="596" y="1034" type="line"/>
      <point x="837" y="1034" type="line"/>
      <point x="837" y="1186" type="line"/>
      <point x="596" y="1186" type="line"/>
      <point x="595" y="1335" type="line" smooth="yes"/>
      <point x="595" y="1404"/>
      <point x="634" y="1408"/>
      <point x="677" y="1408" type="curve" smooth="yes"/>
      <point x="713" y="1408"/>
      <point x="815" y="1407"/>
      <point x="837" y="1406" type="curve"/>
      <point x="837" y="1577" type="line"/>
      <point x="754" y="1599"/>
      <point x="672" y="1607"/>
      <point x="595" y="1607" type="curve" smooth="yes"/>
      <point x="334" y="1607"/>
      <point x="261" y="1501"/>
    </contour>
  </outline>
</glyph>
<glyph name="g" format="1">
  <advance width="1241"/>
  <unicode hex="0067"/>
  <outline>
    <contour>
      <point x="608" y="1129" type="move" name="top"/>
    </contour>
    <contour>
      <point x="624" y="0" type="move" name="bot"/>
    </contour>
    <contour>
      <point x="134" y="662" type="curve" smooth="yes"/>
      <point x="134" y="501" type="line" smooth="yes"/>
      <point x="134" y="164"/>
      <point x="168" y="29"/>
      <point x="550" y="29" type="curve" smooth="yes"/>
      <point x="708" y="29"/>
      <point x="797" y="69"/>
      <point x="838" y="160" type="curve"/>
      <point x="838" y="-91" type="line" smooth="yes"/>
      <point x="830" y="-179"/>
      <point x="797" y="-234"/>
      <point x="573" y="-234" type="curve" smooth="yes"/>
      <point x="464" y="-234"/>
      <point x="368" y="-222"/>
      <point x="294" y="-202" type="curve"/>
      <point x="274" y="-362" type="line"/>
      <point x="360" y="-391"/>
      <point x="472" y="-407"/>
      <point x="613" y="-407" type="curve" smooth="yes"/>
      <point x="1003" y="-407"/>
      <point x="1093" y="-274"/>
      <point x="1093" y="107" type="curve" smooth="yes"/>
      <point x="1094" y="1129" type="line"/>
      <point x="862" y="1129" type="line"/>
      <point x="840" y="1009" type="line"/>
      <point x="788" y="1113"/>
      <point x="682" y="1150"/>
      <point x="513" y="1150" type="curve" smooth="yes"/>
      <point x="187" y="1150"/>
      <point x="134" y="1027"/>
    </contour>
    <contour>
      <point x="627" y="180" type="curve" smooth="yes"/>
      <point x="362" y="180"/>
      <point x="393" y="270"/>
      <point x="391" y="375" type="curve" smooth="yes"/>
      <point x="388" y="469"/>
      <point x="389" y="686"/>
      <point x="389" y="797" type="curve" smooth="yes"/>
      <point x="389" y="979"/>
      <point x="426" y="1002"/>
      <point x="610" y="1002" type="curve" smooth="yes"/>
      <point x="775" y="1002"/>
      <point x="837" y="968"/>
      <point x="837" y="876" type="curve" smooth="yes"/>
      <point x="836" y="255" type="line" smooth="yes"/>
      <point x="836" y="194"/>
      <point x="715" y="180"/>
    </contour>
  </outline>
</glyph>
<glyph name="h" format="1">
  <advance width="1256"/>
  <unicode hex="0068"/>
  <outline>
    <contour>
      <point x="741" y="1340" type="move" name="top"/>
    </contour>
    <contour>
      <point x="628" y="0" type="move" name="bot"/>
    </contour>
    <contour>
      <point x="627" y="565" type="move" name="center"/>
    </contour>
    <contour>
      <point x="387" y="1313" type="move" name="mid"/>
    </contour>
    <contour>
      <point x="162" y="1544" type="line"/>
      <point x="162" y="0" type="line"/>
      <point x="420" y="0" type="line"/>
      <point x="420" y="911" type="line" smooth="yes"/>
      <point x="420" y="972"/>
      <point x="544" y="999"/>
      <point x="628" y="999" type="curve" smooth="yes"/>
      <point x="833" y="999"/>
      <point x="850" y="974"/>
      <point x="850" y="727" type="curve" smooth="yes"/>
      <point x="850" y="0" type="line"/>
      <point x="1107" y="0" type="line"/>
      <point x="1108" y="760" type="line" smooth="yes"/>
      <point x="1108" y="999"/>
      <point x="1062" y="1150"/>
      <point x="722" y="1150" type="curve" smooth="yes"/>
      <point x="575" y="1150"/>
      <point x="470" y="1112"/>
      <point x="420" y="1036" type="curve"/>
      <point x="420" y="1544" type="line"/>
    </contour>
  </outline>
</glyph>
<glyph name="i" format="1">
  <advance width="600"/>
  <unicode hex="0069"/>
  <outline>
    <contour>
      <point x="83" y="0" type="move" name="ogonek"/>
    </contour>
    <component base="dotlessi" xOffset="11"/>
    <component base="dotaccent" xOffset="8"/>
  </outline>
</glyph>
<glyph name="k" format="1">
  <advance width="1141"/>
  <unicode hex="006B"/>
  <outline>
    <contour>
      <point x="710" y="1321" type="move" name="top"/>
    </contour>
    <contour>
      <point x="578" y="0" type="move" name="bot"/>
    </contour>
    <contour>
      <point x="573" y="0" type="move" name="bottom"/>
    </contour>
    <contour>
      <point x="162" y="1539" type="line"/>
      <point x="162" y="0" type="line"/>
      <point x="405" y="0" type="line"/>
      <point x="405" y="470" type="line"/>
      <point x="491" y="570" type="line"/>
      <point x="854" y="0" type="line"/>
      <point x="1121" y="0" type="line"/>
      <point x="681" y="662" type="line"/>
      <point x="1086" y="1121" type="line"/>
      <point x="819" y="1121" type="line"/>
      <point x="563" y="827" type="line" smooth="yes"/>
      <point x="513" y="773"/>
      <point x="453" y="699"/>
      <point x="404" y="646" type="curve"/>
      <point x="404" y="689"/>
      <point x="405" y="762"/>
      <point x="405" y="806" type="curve" smooth="yes"/>
      <point x="405" y="1539" type="line"/>
    </contour>
  </outline>
</glyph>
<glyph name="l" format="1">
  <advance width="582"/>
  <unicode hex="006C"/>
  <outline>
    <contour>
      <point x="306" y="1507" type="move" name="top"/>
    </contour>
    <contour>
      <point x="336" y="1129" type="move" name="caron.alt"/>
    </contour>
    <contour>
      <point x="303" y="0" type="move" name="bot"/>
    </contour>
    <contour>
      <point x="304" y="1080" type="move" name="mid"/>
    </contour>
    <contour>
      <point x="302" y="0" type="move" name="bottom"/>
    </contour>
    <contour>
      <point x="176" y="1544" type="line"/>
      <point x="176" y="0" type="line"/>
      <point x="432" y="0" type="line"/>
      <point x="432" y="1544" type="line"/>
    </contour>
  </outline>
</glyph>
<glyph name="m" format="1">
  <advance width="1855"/>
  <unicode hex="006D"/>
  <outline>
    <contour>
      <point x="932" y="1129" type="move" name="top"/>
    </contour>
    <contour>
      <point x="932" y="0" type="move" name="bot"/>
    </contour>
    <contour>
      <point x="1019" y="1007" type="curve"/>
      <point x="972" y="1114"/>
      <point x="879" y="1150"/>
      <point x="731" y="1150" type="curve" smooth="yes"/>
      <point x="584" y="1150"/>
      <point x="475" y="1120"/>
      <point x="417" y="1011" type="curve"/>
      <point x="396" y="1129" type="line"/>
      <point x="162" y="1129" type="line"/>
      <point x="162" y="0" type="line"/>
      <point x="418" y="0" type="line"/>
      <point x="419" y="930" type="line" smooth="yes"/>
      <point x="419" y="992"/>
      <point x="536" y="1008"/>
      <point x="610" y="1008" type="curve" smooth="yes"/>
      <point x="793" y="1008"/>
      <point x="811" y="963"/>
      <point x="811" y="790" type="curve" smooth="yes"/>
      <point x="811" y="0" type="line"/>
      <point x="1066" y="0" type="line"/>
      <point x="1065" y="819" type="line" smooth="yes"/>
      <point x="1065" y="860"/>
      <point x="1065" y="896"/>
      <point x="1072" y="925" type="curve" smooth="yes"/>
      <point x="1090" y="982"/>
      <point x="1156" y="1008"/>
      <point x="1287" y="1008" type="curve" smooth="yes"/>
      <point x="1438" y="1008"/>
      <point x="1452" y="931"/>
      <point x="1452" y="736" type="curve" smooth="yes"/>
      <point x="1452" y="0" type="line"/>
      <point x="1708" y="0" type="line"/>
      <point x="1708" y="716" type="line" smooth="yes"/>
      <point x="1708" y="1054"/>
      <point x="1636" y="1150"/>
      <point x="1340" y="1150" type="curve" smooth="yes"/>
      <point x="1179" y="1150"/>
      <point x="1073" y="1108"/>
    </contour>
  </outline>
</glyph>
<glyph name="n" format="1">
  <advance width="1248"/>
  <unicode hex="006E"/>
  <outline>
    <contour>
      <point x="626" y="1129" type="move" name="top"/>
    </contour>
    <contour>
      <point x="627" y="0" type="move" name="bot"/>
    </contour>
    <contour>
      <point x="417" y="1008" type="curve"/>
      <point x="395" y="1129" type="line"/>
      <point x="162" y="1129" type="line"/>
      <point x="162" y="0" type="line"/>
      <point x="419" y="0" type="line"/>
      <point x="419" y="832" type="line" smooth="yes"/>
      <point x="419" y="953"/>
      <point x="474" y="999"/>
      <point x="672" y="999" type="curve" smooth="yes"/>
      <point x="812" y="999"/>
      <point x="844" y="936"/>
      <point x="844" y="784" type="curve" smooth="yes"/>
      <point x="844" y="0" type="line"/>
      <point x="1101" y="0" type="line"/>
      <point x="1101" y="760" type="line" smooth="yes"/>
      <point x="1101" y="1004"/>
      <point x="1031" y="1150"/>
      <point x="746" y="1150" type="curve" smooth="yes"/>
      <point x="600" y="1150"/>
      <point x="458" y="1120"/>
    </contour>
  </outline>
</glyph>
<glyph name="o" format="1">
  <advance width="1258"/>
  <unicode hex="006F"/>
  <outline>
    <contour>
      <point x="629" y="1129" type="move" name="top"/>
    </contour>
    <contour>
      <point x="715" y="0" type="move" name="ogonek"/>
    </contour>
    <contour>
      <point x="628" y="0" type="move" name="bot"/>
    </contour>
    <contour>
      <point x="136" y="644" type="curve" smooth="yes"/>
      <point x="136" y="524" type="line" smooth="yes"/>
      <point x="136" y="83"/>
      <point x="212" y="-20"/>
      <point x="629" y="-20" type="curve" smooth="yes"/>
      <point x="1044" y="-20"/>
      <point x="1122" y="80"/>
      <point x="1122" y="523" type="curve" smooth="yes"/>
      <point x="1122" y="645" type="line" smooth="yes"/>
      <point x="1122" y="1075"/>
      <point x="1023" y="1150"/>
      <point x="630" y="1150" type="curve" smooth="yes"/>
      <point x="239" y="1150"/>
      <point x="136" y="1075"/>
    </contour>
    <contour>
      <point x="630" y="136" type="curve" smooth="yes"/>
      <point x="481" y="136"/>
      <point x="402" y="152"/>
      <point x="402" y="213" type="curve"/>
      <point x="401" y="919" type="line"/>
      <point x="401" y="998"/>
      <point x="529" y="998"/>
      <point x="629" y="998" type="curve" smooth="yes"/>
      <point x="729" y="998"/>
      <point x="856" y="998"/>
      <point x="856" y="919" type="curve" smooth="yes"/>
      <point x="855" y="213" type="line" smooth="yes"/>
      <point x="855" y="150"/>
      <point x="778" y="136"/>
    </contour>
  </outline>
</glyph>
<glyph name="p" format="1">
  <advance width="1249"/>
  <unicode hex="0070"/>
  <outline>
    <contour>
      <point x="623" y="1121" type="move" name="top"/>
    </contour>
    <contour>
      <point x="623" y="0" type="move" name="bot"/>
    </contour>
    <contour>
      <point x="162" y="-390" type="line"/>
      <point x="404" y="-377" type="line"/>
      <point x="404" y="97" type="line"/>
      <point x="433" y="19"/>
      <point x="541" y="-20"/>
      <point x="710" y="-20" type="curve" smooth="yes"/>
      <point x="1058" y="-20"/>
      <point x="1113" y="135"/>
      <point x="1113" y="520" type="curve" smooth="yes"/>
      <point x="1113" y="632" type="line" smooth="yes"/>
      <point x="1113" y="992"/>
      <point x="1057" y="1142"/>
      <point x="726" y="1142" type="curve" smooth="yes"/>
      <point x="554" y="1142"/>
      <point x="443" y="1100"/>
      <point x="399" y="1001" type="curve"/>
      <point x="378" y="1121" type="line"/>
      <point x="162" y="1121" type="line"/>
    </contour>
    <contour>
      <point x="639" y="127" type="curve" smooth="yes"/>
      <point x="447" y="127"/>
      <point x="400" y="179"/>
      <point x="400" y="419" type="curve" smooth="yes"/>
      <point x="400" y="742" type="line" smooth="yes"/>
      <point x="400" y="965"/>
      <point x="416" y="994"/>
      <point x="639" y="994" type="curve" smooth="yes"/>
      <point x="888" y="994"/>
      <point x="871" y="897"/>
      <point x="871" y="775" type="curve" smooth="yes"/>
      <point x="871" y="389" type="line" smooth="yes"/>
      <point x="871" y="157"/>
      <point x="856" y="127"/>
    </contour>
  </outline>
</glyph>
<glyph name="q" format="1">
  <advance width="1267"/>
  <unicode hex="0071"/>
  <outline>
    <contour>
      <point x="136" y="645" type="curve" smooth="yes"/>
      <point x="136" y="513" type="line" smooth="yes"/>
      <point x="136" y="133"/>
      <point x="195" y="-20"/>
      <point x="543" y="-20" type="curve" smooth="yes"/>
      <point x="710" y="-20"/>
      <point x="817" y="23"/>
      <point x="847" y="100" type="curve"/>
      <point x="847" y="-378" type="line"/>
      <point x="1104" y="-391" type="line"/>
      <point x="1104" y="1129" type="line"/>
      <point x="875" y="1129" type="line"/>
      <point x="854" y="1010" type="line"/>
      <point x="809" y="1108"/>
      <point x="698" y="1150"/>
      <point x="527" y="1150" type="curve" smooth="yes"/>
      <point x="196" y="1150"/>
      <point x="136" y="1001"/>
    </contour>
    <contour>
      <point x="619" y="130" type="curve" smooth="yes"/>
      <point x="412" y="130"/>
      <point x="394" y="159"/>
      <point x="394" y="380" type="curve" smooth="yes"/>
      <point x="394" y="799" type="line" smooth="yes"/>
      <point x="394" y="907"/>
      <point x="381" y="999"/>
      <point x="619" y="999" type="curve" smooth="yes"/>
      <point x="832" y="999"/>
      <point x="851" y="971"/>
      <point x="851" y="759" type="curve" smooth="yes"/>
      <point x="851" y="409" type="line" smooth="yes"/>
      <point x="851" y="184"/>
      <point x="802" y="130"/>
    </contour>
  </outline>
</glyph>
<glyph name="r" format="1">
  <advance width="812"/>
  <unicode hex="0072"/>
  <outline>
    <contour>
      <point x="399" y="1129" type="move" name="top"/>
    </contour>
    <contour>
      <point x="391" y="0" type="move" name="bot"/>
    </contour>
    <contour>
      <point x="418" y="1003" type="curve"/>
      <point x="395" y="1129" type="line"/>
      <point x="166" y="1129" type="line"/>
      <point x="166" y="0" type="line"/>
      <point x="423" y="0" type="line"/>
      <point x="423" y="515" type="line" smooth="yes"/>
      <point x="423" y="574"/>
      <point x="417" y="667"/>
      <point x="417" y="734" type="curve" smooth="yes"/>
      <point x="417" y="911"/>
      <point x="552" y="943"/>
      <point x="707" y="943" type="curve"/>
      <point x="714" y="1144" type="line"/>
      <point x="580" y="1143"/>
      <point x="465" y="1114"/>
    </contour>
  </outline>
</glyph>
<glyph name="s" format="1">
  <advance width="1111"/>
  <unicode hex="0073"/>
  <outline>
    <contour>
      <point x="532" y="1129" type="move" name="top"/>
    </contour>
    <contour>
      <point x="544" y="0" type="move" name="bot"/>
    </contour>
    <contour>
      <point x="591" y="-20" type="curve" smooth="yes"/>
      <point x="893" y="-20"/>
      <point x="1016" y="38"/>
      <point x="1016" y="318" type="curve" smooth="yes"/>
      <point x="1016" y="587"/>
      <point x="965" y="638"/>
      <point x="654" y="674" type="curve" smooth="yes"/>
      <point x="546" y="689" type="line" smooth="yes"/>
      <point x="367" y="709"/>
      <point x="361" y="718"/>
      <point x="361" y="838" type="curve" smooth="yes"/>
      <point x="361" y="888"/>
      <point x="363" y="945"/>
      <point x="387" y="965" type="curve" smooth="yes"/>
      <point x="411" y="986"/>
      <point x="469" y="993"/>
      <point x="557" y="993" type="curve" smooth="yes"/>
      <point x="648" y="993"/>
      <point x="709" y="992"/>
      <point x="737" y="974" type="curve" smooth="yes"/>
      <point x="765" y="957"/>
      <point x="772" y="903"/>
      <point x="777" y="843" type="curve"/>
      <point x="973" y="880" type="line"/>
      <point x="973" y="1133"/>
      <point x="821" y="1150"/>
      <point x="565" y="1150" type="curve" smooth="yes"/>
      <point x="254" y="1150"/>
      <point x="122" y="1097"/>
      <point x="122" y="839" type="curve" smooth="yes"/>
      <point x="122" y="567"/>
      <point x="211" y="537"/>
      <point x="489" y="507" type="curve" smooth="yes"/>
      <point x="601" y="493" type="line" smooth="yes"/>
      <point x="749" y="477"/>
      <point x="776" y="467"/>
      <point x="776" y="327" type="curve" smooth="yes"/>
      <point x="776" y="275"/>
      <point x="775" y="208"/>
      <point x="752" y="180" type="curve" smooth="yes"/>
      <point x="729" y="151"/>
      <point x="671" y="136"/>
      <point x="581" y="136" type="curve" smooth="yes"/>
      <point x="471" y="136"/>
      <point x="404" y="137"/>
      <point x="376" y="160" type="curve" smooth="yes"/>
      <point x="346" y="182"/>
      <point x="344" y="252"/>
      <point x="337" y="334" type="curve"/>
      <point x="124" y="297" type="line"/>
      <point x="124" y="-8"/>
      <point x="295" y="-20"/>
    </contour>
  </outline>
</glyph>
<glyph name="t" format="1">
  <advance width="931"/>
  <unicode hex="0074"/>
  <outline>
    <contour>
      <point x="434" y="1377" type="move" name="top"/>
    </contour>
    <contour>
      <point x="415" y="1273" type="move" name="caron.alt"/>
    </contour>
    <contour>
      <point x="506" y="0" type="move" name="bot"/>
    </contour>
    <contour>
      <point x="448" y="701" type="move" name="mid"/>
    </contour>
    <contour>
      <point x="257" y="1511" type="line"/>
      <point x="257" y="1186" type="line"/>
      <point x="100" y="1186" type="line"/>
      <point x="100" y="1036" type="line"/>
      <point x="257" y="1036" type="line"/>
      <point x="257" y="296" type="line" smooth="yes"/>
      <point x="257" y="44"/>
      <point x="377" y="-13"/>
      <point x="625" y="-15" type="curve" smooth="yes"/>
      <point x="705" y="-16"/>
      <point x="784" y="-4"/>
      <point x="832" y="1" type="curve"/>
      <point x="834" y="180" type="line"/>
      <point x="667" y="167"/>
      <point x="592" y="183"/>
      <point x="592" y="280" type="curve" smooth="yes"/>
      <point x="592" y="1036" type="line"/>
      <point x="791" y="1036" type="line"/>
      <point x="791" y="1186" type="line"/>
      <point x="592" y="1186" type="line"/>
      <point x="592" y="1511" type="line"/>
    </contour>
  </outline>
</glyph>
<glyph name="u" format="1">
  <advance width="1231"/>
  <unicode hex="0075"/>
  <outline>
    <contour>
      <point x="607" y="1121" type="move" name="top"/>
    </contour>
    <contour>
      <point x="937" y="0" type="move" name="ogonek"/>
    </contour>
    <contour>
      <point x="825" y="1121" type="line"/>
      <point x="825" y="360" type="line" smooth="yes"/>
      <point x="825" y="230"/>
      <point x="842" y="126"/>
      <point x="604" y="126" type="curve" smooth="yes"/>
      <point x="377" y="126"/>
      <point x="388" y="177"/>
      <point x="388" y="424" type="curve" smooth="yes"/>
      <point x="388" y="1121" type="line"/>
      <point x="146" y="1121" type="line"/>
      <point x="146" y="438" type="line" smooth="yes"/>
      <point x="146" y="108"/>
      <point x="216" y="-20"/>
      <point x="498" y="-20" type="curve" smooth="yes"/>
      <point x="656" y="-20"/>
      <point x="788" y="29"/>
      <point x="827" y="137" type="curve"/>
      <point x="847" y="-1" type="line"/>
      <point x="1069" y="-1" type="line"/>
      <point x="1069" y="1121" type="line"/>
    </contour>
  </outline>
</glyph>
<glyph name="v" format="1">
  <advance width="1095"/>
  <unicode hex="0076"/>
  <outline>
    <contour>
      <point x="801" y="1121" type="line"/>
      <point x="548" y="194" type="line"/>
      <point x="545" y="194" type="line"/>
      <point x="275" y="1121" type="line"/>
      <point x="46" y="1121" type="line"/>
      <point x="401" y="0" type="line"/>
      <point x="685" y="0" type="line"/>
      <point x="1046" y="1121" type="line"/>
    </contour>
  </outline>
</glyph>
<glyph name="w" format="1">
  <advance width="1662"/>
  <unicode hex="0077"/>
  <outline>
    <contour>
      <point x="833" y="1129" type="move" name="top"/>
    </contour>
    <contour>
      <point x="841" y="0" type="move" name="bot"/>
    </contour>
    <contour>
      <point x="349" y="0" type="line"/>
      <point x="630" y="0" type="line"/>
      <point x="834" y="848" type="line"/>
      <point x="837" y="848" type="line"/>
      <point x="1050" y="0" type="line"/>
      <point x="1314" y="0" type="line"/>
      <point x="1585" y="1129" type="line"/>
      <point x="1352" y="1129" type="line"/>
      <point x="1168" y="242" type="line"/>
      <point x="1164" y="242" type="line"/>
      <point x="951" y="1129" type="line"/>
      <point x="715" y="1129" type="line"/>
      <point x="507" y="242" type="line"/>
      <point x="504" y="242" type="line"/>
      <point x="307" y="1129" type="line"/>
      <point x="76" y="1129" type="line"/>
    </contour>
  </outline>
</glyph>
<glyph name="x" format="1">
  <advance width="1087"/>
  <unicode hex="0078"/>
  <outline>
    <contour>
      <point x="64" y="0" type="line"/>
      <point x="284" y="0" type="line"/>
      <point x="564" y="450" type="line"/>
      <point x="655" y="543" type="line"/>
      <point x="1013" y="1121" type="line"/>
      <point x="795" y="1121" type="line"/>
      <point x="531" y="699" type="line"/>
      <point x="441" y="614" type="line"/>
    </contour>
    <contour>
      <point x="772" y="0" type="line"/>
      <point x="1022" y="0" type="line"/>
      <point x="322" y="1121" type="line"/>
      <point x="72" y="1121" type="line"/>
    </contour>
  </outline>
</glyph>
<glyph name="y" format="1">
  <advance width="1202"/>
  <unicode hex="0079"/>
  <outline>
    <contour>
      <point x="608" y="1172" type="move" name="top"/>
    </contour>
    <contour>
      <point x="603" y="0" type="move" name="bot"/>
    </contour>
    <contour>
      <point x="833" y="1186" type="line"/>
      <point x="631" y="287" type="line"/>
      <point x="627" y="287" type="line"/>
      <point x="371" y="1186" type="line"/>
      <point x="53" y="1186" type="line"/>
      <point x="455" y="23" type="line"/>
      <point x="444" y="-36"/>
      <point x="438" y="-76"/>
      <point x="422" y="-102" type="curve" smooth="yes"/>
      <point x="406" y="-145"/>
      <point x="371" y="-160"/>
      <point x="306" y="-160" type="curve" smooth="yes"/>
      <point x="266" y="-160"/>
      <point x="211" y="-150"/>
      <point x="149" y="-137" type="curve"/>
      <point x="124" y="-347" type="line"/>
      <point x="214" y="-366"/>
      <point x="330" y="-382"/>
      <point x="404" y="-382" type="curve" smooth="yes"/>
      <point x="608" y="-382"/>
      <point x="725" y="-311"/>
      <point x="807" y="-24" type="curve" smooth="yes"/>
      <point x="1150" y="1186" type="line"/>
    </contour>
  </outline>
</glyph>
<glyph name="z" format="1">
  <advance width="973"/>
  <unicode hex="007A"/>
  <outline>
    <contour>
      <point x="437" y="1129" type="move" name="top"/>
    </contour>
    <contour>
      <point x="479" y="0" type="move" name="bot"/>
    </contour>
    <contour>
      <point x="153" y="1129" type="line"/>
      <point x="162" y="975" type="line"/>
      <point x="608" y="975" type="line"/>
      <point x="128" y="156" type="line"/>
      <point x="146" y="0" type="line"/>
      <point x="869" y="0" type="line"/>
      <point x="879" y="153" type="line"/>
      <point x="395" y="153" type="line"/>
      <point x="872" y="979" type="line"/>
      <point x="861" y="1129" type="line"/>
    </contour>
  </outline>
</glyph>
<glyph name="braceleft" format="1">
  <advance width="922"/>
  <unicode hex="007B"/>
  <outline>
    <contour>
      <point x="849" y="-230" type="curve"/>
      <point x="849" y="-81" type="line"/>
      <point x="587" y="-81"/>
      <point x="579" y="-31"/>
      <point x="579" y="290" type="curve" smooth="yes"/>
      <point x="579" y="554"/>
      <point x="546" y="694"/>
      <point x="381" y="726" type="curve"/>
      <point x="546" y="760"/>
      <point x="579" y="899"/>
      <point x="579" y="1164" type="curve" smooth="yes"/>
      <point x="579" y="1484"/>
      <point x="587" y="1535"/>
      <point x="849" y="1535" type="curve"/>
      <point x="849" y="1683" type="line"/>
      <point x="449" y="1683"/>
      <point x="348" y="1587"/>
      <point x="344" y="1155" type="curve" smooth="yes"/>
      <point x="342" y="862"/>
      <point x="285" y="823"/>
      <point x="97" y="823" type="curve"/>
      <point x="97" y="630" type="line"/>
      <point x="285" y="630"/>
      <point x="342" y="591"/>
      <point x="344" y="299" type="curve" smooth="yes"/>
      <point x="348" y="-134"/>
      <point x="449" y="-230"/>
    </contour>
  </outline>
</glyph>
<glyph name="bar" format="1">
  <advance width="607"/>
  <unicode hex="007C"/>
  <outline>
    <contour>
      <point x="183" y="1663" type="line"/>
      <point x="183" y="-164" type="line"/>
      <point x="422" y="-164" type="line"/>
      <point x="422" y="1663" type="line"/>
    </contour>
  </outline>
</glyph>
<glyph name="braceright" format="1">
  <advance width="922"/>
  <unicode hex="007D"/>
  <outline>
    <contour>
      <point x="97" y="-230" type="line"/>
      <point x="497" y="-230"/>
      <point x="598" y="-134"/>
      <point x="601" y="299" type="curve" smooth="yes"/>
      <point x="604" y="591"/>
      <point x="661" y="630"/>
      <point x="849" y="630" type="curve"/>
      <point x="849" y="823" type="line"/>
      <point x="661" y="823"/>
      <point x="604" y="862"/>
      <point x="601" y="1155" type="curve" smooth="yes"/>
      <point x="598" y="1587"/>
      <point x="497" y="1683"/>
      <point x="97" y="1683" type="curve"/>
      <point x="97" y="1535" type="line"/>
      <point x="359" y="1535"/>
      <point x="367" y="1484"/>
      <point x="366" y="1164" type="curve" smooth="yes"/>
      <point x="366" y="899"/>
      <point x="400" y="760"/>
      <point x="565" y="726" type="curve"/>
      <point x="400" y="694"/>
      <point x="366" y="554"/>
      <point x="366" y="290" type="curve" smooth="yes"/>
      <point x="367" y="-31"/>
      <point x="359" y="-81"/>
      <point x="97" y="-81" type="curve"/>
    </contour>
  </outline>
</glyph>
<glyph name="asciitilde" format="1">
  <advance width="1154"/>
  <unicode hex="007E"/>
  <outline>
    <contour>
      <point x="825" y="612" type="curve" smooth="yes"/>
      <point x="975" y="602"/>
      <point x="1038" y="713"/>
      <point x="1067" y="901" type="curve"/>
      <point x="983" y="939" type="line"/>
      <point x="937" y="835"/>
      <point x="913" y="789"/>
      <point x="803" y="809" type="curve" smooth="yes"/>
      <point x="680" y="832"/>
      <point x="510" y="991"/>
      <point x="331" y="967" type="curve" smooth="yes"/>
      <point x="231" y="954"/>
      <point x="135" y="872"/>
      <point x="103" y="706" type="curve"/>
      <point x="179" y="660" type="line"/>
      <point x="210" y="757"/>
      <point x="254" y="792"/>
      <point x="337" y="786" type="curve" smooth="yes"/>
      <point x="477" y="775"/>
      <point x="662" y="622"/>
    </contour>
  </outline>
</glyph>
<glyph name="cent" format="1">
  <advance width="1413"/>
  <unicode hex="00A2"/>
  <outline>
    <contour>
      <point x="687" y="1784" type="line"/>
      <point x="687" y="1452" type="line"/>
      <point x="806" y="1452" type="line"/>
      <point x="806" y="1784" type="line"/>
    </contour>
    <contour>
      <point x="689" y="42" type="line"/>
      <point x="689" y="-264" type="line"/>
      <point x="808" y="-264" type="line"/>
      <point x="808" y="42" type="line"/>
    </contour>
    <component base="C"/>
  </outline>
</glyph>
<glyph name="sterling" format="1">
  <advance width="1532"/>
  <unicode hex="00A3"/>
  <outline>
    <contour>
      <point x="162" y="0" type="line"/>
      <point x="172" y="0"/>
      <point x="218" y="0"/>
      <point x="228" y="1" type="curve" smooth="yes"/>
      <point x="360" y="8"/>
      <point x="437" y="50"/>
      <point x="466" y="138" type="curve"/>
      <point x="501" y="17"/>
      <point x="668" y="0"/>
      <point x="902" y="0" type="curve" smooth="yes"/>
      <point x="1211" y="0"/>
      <point x="1348" y="39"/>
      <point x="1355" y="224" type="curve" smooth="yes"/>
      <point x="1366" y="457" type="line"/>
      <point x="1139" y="471" type="line"/>
      <point x="1130" y="243" type="line" smooth="yes"/>
      <point x="1128" y="185"/>
      <point x="1016" y="178"/>
      <point x="885" y="178" type="curve" smooth="yes"/>
      <point x="645" y="178"/>
      <point x="558" y="197"/>
      <point x="558" y="250" type="curve" smooth="yes"/>
      <point x="558" y="704" type="line"/>
      <point x="1044" y="704" type="line"/>
      <point x="1044" y="856" type="line"/>
      <point x="558" y="856" type="line"/>
      <point x="558" y="1247" type="line" smooth="yes"/>
      <point x="558" y="1365"/>
      <point x="584" y="1390"/>
      <point x="840" y="1390" type="curve" smooth="yes"/>
      <point x="1033" y="1390"/>
      <point x="1085" y="1386"/>
      <point x="1085" y="1301" type="curve" smooth="yes"/>
      <point x="1084" y="1066" type="line"/>
      <point x="1328" y="1076" type="line"/>
      <point x="1328" y="1324" type="line" smooth="yes"/>
      <point x="1327" y="1494"/>
      <point x="1197" y="1556"/>
      <point x="864" y="1556" type="curve" smooth="yes"/>
      <point x="485" y="1556"/>
      <point x="317" y="1518"/>
      <point x="317" y="1190" type="curve" smooth="yes"/>
      <point x="317" y="857" type="line"/>
      <point x="164" y="857" type="line"/>
      <point x="164" y="705" type="line"/>
      <point x="317" y="705" type="line"/>
      <point x="316" y="305" type="line" smooth="yes"/>
      <point x="316" y="211"/>
      <point x="284" y="178"/>
      <point x="162" y="177" type="curve"/>
    </contour>
  </outline>
</glyph>
<glyph name="currency" format="1">
  <advance width="1224"/>
  <unicode hex="00A4"/>
  <outline>
    <contour>
      <point x="1001" y="214" type="line"/>
      <point x="1067" y="285" type="line"/>
      <point x="930" y="450" type="line"/>
      <point x="1016" y="527"/>
      <point x="1058" y="632"/>
      <point x="1058" y="770" type="curve" smooth="yes"/>
      <point x="1058" y="909"/>
      <point x="1019" y="1014"/>
      <point x="934" y="1090" type="curve"/>
      <point x="1066" y="1251" type="line"/>
      <point x="1000" y="1322" type="line"/>
      <point x="852" y="1151" type="line"/>
      <point x="788" y="1189"/>
      <point x="708" y="1207"/>
      <point x="611" y="1207" type="curve" smooth="yes"/>
      <point x="513" y="1207"/>
      <point x="432" y="1188"/>
      <point x="368" y="1149" type="curve"/>
      <point x="222" y="1323" type="line"/>
      <point x="157" y="1252" type="line"/>
      <point x="290" y="1089" type="line"/>
      <point x="207" y="1014"/>
      <point x="168" y="907"/>
      <point x="168" y="769" type="curve" smooth="yes"/>
      <point x="168" y="629"/>
      <point x="209" y="525"/>
      <point x="293" y="450" type="curve"/>
      <point x="156" y="285" type="line"/>
      <point x="221" y="215" type="line"/>
      <point x="371" y="392" type="line"/>
      <point x="434" y="359"/>
      <point x="514" y="343"/>
      <point x="613" y="343" type="curve" smooth="yes"/>
      <point x="707" y="343"/>
      <point x="786" y="359"/>
      <point x="851" y="391" type="curve"/>
    </contour>
    <contour>
      <point x="612" y="462" type="curve" smooth="yes"/>
      <point x="423" y="462"/>
      <point x="333" y="550"/>
      <point x="329" y="735" type="curve" smooth="yes"/>
      <point x="329" y="739"/>
      <point x="329" y="804"/>
      <point x="329" y="809" type="curve" smooth="yes"/>
      <point x="329" y="1000"/>
      <point x="428" y="1095"/>
      <point x="612" y="1095" type="curve" smooth="yes"/>
      <point x="808" y="1095"/>
      <point x="894" y="999"/>
      <point x="894" y="808" type="curve" smooth="yes"/>
      <point x="894" y="803"/>
      <point x="894" y="739"/>
      <point x="894" y="735" type="curve" smooth="yes"/>
      <point x="890" y="552"/>
      <point x="792" y="462"/>
    </contour>
  </outline>
</glyph>
<glyph name="yen" format="1">
  <advance width="1371"/>
  <unicode hex="00A5"/>
  <outline>
    <contour>
      <point x="547" y="0" type="line"/>
      <point x="814" y="0" type="line"/>
      <point x="814" y="267" type="line"/>
      <point x="1101" y="267" type="line"/>
      <point x="1101" y="362" type="line"/>
      <point x="814" y="362" type="line"/>
      <point x="822" y="529" type="line"/>
      <point x="1141" y="529" type="line"/>
      <point x="1141" y="647" type="line"/>
      <point x="875" y="647" type="line"/>
      <point x="1263" y="1507" type="line"/>
      <point x="995" y="1507" type="line"/>
      <point x="688" y="741" type="line"/>
      <point x="383" y="1507" type="line"/>
      <point x="108" y="1507" type="line"/>
      <point x="488" y="647" type="line"/>
      <point x="229" y="647" type="line"/>
      <point x="229" y="529" type="line"/>
      <point x="539" y="529" type="line"/>
      <point x="547" y="362" type="line"/>
      <point x="269" y="362" type="line"/>
      <point x="269" y="267" type="line"/>
      <point x="547" y="267" type="line"/>
    </contour>
  </outline>
</glyph>
<glyph name="brokenbar" format="1">
  <advance width="590"/>
  <unicode hex="00A6"/>
  <outline>
    <contour>
      <point x="186" y="1646" type="line"/>
      <point x="186" y="823" type="line"/>
      <point x="419" y="823" type="line"/>
      <point x="419" y="1646" type="line"/>
    </contour>
    <contour>
      <point x="186" y="580" type="line"/>
      <point x="186" y="-244" type="line"/>
      <point x="419" y="-244" type="line"/>
      <point x="419" y="580" type="line"/>
    </contour>
  </outline>
</glyph>
<glyph name="section" format="1">
  <advance width="1281"/>
  <unicode hex="00A7"/>
  <outline>
    <contour>
      <point x="631" y="-204" type="curve" smooth="yes"/>
      <point x="932" y="-204"/>
      <point x="1106" y="-152"/>
      <point x="1106" y="177" type="curve" smooth="yes"/>
      <point x="1106" y="327"/>
      <point x="1044" y="417"/>
      <point x="972" y="467" type="curve"/>
      <point x="1050" y="495"/>
      <point x="1114" y="587"/>
      <point x="1114" y="720" type="curve" smooth="yes"/>
      <point x="1114" y="963"/>
      <point x="933" y="993"/>
      <point x="730" y="1018" type="curve" smooth="yes"/>
      <point x="509" y="1050"/>
      <point x="507" y="1049"/>
      <point x="500" y="1156" type="curve" smooth="yes"/>
      <point x="500" y="1212"/>
      <point x="509" y="1351"/>
      <point x="530" y="1365" type="curve" smooth="yes"/>
      <point x="551" y="1380"/>
      <point x="598" y="1380"/>
      <point x="648" y="1380" type="curve" smooth="yes"/>
      <point x="707" y="1380"/>
      <point x="755" y="1376"/>
      <point x="775" y="1359" type="curve" smooth="yes"/>
      <point x="795" y="1342"/>
      <point x="801" y="1227"/>
      <point x="801" y="1174" type="curve"/>
      <point x="1113" y="1174" type="line"/>
      <point x="1113" y="1226"/>
      <point x="1110" y="1271"/>
      <point x="1102" y="1311" type="curve" smooth="yes"/>
      <point x="1077" y="1541"/>
      <point x="888" y="1574"/>
      <point x="652" y="1574" type="curve" smooth="yes"/>
      <point x="349" y="1574"/>
      <point x="181" y="1519"/>
      <point x="181" y="1194" type="curve" smooth="yes"/>
      <point x="181" y="1052"/>
      <point x="229" y="961"/>
      <point x="306" y="908" type="curve"/>
      <point x="263" y="877"/>
      <point x="175" y="792"/>
      <point x="175" y="663" type="curve" smooth="yes"/>
      <point x="175" y="406"/>
      <point x="295" y="355"/>
      <point x="603" y="332" type="curve" smooth="yes"/>
      <point x="672" y="324"/>
      <point x="787" y="291"/>
      <point x="787" y="217" type="curve" smooth="yes"/>
      <point x="787" y="167"/>
      <point x="783" y="27"/>
      <point x="765" y="10" type="curve" smooth="yes"/>
      <point x="747" y="-6"/>
      <point x="703" y="-10"/>
      <point x="650" y="-10" type="curve" smooth="yes"/>
      <point x="588" y="-10"/>
      <point x="536" y="-10"/>
      <point x="513" y="6" type="curve" smooth="yes"/>
      <point x="490" y="22"/>
      <point x="482" y="137"/>
      <point x="482" y="197" type="curve"/>
      <point x="170" y="197" type="line"/>
      <point x="170" y="151"/>
      <point x="172" y="110"/>
      <point x="177" y="73" type="curve" smooth="yes"/>
      <point x="200" y="-170"/>
      <point x="390" y="-204"/>
    </contour>
    <contour>
      <point x="769" y="525" type="curve"/>
      <point x="702" y="535"/>
      <point x="640" y="540"/>
      <point x="604" y="546" type="curve" smooth="yes"/>
      <point x="522" y="559"/>
      <point x="498" y="575"/>
      <point x="498" y="655" type="curve" smooth="yes"/>
      <point x="498" y="682"/>
      <point x="504" y="811"/>
      <point x="514" y="845" type="curve"/>
      <point x="533" y="840"/>
      <point x="616" y="834"/>
      <point x="719" y="806" type="curve" smooth="yes"/>
      <point x="761" y="794"/>
      <point x="789" y="775"/>
      <point x="789" y="703" type="curve" smooth="yes"/>
      <point x="789" y="661"/>
      <point x="782" y="534"/>
    </contour>
  </outline>
</glyph>
<glyph name="dieresis" format="1">
  <advance width="1059"/>
  <unicode hex="00A8"/>
  <outline>
    <contour>
      <point x="537" y="1129" type="move" name="_top"/>
    </contour>
    <contour>
      <point x="654" y="1408" type="curve" smooth="yes"/>
      <point x="654" y="1323"/>
      <point x="708" y="1282"/>
      <point x="783" y="1282" type="curve" smooth="yes"/>
      <point x="859" y="1282"/>
      <point x="911" y="1323"/>
      <point x="911" y="1408" type="curve" smooth="yes"/>
      <point x="911" y="1493"/>
      <point x="859" y="1533"/>
      <point x="783" y="1533" type="curve" smooth="yes"/>
      <point x="709" y="1533"/>
      <point x="654" y="1491"/>
    </contour>
    <contour>
      <point x="168" y="1408" type="curve" smooth="yes"/>
      <point x="168" y="1323"/>
      <point x="222" y="1282"/>
      <point x="297" y="1282" type="curve" smooth="yes"/>
      <point x="373" y="1282"/>
      <point x="425" y="1323"/>
      <point x="425" y="1408" type="curve" smooth="yes"/>
      <point x="425" y="1493"/>
      <point x="373" y="1533"/>
      <point x="297" y="1533" type="curve" smooth="yes"/>
      <point x="223" y="1533"/>
      <point x="168" y="1491"/>
    </contour>
  </outline>
</glyph>
<glyph name="copyright" format="1">
  <advance width="1879"/>
  <unicode hex="00A9"/>
  <outline>
    <contour>
      <point x="923" y="233" type="curve" smooth="yes"/>
      <point x="1257" y="233"/>
      <point x="1324" y="279"/>
      <point x="1324" y="551" type="curve" smooth="yes"/>
      <point x="1324" y="661" type="line"/>
      <point x="1174" y="661" type="line"/>
      <point x="1173" y="513" type="line" smooth="yes"/>
      <point x="1172" y="366"/>
      <point x="1140" y="356"/>
      <point x="948" y="356" type="curve" smooth="yes"/>
      <point x="749" y="356"/>
      <point x="706" y="380"/>
      <point x="706" y="502" type="curve" smooth="yes"/>
      <point x="706" y="1081" type="line" smooth="yes"/>
      <point x="706" y="1201"/>
      <point x="734" y="1214"/>
      <point x="948" y="1214" type="curve" smooth="yes"/>
      <point x="1145" y="1214"/>
      <point x="1172" y="1198"/>
      <point x="1173" y="1045" type="curve" smooth="yes"/>
      <point x="1174" y="910" type="line"/>
      <point x="1324" y="910" type="line"/>
      <point x="1323" y="1019" type="line" smooth="yes"/>
      <point x="1318" y="1304"/>
      <point x="1215" y="1336"/>
      <point x="923" y="1336" type="curve" smooth="yes"/>
      <point x="602" y="1336"/>
      <point x="542" y="1267"/>
      <point x="542" y="937" type="curve" smooth="yes"/>
      <point x="542" y="674" type="line" smooth="yes"/>
      <point x="542" y="295"/>
      <point x="619" y="233"/>
    </contour>
    <contour>
      <point x="931" y="18" type="curve" smooth="yes"/>
      <point x="558" y="18"/>
      <point x="249" y="141"/>
      <point x="249" y="595" type="curve" smooth="yes"/>
      <point x="249" y="933" type="line" smooth="yes"/>
      <point x="249" y="1418"/>
      <point x="560" y="1530"/>
      <point x="940" y="1530" type="curve" smooth="yes"/>
      <point x="1308" y="1530"/>
      <point x="1632" y="1422"/>
      <point x="1632" y="942" type="curve" smooth="yes"/>
      <point x="1632" y="587" type="line" smooth="yes"/>
      <point x="1632" y="129"/>
      <point x="1321" y="18"/>
    </contour>
    <contour>
      <point x="950" y="-97" type="curve" smooth="yes"/>
      <point x="1386" y="-97"/>
      <point x="1777" y="54"/>
      <point x="1777" y="596" type="curve" smooth="yes"/>
      <point x="1777" y="935" type="line" smooth="yes"/>
      <point x="1777" y="1492"/>
      <point x="1396" y="1647"/>
      <point x="941" y="1647" type="curve" smooth="yes"/>
      <point x="502" y="1647"/>
      <point x="104" y="1501"/>
      <point x="104" y="936" type="curve" smooth="yes"/>
      <point x="104" y="596" type="line" smooth="yes"/>
      <point x="104" y="61"/>
      <point x="488" y="-97"/>
    </contour>
  </outline>
</glyph>
<glyph name="ordfeminine" format="1">
  <advance width="1218"/>
  <unicode hex="00AA"/>
  <outline>
    <contour>
      <point x="460" y="443" type="curve" smooth="yes"/>
      <point x="614" y="443"/>
      <point x="714" y="482"/>
      <point x="758" y="594" type="curve"/>
      <point x="795" y="461" type="line"/>
      <point x="1057" y="461" type="line"/>
      <point x="1057" y="1213" type="line" smooth="yes"/>
      <point x="1057" y="1503"/>
      <point x="912" y="1557"/>
      <point x="614" y="1557" type="curve" smooth="yes"/>
      <point x="382" y="1557"/>
      <point x="191" y="1529"/>
      <point x="191" y="1294" type="curve" smooth="yes"/>
      <point x="191" y="1289"/>
      <point x="191" y="1236"/>
      <point x="191" y="1230" type="curve"/>
      <point x="467" y="1236" type="line"/>
      <point x="466" y="1244"/>
      <point x="466" y="1336"/>
      <point x="466" y="1342" type="curve" smooth="yes"/>
      <point x="466" y="1381"/>
      <point x="506" y="1397"/>
      <point x="608" y="1397" type="curve" smooth="yes"/>
      <point x="715" y="1397"/>
      <point x="745" y="1384"/>
      <point x="745" y="1335" type="curve" smooth="yes"/>
      <point x="745" y="1080" type="line"/>
      <point x="731" y="1080"/>
      <point x="628" y="1081"/>
      <point x="613" y="1081" type="curve" smooth="yes"/>
      <point x="323" y="1081"/>
      <point x="135" y="1016"/>
      <point x="135" y="793" type="curve" smooth="yes"/>
      <point x="135" y="547"/>
      <point x="219" y="443"/>
    </contour>
    <contour>
      <point x="531" y="604" type="curve" smooth="yes"/>
      <point x="439" y="604"/>
      <point x="439" y="820"/>
      <point x="439" y="907" type="curve" smooth="yes"/>
      <point x="439" y="951"/>
      <point x="539" y="966"/>
      <point x="745" y="968" type="curve"/>
      <point x="745" y="714" type="line" smooth="yes"/>
      <point x="742" y="652"/>
      <point x="667" y="604"/>
    </contour>
  </outline>
</glyph>
<glyph name="guillemotleft" format="1">
  <advance width="1704"/>
  <unicode hex="00AB"/>
  <outline>
    <contour>
      <point x="721" y="245" type="curve" smooth="yes"/>
      <point x="760" y="245"/>
      <point x="789" y="278"/>
      <point x="789" y="315" type="curve" smooth="yes"/>
      <point x="789" y="333"/>
      <point x="781" y="354"/>
      <point x="764" y="371" type="curve"/>
      <point x="360" y="781" type="line"/>
      <point x="764" y="1190" type="line"/>
      <point x="781" y="1212"/>
      <point x="789" y="1232"/>
      <point x="789" y="1246" type="curve" smooth="yes"/>
      <point x="789" y="1288"/>
      <point x="761" y="1321"/>
      <point x="722" y="1316" type="curve" smooth="yes"/>
      <point x="705" y="1321"/>
      <point x="688" y="1312"/>
      <point x="668" y="1296" type="curve" smooth="yes"/>
      <point x="163" y="906" type="line" smooth="yes"/>
      <point x="115" y="870"/>
      <point x="90" y="828"/>
      <point x="90" y="780" type="curve"/>
      <point x="90" y="737"/>
      <point x="113" y="693"/>
      <point x="163" y="655" type="curve" smooth="yes"/>
      <point x="668" y="265" type="line" smooth="yes"/>
      <point x="686" y="251"/>
      <point x="705" y="245"/>
    </contour>
    <contour>
      <point x="1302" y="245" type="curve" smooth="yes"/>
      <point x="1341" y="245"/>
      <point x="1370" y="278"/>
      <point x="1370" y="315" type="curve" smooth="yes"/>
      <point x="1370" y="333"/>
      <point x="1362" y="354"/>
      <point x="1345" y="371" type="curve"/>
      <point x="941" y="781" type="line"/>
      <point x="1345" y="1190" type="line"/>
      <point x="1363" y="1212"/>
      <point x="1370" y="1232"/>
      <point x="1370" y="1246" type="curve" smooth="yes"/>
      <point x="1370" y="1288"/>
      <point x="1342" y="1321"/>
      <point x="1303" y="1316" type="curve" smooth="yes"/>
      <point x="1286" y="1321"/>
      <point x="1269" y="1312"/>
      <point x="1249" y="1296" type="curve" smooth="yes"/>
      <point x="744" y="906" type="line" smooth="yes"/>
      <point x="696" y="870"/>
      <point x="671" y="828"/>
      <point x="671" y="780" type="curve"/>
      <point x="671" y="737"/>
      <point x="694" y="693"/>
      <point x="744" y="655" type="curve" smooth="yes"/>
      <point x="1249" y="265" type="line" smooth="yes"/>
      <point x="1268" y="251"/>
      <point x="1286" y="245"/>
    </contour>
  </outline>
</glyph>
<glyph name="logicalnot" format="1">
  <advance width="1246"/>
  <unicode hex="00AC"/>
  <outline>
    <contour>
      <point x="928" y="268" type="line"/>
      <point x="1090" y="268" type="line"/>
      <point x="1090" y="846" type="line"/>
      <point x="138" y="846" type="line"/>
      <point x="138" y="670" type="line"/>
      <point x="928" y="670" type="line"/>
    </contour>
  </outline>
</glyph>
<glyph name="uni00AD" format="1">
  <advance width="1146"/>
  <unicode hex="00AD"/>
  <outline>
    <contour>
      <point x="171" y="554" type="line"/>
      <point x="974" y="554" type="line"/>
      <point x="974" y="802" type="line"/>
      <point x="171" y="802" type="line"/>
    </contour>
  </outline>
</glyph>
<glyph name="registered" format="1">
  <advance width="1871"/>
  <unicode hex="00AE"/>
  <outline>
    <contour>
      <point x="593" y="269" type="line"/>
      <point x="763" y="269" type="line"/>
      <point x="762" y="738" type="line"/>
      <point x="965" y="738" type="line" smooth="yes"/>
      <point x="1095" y="738"/>
      <point x="1132" y="704"/>
      <point x="1130" y="556" type="curve" smooth="yes"/>
      <point x="1130" y="270" type="line"/>
      <point x="1299" y="270" type="line"/>
      <point x="1299" y="614" type="line" smooth="yes"/>
      <point x="1299" y="722"/>
      <point x="1252" y="782"/>
      <point x="1143" y="791" type="curve"/>
      <point x="1143" y="800" type="line"/>
      <point x="1250" y="817"/>
      <point x="1306" y="886"/>
      <point x="1306" y="1029" type="curve" smooth="yes"/>
      <point x="1306" y="1056" type="line" smooth="yes"/>
      <point x="1306" y="1278"/>
      <point x="1197" y="1311"/>
      <point x="947" y="1311" type="curve" smooth="yes"/>
      <point x="593" y="1311" type="line"/>
    </contour>
    <contour>
      <point x="928" y="18" type="curve" smooth="yes"/>
      <point x="555" y="18"/>
      <point x="246" y="141"/>
      <point x="246" y="595" type="curve" smooth="yes"/>
      <point x="246" y="933" type="line" smooth="yes"/>
      <point x="246" y="1418"/>
      <point x="557" y="1530"/>
      <point x="937" y="1530" type="curve" smooth="yes"/>
      <point x="1305" y="1530"/>
      <point x="1629" y="1422"/>
      <point x="1629" y="942" type="curve" smooth="yes"/>
      <point x="1629" y="587" type="line" smooth="yes"/>
      <point x="1629" y="129"/>
      <point x="1318" y="18"/>
    </contour>
    <contour>
      <point x="947" y="-97" type="curve" smooth="yes"/>
      <point x="1383" y="-97"/>
      <point x="1774" y="54"/>
      <point x="1774" y="596" type="curve" smooth="yes"/>
      <point x="1774" y="935" type="line" smooth="yes"/>
      <point x="1774" y="1492"/>
      <point x="1393" y="1647"/>
      <point x="938" y="1647" type="curve" smooth="yes"/>
      <point x="499" y="1647"/>
      <point x="101" y="1501"/>
      <point x="101" y="936" type="curve" smooth="yes"/>
      <point x="101" y="596" type="line" smooth="yes"/>
      <point x="101" y="61"/>
      <point x="485" y="-97"/>
    </contour>
    <contour>
      <point x="762" y="845" type="line"/>
      <point x="762" y="1198" type="line"/>
      <point x="963" y="1198" type="line" smooth="yes"/>
      <point x="1072" y="1198"/>
      <point x="1130" y="1192"/>
      <point x="1130" y="1057" type="curve" smooth="yes"/>
      <point x="1130" y="992" type="line" smooth="yes"/>
      <point x="1130" y="864"/>
      <point x="1094" y="845"/>
      <point x="934" y="845" type="curve" smooth="yes"/>
    </contour>
  </outline>
</glyph>
<glyph name="macron" format="1">
  <advance width="902"/>
  <unicode hex="00AF"/>
  <outline>
    <contour>
      <point x="465" y="1121" type="move" name="_top"/>
    </contour>
    <contour>
      <point x="464" y="1412" type="move" name="_mid"/>
    </contour>
    <contour>
      <point x="157" y="1483" type="line"/>
      <point x="157" y="1343" type="line"/>
      <point x="783" y="1343" type="line"/>
      <point x="783" y="1483" type="line"/>
    </contour>
  </outline>
</glyph>
<glyph name="degree" format="1">
  <advance width="908"/>
  <unicode hex="00B0"/>
  <outline>
    <contour>
      <point x="455" y="1166" type="curve" smooth="yes"/>
      <point x="361" y="1166"/>
      <point x="300" y="1229"/>
      <point x="300" y="1329" type="curve" smooth="yes"/>
      <point x="300" y="1428"/>
      <point x="361" y="1491"/>
      <point x="455" y="1491" type="curve" smooth="yes"/>
      <point x="550" y="1491"/>
      <point x="611" y="1428"/>
      <point x="611" y="1329" type="curve" smooth="yes"/>
      <point x="611" y="1229"/>
      <point x="550" y="1166"/>
    </contour>
    <contour>
      <point x="455" y="1050" type="curve" smooth="yes"/>
      <point x="645" y="1050"/>
      <point x="764" y="1163"/>
      <point x="764" y="1330" type="curve" smooth="yes"/>
      <point x="764" y="1496"/>
      <point x="645" y="1609"/>
      <point x="455" y="1609" type="curve" smooth="yes"/>
      <point x="264" y="1609"/>
      <point x="145" y="1496"/>
      <point x="145" y="1330" type="curve" smooth="yes"/>
      <point x="145" y="1163"/>
      <point x="264" y="1050"/>
    </contour>
  </outline>
</glyph>
<glyph name="plusminus" format="1">
  <advance width="1258"/>
  <unicode hex="00B1"/>
  <outline>
    <contour>
      <point x="534" y="301" type="line"/>
      <point x="723" y="301" type="line"/>
      <point x="723" y="684" type="line"/>
      <point x="1106" y="684" type="line"/>
      <point x="1106" y="864" type="line"/>
      <point x="723" y="864" type="line"/>
      <point x="723" y="1251" type="line"/>
      <point x="534" y="1251" type="line"/>
      <point x="534" y="864" type="line"/>
      <point x="151" y="864" type="line"/>
      <point x="151" y="684" type="line"/>
      <point x="534" y="684" type="line"/>
    </contour>
    <contour>
      <point x="173" y="0" type="line"/>
      <point x="1083" y="0" type="line"/>
      <point x="1083" y="174" type="line"/>
      <point x="173" y="174" type="line"/>
    </contour>
  </outline>
</glyph>
<glyph name="twosuperior" format="1">
  <advance width="1189"/>
  <unicode hex="00B2"/>
  <outline>
    <contour>
      <point x="236" y="447" type="line"/>
      <point x="1022" y="447" type="line"/>
      <point x="1022" y="596" type="line"/>
      <point x="435" y="596" type="line"/>
      <point x="435" y="712"/>
      <point x="450" y="786"/>
      <point x="652" y="853" type="curve" smooth="yes"/>
      <point x="823" y="910"/>
      <point x="1045" y="947"/>
      <point x="1045" y="1189" type="curve" smooth="yes"/>
      <point x="1045" y="1455"/>
      <point x="899" y="1522"/>
      <point x="637" y="1522" type="curve" smooth="yes"/>
      <point x="394" y="1522"/>
      <point x="229" y="1461"/>
      <point x="230" y="1191" type="curve" smooth="yes"/>
      <point x="230" y="1149" type="line"/>
      <point x="444" y="1167" type="line"/>
      <point x="444" y="1241" type="line" smooth="yes"/>
      <point x="444" y="1310"/>
      <point x="464" y="1365"/>
      <point x="643" y="1364" type="curve" smooth="yes"/>
      <point x="809" y="1363"/>
      <point x="838" y="1327"/>
      <point x="838" y="1258" type="curve" smooth="yes"/>
      <point x="838" y="1176" type="line" smooth="yes"/>
      <point x="838" y="1087"/>
      <point x="773" y="1065"/>
      <point x="606" y="1016" type="curve" smooth="yes"/>
      <point x="333" y="935"/>
      <point x="236" y="844"/>
      <point x="236" y="582" type="curve" smooth="yes"/>
    </contour>
  </outline>
</glyph>
<glyph name="threesuperior" format="1">
  <advance width="1259"/>
  <unicode hex="00B3"/>
  <outline>
    <contour>
      <point x="645" y="444" type="curve" smooth="yes"/>
      <point x="921" y="444"/>
      <point x="1044" y="515"/>
      <point x="1044" y="761" type="curve" smooth="yes"/>
      <point x="1044" y="869"/>
      <point x="1031" y="963"/>
      <point x="937" y="991" type="curve"/>
      <point x="1029" y="1019"/>
      <point x="1042" y="1095"/>
      <point x="1042" y="1203" type="curve" smooth="yes"/>
      <point x="1042" y="1450"/>
      <point x="960" y="1527"/>
      <point x="644" y="1527" type="curve" smooth="yes"/>
      <point x="314" y="1527"/>
      <point x="229" y="1444"/>
      <point x="229" y="1181" type="curve"/>
      <point x="229" y="1151" type="line"/>
      <point x="452" y="1151" type="line"/>
      <point x="453" y="1225" type="line" smooth="yes"/>
      <point x="456" y="1366"/>
      <point x="489" y="1383"/>
      <point x="644" y="1383" type="curve" smooth="yes"/>
      <point x="800" y="1383"/>
      <point x="827" y="1356"/>
      <point x="827" y="1243" type="curve"/>
      <point x="827" y="1135"/>
      <point x="836" y="1057"/>
      <point x="785" y="1057" type="curve" smooth="yes"/>
      <point x="535" y="1057" type="line"/>
      <point x="535" y="934" type="line"/>
      <point x="785" y="934" type="line" smooth="yes"/>
      <point x="831" y="934"/>
      <point x="827" y="843"/>
      <point x="827" y="753" type="curve"/>
      <point x="827" y="637"/>
      <point x="797" y="596"/>
      <point x="657" y="596" type="curve"/>
      <point x="466" y="596"/>
      <point x="448" y="638"/>
      <point x="451" y="764" type="curve" smooth="yes"/>
      <point x="452" y="835" type="line"/>
      <point x="229" y="835" type="line"/>
      <point x="229" y="793" type="line" smooth="yes"/>
      <point x="229" y="543"/>
      <point x="318" y="444"/>
    </contour>
  </outline>
</glyph>
<glyph name="acute" format="1">
  <advance width="769"/>
  <unicode hex="00B4"/>
  <outline>
    <contour>
      <point x="359" y="1129" type="move" name="_top"/>
    </contour>
    <contour>
      <point x="167" y="1317" type="curve" smooth="yes"/>
      <point x="200" y="1327"/>
      <point x="557" y="1455"/>
      <point x="595" y="1473" type="curve" smooth="yes"/>
      <point x="649" y="1499"/>
      <point x="673" y="1547"/>
      <point x="673" y="1590" type="curve" smooth="yes"/>
      <point x="673" y="1648"/>
      <point x="630" y="1702"/>
      <point x="559" y="1702" type="curve" smooth="yes"/>
      <point x="526" y="1702"/>
      <point x="495" y="1687"/>
      <point x="468" y="1667" type="curve" smooth="yes"/>
      <point x="420" y="1631"/>
      <point x="170" y="1375"/>
      <point x="143" y="1352" type="curve" smooth="yes"/>
      <point x="135" y="1342"/>
      <point x="134" y="1331"/>
      <point x="140" y="1323" type="curve" smooth="yes"/>
      <point x="145" y="1317"/>
      <point x="155" y="1313"/>
    </contour>
  </outline>
</glyph>
<glyph name="paragraph" format="1">
  <advance width="1206"/>
  <unicode hex="00B6"/>
  <outline>
    <contour>
      <point x="512" y="1507" type="line"/>
      <point x="215" y="1507"/>
      <point x="60" y="1402"/>
      <point x="60" y="1134" type="curve" smooth="yes"/>
      <point x="60" y="895"/>
      <point x="251" y="782"/>
      <point x="567" y="782" type="curve"/>
      <point x="567" y="-192" type="line"/>
      <point x="711" y="-192" type="line"/>
      <point x="711" y="1269" type="line"/>
      <point x="904" y="1269" type="line"/>
      <point x="904" y="-192" type="line"/>
      <point x="1038" y="-192" type="line"/>
      <point x="1038" y="1507" type="line"/>
    </contour>
  </outline>
</glyph>
<glyph name="periodcentered" format="1">
  <advance width="653"/>
  <unicode hex="00B7"/>
  <outline>
    <contour>
      <point x="58" y="746" type="move" name="_mid"/>
    </contour>
    <contour>
      <point x="469" y="594" type="curve" smooth="yes"/>
      <point x="556" y="594"/>
      <point x="613" y="659"/>
      <point x="613" y="751" type="curve" smooth="yes"/>
      <point x="613" y="843"/>
      <point x="551" y="908"/>
      <point x="469" y="908" type="curve" smooth="yes"/>
      <point x="382" y="908"/>
      <point x="325" y="845"/>
      <point x="325" y="751" type="curve" smooth="yes"/>
      <point x="325" y="661"/>
      <point x="388" y="594"/>
    </contour>
  </outline>
</glyph>
<glyph name="cedilla" format="1">
  <advance width="778"/>
  <unicode hex="00B8"/>
  <outline>
    <contour>
      <point x="416" y="0" type="move" name="_bot"/>
    </contour>
    <contour>
      <point x="367" y="12" type="line"/>
      <point x="329" y="-134" type="line" smooth="yes"/>
      <point x="307" y="-216"/>
      <point x="295" y="-265"/>
      <point x="291" y="-280" type="curve"/>
      <point x="384" y="-280"/>
      <point x="430" y="-309"/>
      <point x="430" y="-366" type="curve" smooth="yes"/>
      <point x="430" y="-405"/>
      <point x="405" y="-418"/>
      <point x="371" y="-418" type="curve" smooth="yes"/>
      <point x="313" y="-418"/>
      <point x="227" y="-376"/>
      <point x="209" y="-368" type="curve"/>
      <point x="161" y="-460" type="line"/>
      <point x="225" y="-515"/>
      <point x="316" y="-544"/>
      <point x="401" y="-544" type="curve" smooth="yes"/>
      <point x="529" y="-544"/>
      <point x="647" y="-481"/>
      <point x="647" y="-354" type="curve" smooth="yes"/>
      <point x="647" y="-203"/>
      <point x="560" y="-175"/>
      <point x="429" y="-157" type="curve"/>
      <point x="478" y="12" type="line"/>
    </contour>
  </outline>
</glyph>
<glyph name="onesuperior" format="1">
  <advance width="823"/>
  <unicode hex="00B9"/>
  <outline>
    <contour>
      <point x="346" y="415" type="line"/>
      <point x="565" y="415" type="line"/>
      <point x="565" y="1507" type="line"/>
      <point x="421" y="1507" type="line"/>
      <point x="364" y="1472"/>
      <point x="292" y="1452"/>
      <point x="202" y="1452" type="curve"/>
      <point x="202" y="1325" type="line"/>
      <point x="346" y="1325" type="line"/>
    </contour>
  </outline>
</glyph>
<glyph name="ordmasculine" format="1">
  <advance width="1048"/>
  <unicode hex="00BA"/>
  <outline>
    <contour>
      <point x="523" y="638" type="curve" smooth="yes"/>
      <point x="825" y="638"/>
      <point x="896" y="712"/>
      <point x="896" y="1022" type="curve" smooth="yes"/>
      <point x="896" y="1124" type="line" smooth="yes"/>
      <point x="897" y="1468"/>
      <point x="824" y="1527"/>
      <point x="524" y="1527" type="curve" smooth="yes"/>
      <point x="228" y="1527"/>
      <point x="150" y="1468"/>
      <point x="151" y="1124" type="curve" smooth="yes"/>
      <point x="151" y="1022" type="line" smooth="yes"/>
      <point x="151" y="712"/>
      <point x="222" y="638"/>
    </contour>
    <contour>
      <point x="355" y="817" type="curve" smooth="yes"/>
      <point x="355" y="1349" type="line" smooth="yes"/>
      <point x="355" y="1401"/>
      <point x="441" y="1410"/>
      <point x="524" y="1410" type="curve" smooth="yes"/>
      <point x="607" y="1410"/>
      <point x="692" y="1401"/>
      <point x="692" y="1349" type="curve" smooth="yes"/>
      <point x="692" y="817" type="line" smooth="yes"/>
      <point x="692" y="771"/>
      <point x="635" y="760"/>
      <point x="524" y="760" type="curve" smooth="yes"/>
      <point x="413" y="760"/>
      <point x="355" y="771"/>
    </contour>
  </outline>
</glyph>
<glyph name="guillemotright" format="1">
  <advance width="1704"/>
  <unicode hex="00BB"/>
  <outline>
    <contour>
      <point x="252" y="242" type="curve" smooth="yes"/>
      <point x="268" y="242"/>
      <point x="287" y="248"/>
      <point x="306" y="263" type="curve" smooth="yes"/>
      <point x="811" y="652" type="line" smooth="yes"/>
      <point x="862" y="691"/>
      <point x="885" y="735"/>
      <point x="885" y="780" type="curve"/>
      <point x="885" y="829"/>
      <point x="860" y="872"/>
      <point x="811" y="909" type="curve" smooth="yes"/>
      <point x="306" y="1298" type="line" smooth="yes"/>
      <point x="285" y="1314"/>
      <point x="268" y="1323"/>
      <point x="251" y="1319" type="curve" smooth="yes"/>
      <point x="212" y="1323"/>
      <point x="183" y="1290"/>
      <point x="183" y="1248" type="curve" smooth="yes"/>
      <point x="183" y="1233"/>
      <point x="188" y="1210"/>
      <point x="208" y="1191" type="curve" smooth="yes"/>
      <point x="609" y="780" type="line"/>
      <point x="208" y="370" type="line" smooth="yes"/>
      <point x="191" y="352"/>
      <point x="183" y="332"/>
      <point x="183" y="313" type="curve" smooth="yes"/>
      <point x="183" y="275"/>
      <point x="212" y="242"/>
    </contour>
    <contour>
      <point x="840" y="242" type="curve" smooth="yes"/>
      <point x="856" y="242"/>
      <point x="875" y="248"/>
      <point x="894" y="263" type="curve" smooth="yes"/>
      <point x="1400" y="652" type="line" smooth="yes"/>
      <point x="1450" y="691"/>
      <point x="1474" y="735"/>
      <point x="1474" y="780" type="curve"/>
      <point x="1473" y="829"/>
      <point x="1448" y="872"/>
      <point x="1400" y="909" type="curve" smooth="yes"/>
      <point x="894" y="1298" type="line" smooth="yes"/>
      <point x="873" y="1314"/>
      <point x="856" y="1323"/>
      <point x="839" y="1319" type="curve" smooth="yes"/>
      <point x="800" y="1323"/>
      <point x="771" y="1290"/>
      <point x="771" y="1248" type="curve" smooth="yes"/>
      <point x="771" y="1233"/>
      <point x="776" y="1210"/>
      <point x="796" y="1191" type="curve" smooth="yes"/>
      <point x="1197" y="780" type="line"/>
      <point x="796" y="370" type="line" smooth="yes"/>
      <point x="779" y="352"/>
      <point x="771" y="332"/>
      <point x="771" y="313" type="curve" smooth="yes"/>
      <point x="771" y="275"/>
      <point x="801" y="242"/>
    </contour>
  </outline>
</glyph>
<glyph name="onequarter" format="1">
  <advance width="2376"/>
  <unicode hex="00BC"/>
  <outline>
    <contour>
      <point x="1999" y="0" type="line"/>
      <point x="2207" y="0" type="line"/>
      <point x="2207" y="683" type="line"/>
      <point x="1999" y="683" type="line"/>
      <point x="1999" y="401" type="line"/>
      <point x="1648" y="401" type="line"/>
      <point x="1648" y="418" type="line"/>
      <point x="1967" y="1095" type="line"/>
      <point x="1767" y="1095" type="line"/>
      <point x="1421" y="407" type="line"/>
      <point x="1421" y="240" type="line"/>
      <point x="1999" y="240" type="line"/>
    </contour>
    <contour>
      <point x="267" y="463" type="line"/>
      <point x="477" y="463" type="line"/>
      <point x="477" y="1503" type="line"/>
      <point x="341" y="1503" type="line"/>
      <point x="284" y="1468"/>
      <point x="213" y="1448"/>
      <point x="123" y="1448" type="curve"/>
      <point x="123" y="1321" type="line"/>
      <point x="267" y="1321" type="line"/>
    </contour>
    <contour>
      <point x="651" y="0" type="line"/>
      <point x="812" y="0" type="line"/>
      <point x="1473" y="1534" type="line"/>
      <point x="1214" y="1534" type="line"/>
    </contour>
  </outline>
</glyph>
<glyph name="onehalf" format="1">
  <advance width="2436"/>
  <unicode hex="00BD"/>
  <outline>
    <contour>
      <point x="1506" y="0" type="line"/>
      <point x="2293" y="0" type="line"/>
      <point x="2293" y="151" type="line"/>
      <point x="1713" y="151" type="line"/>
      <point x="1713" y="265"/>
      <point x="1731" y="338"/>
      <point x="1927" y="402" type="curve" smooth="yes"/>
      <point x="2098" y="460"/>
      <point x="2316" y="500"/>
      <point x="2316" y="742" type="curve" smooth="yes"/>
      <point x="2316" y="1008"/>
      <point x="2171" y="1075"/>
      <point x="1909" y="1075" type="curve" smooth="yes"/>
      <point x="1666" y="1075"/>
      <point x="1499" y="1014"/>
      <point x="1500" y="744" type="curve" smooth="yes"/>
      <point x="1500" y="702" type="line"/>
      <point x="1722" y="719" type="line"/>
      <point x="1722" y="799" type="line" smooth="yes"/>
      <point x="1722" y="864"/>
      <point x="1743" y="916"/>
      <point x="1914" y="915" type="curve" smooth="yes"/>
      <point x="2072" y="914"/>
      <point x="2102" y="880"/>
      <point x="2102" y="815" type="curve" smooth="yes"/>
      <point x="2102" y="730" type="line" smooth="yes"/>
      <point x="2102" y="642"/>
      <point x="2037" y="620"/>
      <point x="1875" y="572" type="curve" smooth="yes"/>
      <point x="1605" y="490"/>
      <point x="1506" y="398"/>
      <point x="1506" y="136" type="curve" smooth="yes"/>
    </contour>
    <contour>
      <point x="264" y="467" type="line"/>
      <point x="483" y="467" type="line"/>
      <point x="483" y="1507" type="line"/>
      <point x="339" y="1507" type="line"/>
      <point x="282" y="1472"/>
      <point x="210" y="1452"/>
      <point x="120" y="1452" type="curve"/>
      <point x="120" y="1325" type="line"/>
      <point x="264" y="1325" type="line"/>
    </contour>
    <contour>
      <point x="606" y="0" type="line"/>
      <point x="776" y="0" type="line"/>
      <point x="1427" y="1537" type="line"/>
      <point x="1160" y="1537" type="line"/>
    </contour>
  </outline>
</glyph>
<glyph name="threequarters" format="1">
  <advance width="2654"/>
  <unicode hex="00BE"/>
  <outline>
    <contour>
      <point x="2277" y="0" type="line"/>
      <point x="2485" y="0" type="line"/>
      <point x="2485" y="683" type="line"/>
      <point x="2277" y="683" type="line"/>
      <point x="2277" y="401" type="line"/>
      <point x="1926" y="401" type="line"/>
      <point x="1926" y="418" type="line"/>
      <point x="2245" y="1095" type="line"/>
      <point x="2045" y="1095" type="line"/>
      <point x="1699" y="407" type="line"/>
      <point x="1699" y="240" type="line"/>
      <point x="2277" y="240" type="line"/>
    </contour>
    <contour>
      <point x="1010" y="0" type="line"/>
      <point x="1172" y="0" type="line"/>
      <point x="1833" y="1534" type="line"/>
      <point x="1574" y="1534" type="line"/>
    </contour>
    <contour>
      <point x="584" y="431" type="curve" smooth="yes"/>
      <point x="858" y="431"/>
      <point x="980" y="501"/>
      <point x="980" y="747" type="curve" smooth="yes"/>
      <point x="980" y="855"/>
      <point x="970" y="950"/>
      <point x="876" y="977" type="curve"/>
      <point x="967" y="1004"/>
      <point x="978" y="1081"/>
      <point x="978" y="1189" type="curve" smooth="yes"/>
      <point x="978" y="1436"/>
      <point x="899" y="1513"/>
      <point x="583" y="1513" type="curve" smooth="yes"/>
      <point x="250" y="1513"/>
      <point x="168" y="1430"/>
      <point x="168" y="1167" type="curve"/>
      <point x="168" y="1138" type="line"/>
      <point x="384" y="1138" type="line"/>
      <point x="385" y="1205" type="line" smooth="yes"/>
      <point x="388" y="1353"/>
      <point x="421" y="1371"/>
      <point x="583" y="1371" type="curve" smooth="yes"/>
      <point x="746" y="1371"/>
      <point x="772" y="1342"/>
      <point x="772" y="1224" type="curve"/>
      <point x="772" y="1111"/>
      <point x="781" y="1042"/>
      <point x="728" y="1042" type="curve" smooth="yes"/>
      <point x="474" y="1042" type="line"/>
      <point x="474" y="921" type="line"/>
      <point x="728" y="921" type="line" smooth="yes"/>
      <point x="775" y="921"/>
      <point x="772" y="841"/>
      <point x="772" y="747" type="curve"/>
      <point x="772" y="624"/>
      <point x="742" y="581"/>
      <point x="596" y="581" type="curve"/>
      <point x="397" y="581"/>
      <point x="380" y="625"/>
      <point x="383" y="757" type="curve" smooth="yes"/>
      <point x="384" y="821" type="line"/>
      <point x="168" y="821" type="line"/>
      <point x="168" y="779" type="line" smooth="yes"/>
      <point x="168" y="529"/>
      <point x="255" y="431"/>
    </contour>
  </outline>
</glyph>
<glyph name="AE" format="1">
  <advance width="2048"/>
  <unicode hex="00C6"/>
  <outline>
    <contour>
      <point x="1150" y="1507" type="move" name="top"/>
    </contour>
    <contour>
      <point x="82" y="0" type="line"/>
      <point x="381" y="0" type="line"/>
      <point x="582" y="376" type="line"/>
      <point x="1047" y="376" type="line"/>
      <point x="1047" y="0" type="line"/>
      <point x="1929" y="0" type="line"/>
      <point x="1929" y="179" type="line"/>
      <point x="1317" y="179" type="line"/>
      <point x="1317" y="699" type="line"/>
      <point x="1817" y="699" type="line"/>
      <point x="1817" y="880" type="line"/>
      <point x="1317" y="880" type="line"/>
      <point x="1317" y="1328" type="line"/>
      <point x="1913" y="1328" type="line"/>
      <point x="1913" y="1507" type="line"/>
      <point x="891" y="1507" type="line"/>
    </contour>
    <contour>
      <point x="649" y="532" type="line"/>
      <point x="1047" y="1312" type="line"/>
      <point x="1047" y="532" type="line"/>
    </contour>
  </outline>
</glyph>
<glyph name="multiply" format="1">
  <advance width="1043"/>
  <unicode hex="00D7"/>
  <outline>
    <contour>
      <point x="289" y="243" type="curve"/>
      <point x="520" y="497" type="line"/>
      <point x="752" y="243" type="line"/>
      <point x="907" y="413" type="line"/>
      <point x="678" y="667" type="line"/>
      <point x="907" y="921" type="line"/>
      <point x="752" y="1091" type="line"/>
      <point x="520" y="837" type="line"/>
      <point x="289" y="1091" type="line"/>
      <point x="234" y="1029"/>
      <point x="156" y="945"/>
      <point x="133" y="921" type="curve"/>
      <point x="309" y="725"/>
      <point x="356" y="673"/>
      <point x="363" y="667" type="curve"/>
      <point x="133" y="413" type="line"/>
      <point x="189" y="351"/>
      <point x="266" y="267"/>
    </contour>
  </outline>
</glyph>
<glyph name="Oslash" format="1">
  <advance width="1735"/>
  <unicode hex="00D8"/>
  <outline>
    <contour>
      <point x="852" y="1595" type="move" name="top"/>
    </contour>
    <contour>
      <point x="1170" y="1324" type="line"/>
      <point x="1370" y="1636" type="line"/>
      <point x="1247" y="1708" type="line"/>
      <point x="1042" y="1388" type="line"/>
    </contour>
    <contour>
      <point x="269" y="-168" type="line"/>
      <point x="441" y="105" type="line"/>
      <point x="325" y="184" type="line"/>
      <point x="150" y="-94" type="line"/>
    </contour>
    <component base="O"/>
  </outline>
</glyph>
<glyph name="Thorn" format="1">
  <advance width="1365"/>
  <unicode hex="00DE"/>
  <outline>
    <contour>
      <point x="179" y="0" type="line"/>
      <point x="444" y="0" type="line"/>
      <point x="444" y="362" type="line"/>
      <point x="649" y="362" type="line" smooth="yes"/>
      <point x="898" y="362"/>
      <point x="1242" y="342"/>
      <point x="1242" y="801" type="curve" smooth="yes"/>
      <point x="1242" y="888" type="line" smooth="yes"/>
      <point x="1235" y="1240"/>
      <point x="1080" y="1305"/>
      <point x="671" y="1305" type="curve" smooth="yes"/>
      <point x="444" y="1305" type="line"/>
      <point x="444" y="1507" type="line"/>
      <point x="179" y="1507" type="line"/>
    </contour>
    <contour>
      <point x="444" y="540" type="line"/>
      <point x="444" y="1130" type="line"/>
      <point x="665" y="1130" type="line" smooth="yes"/>
      <point x="944" y="1130"/>
      <point x="979" y="1059"/>
      <point x="979" y="832" type="curve" smooth="yes"/>
      <point x="979" y="662"/>
      <point x="976" y="540"/>
      <point x="741" y="540" type="curve" smooth="yes"/>
    </contour>
  </outline>
</glyph>
<glyph name="germandbls" format="1">
  <advance width="1311"/>
  <unicode hex="00DF"/>
  <outline>
    <contour>
      <point x="166" y="-188" type="line"/>
      <point x="412" y="-175" type="line"/>
      <point x="412" y="1126" type="line"/>
      <point x="411" y="1330"/>
      <point x="468" y="1340"/>
      <point x="643" y="1340" type="curve" smooth="yes"/>
      <point x="807" y="1340"/>
      <point x="858" y="1312"/>
      <point x="858" y="1175" type="curve" smooth="yes"/>
      <point x="858" y="1053"/>
      <point x="852" y="900"/>
      <point x="776" y="900" type="curve" smooth="yes"/>
      <point x="556" y="900" type="line"/>
      <point x="556" y="739" type="line"/>
      <point x="776" y="738" type="line" smooth="yes"/>
      <point x="918" y="738"/>
      <point x="925" y="631"/>
      <point x="920" y="436" type="curve" smooth="yes"/>
      <point x="915" y="226"/>
      <point x="886" y="165"/>
      <point x="744" y="165" type="curve" smooth="yes"/>
      <point x="527" y="167" type="line"/>
      <point x="527" y="-6" type="line"/>
      <point x="747" y="-6" type="line" smooth="yes"/>
      <point x="987" y="-6"/>
      <point x="1167" y="77"/>
      <point x="1167" y="359" type="curve" smooth="yes"/>
      <point x="1167" y="484" type="line" smooth="yes"/>
      <point x="1167" y="743"/>
      <point x="1053" y="825"/>
      <point x="917" y="834" type="curve"/>
      <point x="1033" y="850"/>
      <point x="1088" y="953"/>
      <point x="1088" y="1150" type="curve" smooth="yes"/>
      <point x="1088" y="1425"/>
      <point x="957" y="1513"/>
      <point x="644" y="1513" type="curve" smooth="yes"/>
      <point x="323" y="1513"/>
      <point x="166" y="1438"/>
      <point x="166" y="1146" type="curve" smooth="yes"/>
    </contour>
  </outline>
</glyph>
<glyph name="ae" format="1">
  <advance width="1847"/>
  <unicode hex="00E6"/>
  <outline>
    <contour>
      <point x="890" y="1129" type="move" name="top"/>
    </contour>
    <contour>
      <point x="487" y="-18" type="curve" smooth="yes"/>
      <point x="687" y="-18"/>
      <point x="842" y="26"/>
      <point x="914" y="148" type="curve"/>
      <point x="978" y="49"/>
      <point x="1079" y="-18"/>
      <point x="1298" y="-18" type="curve" smooth="yes"/>
      <point x="1521" y="-18"/>
      <point x="1639" y="13"/>
      <point x="1668" y="178" type="curve" smooth="yes"/>
      <point x="1678" y="213"/>
      <point x="1682" y="281"/>
      <point x="1684" y="337" type="curve"/>
      <point x="1464" y="361" type="line"/>
      <point x="1458" y="307"/>
      <point x="1463" y="223"/>
      <point x="1446" y="192" type="curve" smooth="yes"/>
      <point x="1429" y="160"/>
      <point x="1378" y="143"/>
      <point x="1285" y="143" type="curve" smooth="yes"/>
      <point x="1175" y="143"/>
      <point x="1107" y="159"/>
      <point x="1078" y="196" type="curve" smooth="yes"/>
      <point x="1049" y="232"/>
      <point x="1047" y="347"/>
      <point x="1047" y="559" type="curve"/>
      <point x="1707" y="558" type="line"/>
      <point x="1707" y="619"/>
      <point x="1706" y="741"/>
      <point x="1704" y="788" type="curve" smooth="yes"/>
      <point x="1691" y="1097"/>
      <point x="1591" y="1163"/>
      <point x="1275" y="1163" type="curve" smooth="yes"/>
      <point x="1101" y="1163"/>
      <point x="973" y="1123"/>
      <point x="935" y="1032" type="curve"/>
      <point x="911" y="1131"/>
      <point x="757" y="1162"/>
      <point x="614" y="1162" type="curve" smooth="yes"/>
      <point x="368" y="1162"/>
      <point x="188" y="1135"/>
      <point x="188" y="897" type="curve" smooth="yes"/>
      <point x="188" y="878"/>
      <point x="188" y="859"/>
      <point x="191" y="840" type="curve"/>
      <point x="403" y="839" type="line"/>
      <point x="406" y="897"/>
      <point x="403" y="955"/>
      <point x="424" y="975" type="curve" smooth="yes"/>
      <point x="446" y="995"/>
      <point x="502" y="1001"/>
      <point x="603" y="1001" type="curve" smooth="yes"/>
      <point x="735" y="1001"/>
      <point x="790" y="983"/>
      <point x="790" y="925" type="curve" smooth="yes"/>
      <point x="790" y="633" type="line"/>
      <point x="412" y="633"/>
      <point x="126" y="612"/>
      <point x="126" y="359" type="curve" smooth="yes"/>
      <point x="126" y="87"/>
      <point x="215" y="-18"/>
    </contour>
    <contour>
      <point x="531" y="143" type="curve" smooth="yes"/>
      <point x="457" y="143"/>
      <point x="408" y="150"/>
      <point x="389" y="176" type="curve" smooth="yes"/>
      <point x="370" y="203"/>
      <point x="370" y="305"/>
      <point x="370" y="394" type="curve" smooth="yes"/>
      <point x="370" y="452"/>
      <point x="421" y="486"/>
      <point x="593" y="499" type="curve" smooth="yes"/>
      <point x="643" y="502"/>
      <point x="716" y="504"/>
      <point x="790" y="504" type="curve"/>
      <point x="790" y="304" type="line" smooth="yes"/>
      <point x="790" y="211"/>
      <point x="716" y="143"/>
    </contour>
    <contour>
      <point x="1047" y="678" type="line"/>
      <point x="1050" y="785"/>
      <point x="1046" y="896"/>
      <point x="1071" y="940" type="curve" smooth="yes"/>
      <point x="1095" y="984"/>
      <point x="1159" y="1001"/>
      <point x="1274" y="1001" type="curve" smooth="yes"/>
      <point x="1391" y="1001"/>
      <point x="1437" y="984"/>
      <point x="1442" y="916" type="curve" smooth="yes"/>
      <point x="1447" y="852"/>
      <point x="1449" y="746"/>
      <point x="1450" y="678" type="curve"/>
    </contour>
  </outline>
</glyph>
<glyph name="eth" format="1">
  <advance width="1316"/>
  <unicode hex="00F0"/>
  <outline>
    <contour>
      <point x="669" y="-26" type="curve" smooth="yes"/>
      <point x="1053" y="-26"/>
      <point x="1162" y="98"/>
      <point x="1162" y="509" type="curve" smooth="yes"/>
      <point x="1162" y="1008"/>
      <point x="1136" y="1264"/>
      <point x="949" y="1402" type="curve"/>
      <point x="1109" y="1554" type="line"/>
      <point x="1047" y="1624" type="line"/>
      <point x="866" y="1453" type="line"/>
      <point x="753" y="1508"/>
      <point x="598" y="1539"/>
      <point x="384" y="1560" type="curve"/>
      <point x="333" y="1405" type="line"/>
      <point x="524" y="1379"/>
      <point x="642" y="1367"/>
      <point x="723" y="1329" type="curve"/>
      <point x="567" y="1183" type="line"/>
      <point x="628" y="1112" type="line"/>
      <point x="800" y="1272" type="line"/>
      <point x="864" y="1203"/>
      <point x="893" y="1083"/>
      <point x="904" y="861" type="curve"/>
      <point x="888" y="945"/>
      <point x="763" y="987"/>
      <point x="575" y="987" type="curve" smooth="yes"/>
      <point x="255" y="987"/>
      <point x="144" y="864"/>
      <point x="142" y="593" type="curve" smooth="yes"/>
      <point x="142" y="591"/>
      <point x="141" y="406"/>
      <point x="141" y="404" type="curve" smooth="yes"/>
      <point x="141" y="68"/>
      <point x="259" y="-26"/>
    </contour>
    <contour>
      <point x="666" y="125" type="curve" smooth="yes"/>
      <point x="439" y="125"/>
      <point x="394" y="130"/>
      <point x="394" y="218" type="curve" smooth="yes"/>
      <point x="395" y="732" type="line" smooth="yes"/>
      <point x="395" y="825"/>
      <point x="425" y="836"/>
      <point x="667" y="836" type="curve" smooth="yes"/>
      <point x="882" y="836"/>
      <point x="904" y="784"/>
      <point x="904" y="679" type="curve" smooth="yes"/>
      <point x="904" y="209" type="line" smooth="yes"/>
      <point x="904" y="139"/>
      <point x="891" y="125"/>
    </contour>
  </outline>
</glyph>
<glyph name="divide" format="1">
  <advance width="800"/>
  <unicode hex="00F7"/>
  <outline>
    <contour>
      <point x="402" y="134" type="curve" smooth="yes"/>
      <point x="488" y="134"/>
      <point x="542" y="203"/>
      <point x="542" y="288" type="curve" smooth="yes"/>
      <point x="542" y="366"/>
      <point x="486" y="442"/>
      <point x="416" y="442" type="curve" smooth="yes"/>
      <point x="315" y="442"/>
      <point x="262" y="383"/>
      <point x="262" y="288" type="curve" smooth="yes"/>
      <point x="262" y="193"/>
      <point x="321" y="134"/>
    </contour>
    <contour>
      <point x="58" y="614" type="line"/>
      <point x="745" y="614" type="line"/>
      <point x="745" y="753" type="line"/>
      <point x="58" y="753" type="line"/>
    </contour>
    <contour>
      <point x="402" y="925" type="curve" smooth="yes"/>
      <point x="490" y="925"/>
      <point x="542" y="991"/>
      <point x="542" y="1079" type="curve" smooth="yes"/>
      <point x="542" y="1157"/>
      <point x="486" y="1233"/>
      <point x="416" y="1233" type="curve" smooth="yes"/>
      <point x="315" y="1233"/>
      <point x="262" y="1175"/>
      <point x="262" y="1079" type="curve" smooth="yes"/>
      <point x="262" y="984"/>
      <point x="320" y="925"/>
    </contour>
  </outline>
</glyph>
<glyph name="oslash" format="1">
  <advance width="1631"/>
  <unicode hex="00F8"/>
  <outline>
    <contour>
      <point x="629" y="1146" type="move" name="top"/>
    </contour>
    <contour>
      <point x="117" y="0" type="line"/>
      <point x="1190" y="1085" type="line"/>
      <point x="1132" y="1143" type="line"/>
      <point x="59" y="58" type="line"/>
    </contour>
    <component base="o"/>
  </outline>
</glyph>
<glyph name="thorn" format="1">
  <advance width="1274"/>
  <unicode hex="00FE"/>
  <outline>
    <contour>
      <point x="164" y="-402" type="line"/>
      <point x="420" y="-389" type="line"/>
      <point x="420" y="100" type="line"/>
      <point x="463" y="19"/>
      <point x="583" y="-24"/>
      <point x="771" y="-24" type="curve" smooth="yes"/>
      <point x="1067" y="-24"/>
      <point x="1127" y="122"/>
      <point x="1127" y="504" type="curve" smooth="yes"/>
      <point x="1127" y="607" type="line" smooth="yes"/>
      <point x="1127" y="948"/>
      <point x="1105" y="1193"/>
      <point x="755" y="1193" type="curve" smooth="yes"/>
      <point x="566" y="1193"/>
      <point x="453" y="1153"/>
      <point x="419" y="1071" type="curve"/>
      <point x="419" y="1583" type="line"/>
      <point x="164" y="1570" type="line"/>
    </contour>
    <contour>
      <point x="654" y="153" type="curve" smooth="yes"/>
      <point x="467" y="153"/>
      <point x="418" y="154"/>
      <point x="418" y="330" type="curve" smooth="yes"/>
      <point x="418" y="412"/>
      <point x="418" y="701"/>
      <point x="418" y="847" type="curve" smooth="yes"/>
      <point x="418" y="1001"/>
      <point x="439" y="1018"/>
      <point x="671" y="1018" type="curve" smooth="yes"/>
      <point x="847" y="1018"/>
      <point x="878" y="1013"/>
      <point x="878" y="824" type="curve" smooth="yes"/>
      <point x="878" y="742"/>
      <point x="878" y="454"/>
      <point x="878" y="361" type="curve" smooth="yes"/>
      <point x="878" y="191"/>
      <point x="846" y="153"/>
    </contour>
  </outline>
</glyph>
<glyph name="Hbar" format="1">
  <advance width="1548"/>
  <unicode hex="0126"/>
  <outline>
    <contour>
      <point x="218" y="0" type="line"/>
      <point x="470" y="0" type="line"/>
      <point x="470" y="684" type="line"/>
      <point x="1079" y="684" type="line"/>
      <point x="1079" y="0" type="line"/>
      <point x="1330" y="0" type="line"/>
      <point x="1330" y="1092" type="line"/>
      <point x="1411" y="1092" type="line"/>
      <point x="1411" y="1208" type="line"/>
      <point x="1330" y="1208" type="line"/>
      <point x="1330" y="1503" type="line"/>
      <point x="1079" y="1503" type="line"/>
      <point x="1079" y="1208" type="line"/>
      <point x="470" y="1208" type="line"/>
      <point x="470" y="1503" type="line"/>
      <point x="218" y="1503" type="line"/>
      <point x="218" y="1208" type="line"/>
      <point x="138" y="1208" type="line"/>
      <point x="138" y="1092" type="line"/>
      <point x="218" y="1092" type="line"/>
    </contour>
    <contour>
      <point x="470" y="854" type="line"/>
      <point x="470" y="1092" type="line"/>
      <point x="1079" y="1092" type="line"/>
      <point x="1079" y="854" type="line"/>
    </contour>
  </outline>
</glyph>
<glyph name="dotlessi" format="1">
  <advance width="575"/>
  <unicode hex="0131"/>
  <outline>
    <contour>
      <point x="289" y="1129" type="move" name="top"/>
    </contour>
    <contour>
      <point x="302" y="0" type="move" name="ogonek"/>
    </contour>
    <contour>
      <point x="168" y="1129" type="line"/>
      <point x="168" y="0" type="line"/>
      <point x="425" y="0" type="line"/>
      <point x="425" y="1129" type="line"/>
    </contour>
  </outline>
</glyph>
<glyph name="kgreenlandic" format="1">
  <advance width="1253"/>
  <unicode hex="0138"/>
  <outline>
    <contour>
      <point x="154" y="0" type="line"/>
      <point x="414" y="0" type="line"/>
      <point x="414" y="420" type="line"/>
      <point x="509" y="528" type="line"/>
      <point x="860" y="0" type="line"/>
      <point x="1134" y="0" type="line"/>
      <point x="700" y="654" type="line"/>
      <point x="1100" y="1129" type="line"/>
      <point x="818" y="1129" type="line"/>
      <point x="571" y="818" type="line" smooth="yes"/>
      <point x="526" y="764"/>
      <point x="460" y="687"/>
      <point x="413" y="637" type="curve"/>
      <point x="413" y="678"/>
      <point x="414" y="754"/>
      <point x="414" y="796" type="curve" smooth="yes"/>
      <point x="414" y="1130" type="line"/>
      <point x="154" y="1117" type="line"/>
    </contour>
  </outline>
</glyph>
<glyph name="Lslash" format="1">
  <advance width="1049"/>
  <unicode hex="0141"/>
  <outline>
    <contour>
      <point x="45" y="550" type="line"/>
      <point x="731" y="882" type="line"/>
      <point x="731" y="1098" type="line"/>
      <point x="45" y="766" type="line"/>
    </contour>
    <component base="L"/>
  </outline>
</glyph>
<glyph name="lslash" format="1">
  <advance width="683"/>
  <unicode hex="0142"/>
  <outline>
    <contour>
      <point x="57" y="780" type="line"/>
      <point x="614" y="995" type="line"/>
      <point x="614" y="1173" type="line"/>
      <point x="57" y="961" type="line"/>
    </contour>
    <component base="l" xOffset="25"/>
  </outline>
</glyph>
<glyph name="Eng" format="1">
  <advance width="1546"/>
  <unicode hex="014A"/>
  <outline>
    <contour>
      <point x="805" y="-501" type="line"/>
      <point x="1229" y="-501"/>
      <point x="1375" y="-384"/>
      <point x="1375" y="-28" type="curve" smooth="yes"/>
      <point x="1375" y="1536" type="line"/>
      <point x="1099" y="1536" type="line"/>
      <point x="1099" y="567" type="line"/>
      <point x="488" y="1536" type="line"/>
      <point x="168" y="1536" type="line"/>
      <point x="168" y="0" type="line"/>
      <point x="446" y="0" type="line"/>
      <point x="446" y="972" type="line"/>
      <point x="1074" y="25" type="line"/>
      <point x="1075" y="-174" type="line" smooth="yes"/>
      <point x="1058" y="-242"/>
      <point x="1019" y="-282"/>
      <point x="812" y="-282" type="curve"/>
    </contour>
  </outline>
</glyph>
<glyph name="eng" format="1">
  <advance width="1248"/>
  <unicode hex="014B"/>
  <outline>
    <contour>
      <point x="597" y="-426" type="line"/>
      <point x="999" y="-426"/>
      <point x="1094" y="-302"/>
      <point x="1097" y="80" type="curve" smooth="yes"/>
      <point x="1097" y="663" type="line" smooth="yes"/>
      <point x="1097" y="1009"/>
      <point x="1044" y="1160"/>
      <point x="741" y="1160" type="curve" smooth="yes"/>
      <point x="595" y="1160"/>
      <point x="453" y="1120"/>
      <point x="412" y="1008" type="curve"/>
      <point x="390" y="1129" type="line"/>
      <point x="157" y="1129" type="line"/>
      <point x="157" y="0" type="line"/>
      <point x="414" y="0" type="line"/>
      <point x="414" y="832" type="line" smooth="yes"/>
      <point x="414" y="953"/>
      <point x="461" y="1008"/>
      <point x="676" y="1008" type="curve" smooth="yes"/>
      <point x="817" y="1008"/>
      <point x="839" y="992"/>
      <point x="839" y="735" type="curve" smooth="yes"/>
      <point x="839" y="-111" type="line" smooth="yes"/>
      <point x="832" y="-199"/>
      <point x="800" y="-253"/>
      <point x="569" y="-253" type="curve"/>
    </contour>
  </outline>
</glyph>
<glyph name="OE" format="1">
  <advance width="2079"/>
  <unicode hex="0152"/>
  <outline>
    <contour>
      <point x="1023" y="1503" type="move" name="top"/>
    </contour>
    <contour>
      <point x="732" y="0" type="curve" smooth="yes"/>
      <point x="1929" y="0" type="line"/>
      <point x="1947" y="164" type="line"/>
      <point x="1324" y="164" type="line"/>
      <point x="1324" y="697" type="line"/>
      <point x="1853" y="697" type="line"/>
      <point x="1853" y="869" type="line"/>
      <point x="1324" y="869" type="line"/>
      <point x="1324" y="1338" type="line"/>
      <point x="1939" y="1338" type="line"/>
      <point x="1922" y="1503" type="line"/>
      <point x="732" y="1503" type="line" smooth="yes"/>
      <point x="248" y="1503"/>
      <point x="148" y="1373"/>
      <point x="148" y="862" type="curve" smooth="yes"/>
      <point x="148" y="837"/>
      <point x="148" y="710"/>
      <point x="148" y="687" type="curve" smooth="yes"/>
      <point x="149" y="131"/>
      <point x="206" y="0"/>
    </contour>
    <contour>
      <point x="734" y="163" type="line"/>
      <point x="519" y="163"/>
      <point x="433" y="190"/>
      <point x="410" y="350" type="curve" smooth="yes"/>
      <point x="394" y="462"/>
      <point x="390" y="832"/>
      <point x="400" y="1129" type="curve" smooth="yes"/>
      <point x="406" y="1302"/>
      <point x="440" y="1340"/>
      <point x="734" y="1340" type="curve" smooth="yes"/>
      <point x="1070" y="1340" type="line"/>
      <point x="1070" y="163" type="line"/>
    </contour>
  </outline>
</glyph>
<glyph name="oe" format="1">
  <advance width="1929"/>
  <unicode hex="0153"/>
  <outline>
    <contour>
      <point x="1346" y="-20" type="curve" smooth="yes"/>
      <point x="1643" y="-20"/>
      <point x="1781" y="28"/>
      <point x="1785" y="254" type="curve" smooth="yes"/>
      <point x="1785" y="259"/>
      <point x="1786" y="341"/>
      <point x="1786" y="347" type="curve"/>
      <point x="1565" y="354" type="line"/>
      <point x="1557" y="206" type="line" smooth="yes"/>
      <point x="1552" y="156"/>
      <point x="1496" y="130"/>
      <point x="1353" y="130" type="curve" smooth="yes"/>
      <point x="1185" y="130"/>
      <point x="1120" y="147"/>
      <point x="1116" y="223" type="curve" smooth="yes"/>
      <point x="1111" y="310"/>
      <point x="1110" y="464"/>
      <point x="1109" y="559" type="curve"/>
      <point x="1806" y="559" type="line"/>
      <point x="1810" y="681" type="line"/>
      <point x="1806" y="1073"/>
      <point x="1704" y="1150"/>
      <point x="1339" y="1150" type="curve" smooth="yes"/>
      <point x="1169" y="1150"/>
      <point x="1051" y="1120"/>
      <point x="982" y="1039" type="curve"/>
      <point x="917" y="1122"/>
      <point x="799" y="1150"/>
      <point x="625" y="1150" type="curve" smooth="yes"/>
      <point x="235" y="1150"/>
      <point x="133" y="1075"/>
      <point x="133" y="644" type="curve" smooth="yes"/>
      <point x="133" y="524" type="line" smooth="yes"/>
      <point x="133" y="83"/>
      <point x="208" y="-20"/>
      <point x="624" y="-20" type="curve" smooth="yes"/>
      <point x="800" y="-20"/>
      <point x="920" y="11"/>
      <point x="985" y="96" type="curve"/>
      <point x="1056" y="10"/>
      <point x="1177" y="-20"/>
    </contour>
    <contour>
      <point x="626" y="136" type="curve" smooth="yes"/>
      <point x="478" y="136"/>
      <point x="399" y="152"/>
      <point x="399" y="213" type="curve"/>
      <point x="398" y="919" type="line"/>
      <point x="398" y="998"/>
      <point x="525" y="998"/>
      <point x="625" y="998" type="curve" smooth="yes"/>
      <point x="725" y="998"/>
      <point x="853" y="998"/>
      <point x="853" y="919" type="curve" smooth="yes"/>
      <point x="852" y="213" type="line" smooth="yes"/>
      <point x="852" y="150"/>
      <point x="775" y="136"/>
    </contour>
    <contour>
      <point x="1110" y="675" type="line"/>
      <point x="1112" y="729"/>
      <point x="1109" y="863"/>
      <point x="1124" y="920" type="curve" smooth="yes"/>
      <point x="1141" y="984"/>
      <point x="1173" y="1000"/>
      <point x="1338" y="1000" type="curve" smooth="yes"/>
      <point x="1481" y="1000"/>
      <point x="1540" y="983"/>
      <point x="1545" y="914" type="curve" smooth="yes"/>
      <point x="1550" y="850"/>
      <point x="1553" y="732"/>
      <point x="1553" y="675" type="curve"/>
    </contour>
  </outline>
</glyph>
<glyph name="florin" format="1">
  <advance width="893"/>
  <unicode hex="0192"/>
  <outline>
    <contour>
      <point x="307" y="-319" type="curve" smooth="yes"/>
      <point x="493" y="-315"/>
      <point x="520" y="-222"/>
      <point x="520" y="-56" type="curve" smooth="yes"/>
      <point x="520" y="757" type="line"/>
      <point x="718" y="757" type="line"/>
      <point x="718" y="887" type="line"/>
      <point x="520" y="887" type="line"/>
      <point x="519" y="1256" type="line" smooth="yes"/>
      <point x="519" y="1372"/>
      <point x="519" y="1392"/>
      <point x="650" y="1392" type="curve" smooth="yes"/>
      <point x="676" y="1392"/>
      <point x="702" y="1391"/>
      <point x="728" y="1389" type="curve"/>
      <point x="728" y="1543" type="line"/>
      <point x="665" y="1555"/>
      <point x="605" y="1561"/>
      <point x="552" y="1561" type="curve" smooth="yes"/>
      <point x="390" y="1561"/>
      <point x="321" y="1484"/>
      <point x="322" y="1259" type="curve" smooth="yes"/>
      <point x="323" y="887" type="line"/>
      <point x="161" y="887" type="line"/>
      <point x="161" y="757" type="line"/>
      <point x="323" y="757" type="line"/>
      <point x="323" y="-167" type="line"/>
      <point x="155" y="-167" type="line"/>
      <point x="155" y="-299" type="line"/>
      <point x="245" y="-315"/>
      <point x="279" y="-319"/>
    </contour>
  </outline>
</glyph>
<glyph name="dotlessj" format="1">
  <advance width="815"/>
  <unicode hex="0237"/>
  <outline>
    <contour>
      <point x="444" y="1172" type="move" name="top"/>
    </contour>
    <contour>
      <point x="277" y="1186" type="line"/>
      <point x="277" y="-65" type="line" smooth="yes"/>
      <point x="277" y="-134"/>
      <point x="151" y="-123"/>
      <point x="100" y="-125" type="curve"/>
      <point x="115" y="-299" type="line"/>
      <point x="169" y="-309"/>
      <point x="221" y="-313"/>
      <point x="281" y="-313" type="curve" smooth="yes"/>
      <point x="516" y="-313"/>
      <point x="612" y="-200"/>
      <point x="612" y="76" type="curve" smooth="yes"/>
      <point x="612" y="1186" type="line"/>
    </contour>
  </outline>
</glyph>
<glyph name="apostrophemod" format="1">
  <advance width="666"/>
  <unicode hex="02BC"/>
  <outline>
    <contour>
      <point x="119" y="1385" type="curve" smooth="yes"/>
      <point x="280" y="1385"/>
      <point x="390" y="1581"/>
      <point x="390" y="1752" type="curve" smooth="yes"/>
      <point x="390" y="1853"/>
      <point x="335" y="1941"/>
      <point x="238" y="1941" type="curve" smooth="yes"/>
      <point x="143" y="1941"/>
      <point x="82" y="1872"/>
      <point x="82" y="1779" type="curve" smooth="yes"/>
      <point x="82" y="1688"/>
      <point x="145" y="1618"/>
      <point x="231" y="1616" type="curve"/>
      <point x="230" y="1529"/>
      <point x="149" y="1463"/>
      <point x="62" y="1463" type="curve"/>
      <point x="62" y="1389" type="line"/>
      <point x="74" y="1386"/>
      <point x="93" y="1385"/>
    </contour>
  </outline>
</glyph>
<glyph name="circumflex" format="1">
  <advance width="863"/>
  <unicode hex="02C6"/>
  <outline>
    <contour>
      <point x="447" y="1121" type="move" name="_top"/>
    </contour>
    <contour>
      <point x="748" y="1315" type="curve" smooth="yes"/>
      <point x="764" y="1329"/>
      <point x="765" y="1354"/>
      <point x="753" y="1373" type="curve" smooth="yes"/>
      <point x="552" y="1694" type="line" smooth="yes"/>
      <point x="526" y="1734"/>
      <point x="491" y="1748"/>
      <point x="453" y="1748" type="curve" smooth="yes"/>
      <point x="414" y="1748"/>
      <point x="379" y="1734"/>
      <point x="353" y="1694" type="curve" smooth="yes"/>
      <point x="152" y="1373" type="line" smooth="yes"/>
      <point x="140" y="1354"/>
      <point x="141" y="1329"/>
      <point x="158" y="1316" type="curve" smooth="yes"/>
      <point x="173" y="1303"/>
      <point x="199" y="1300"/>
      <point x="213" y="1314" type="curve" smooth="yes"/>
      <point x="453" y="1550" type="line"/>
      <point x="692" y="1314" type="line" smooth="yes"/>
      <point x="706" y="1300"/>
      <point x="732" y="1302"/>
    </contour>
  </outline>
</glyph>
<glyph name="caron" format="1">
  <advance width="863"/>
  <unicode hex="02C7"/>
  <outline>
    <contour>
      <point x="447" y="1121" type="move" name="_top"/>
    </contour>
    <contour>
      <point x="453" y="1300" type="curve" smooth="yes"/>
      <point x="491" y="1300"/>
      <point x="526" y="1314"/>
      <point x="552" y="1354" type="curve" smooth="yes"/>
      <point x="753" y="1675" type="line" smooth="yes"/>
      <point x="765" y="1694"/>
      <point x="764" y="1719"/>
      <point x="748" y="1733" type="curve" smooth="yes"/>
      <point x="733" y="1746"/>
      <point x="706" y="1748"/>
      <point x="692" y="1734" type="curve" smooth="yes"/>
      <point x="453" y="1498" type="line"/>
      <point x="213" y="1734" type="line" smooth="yes"/>
      <point x="199" y="1748"/>
      <point x="173" y="1746"/>
      <point x="158" y="1733" type="curve" smooth="yes"/>
      <point x="141" y="1719"/>
      <point x="140" y="1695"/>
      <point x="152" y="1675" type="curve" smooth="yes"/>
      <point x="353" y="1354" type="line" smooth="yes"/>
      <point x="379" y="1314"/>
      <point x="414" y="1300"/>
    </contour>
  </outline>
</glyph>
<glyph name="uni02C9" format="1">
  <advance width="778"/>
  <unicode hex="02C9"/>
  <outline>
    <contour>
      <point x="409" y="1129" type="move" name="_top"/>
    </contour>
    <contour>
      <point x="92" y="1494" type="line"/>
      <point x="92" y="1351" type="line"/>
      <point x="727" y="1351" type="line"/>
      <point x="727" y="1494" type="line"/>
    </contour>
  </outline>
</glyph>
<glyph name="breve" format="1">
  <advance width="843"/>
  <unicode hex="02D8"/>
  <outline>
    <contour>
      <point x="444" y="1129" type="move" name="_top"/>
    </contour>
    <contour>
      <point x="589" y="1626" type="line"/>
      <point x="589" y="1507"/>
      <point x="543" y="1452"/>
      <point x="441" y="1452" type="curve" smooth="yes"/>
      <point x="340" y="1452"/>
      <point x="293" y="1507"/>
      <point x="293" y="1626" type="curve"/>
      <point x="127" y="1626" type="line"/>
      <point x="127" y="1405"/>
      <point x="226" y="1304"/>
      <point x="441" y="1304" type="curve" smooth="yes"/>
      <point x="657" y="1304"/>
      <point x="755" y="1405"/>
      <point x="755" y="1626" type="curve"/>
    </contour>
  </outline>
</glyph>
<glyph name="dotaccent" format="1">
  <advance width="556"/>
  <unicode hex="02D9"/>
  <outline>
    <contour>
      <point x="292" y="1129" type="move" name="_top"/>
    </contour>
    <contour>
      <point x="292" y="1398" type="curve" smooth="yes"/>
      <point x="379" y="1398"/>
      <point x="450" y="1439"/>
      <point x="450" y="1545" type="curve" smooth="yes"/>
      <point x="450" y="1648"/>
      <point x="379" y="1691"/>
      <point x="292" y="1691" type="curve" smooth="yes"/>
      <point x="206" y="1691"/>
      <point x="134" y="1651"/>
      <point x="134" y="1545" type="curve" smooth="yes"/>
      <point x="134" y="1441"/>
      <point x="204" y="1398"/>
    </contour>
  </outline>
</glyph>
<glyph name="ring" format="1">
  <advance width="816"/>
  <unicode hex="02DA"/>
  <outline>
    <contour>
      <point x="425" y="1129" type="move" name="_top"/>
    </contour>
    <contour>
      <point x="157" y="1531" type="curve" smooth="yes"/>
      <point x="157" y="1368"/>
      <point x="258" y="1270"/>
      <point x="424" y="1270" type="curve" smooth="yes"/>
      <point x="589" y="1270"/>
      <point x="694" y="1368"/>
      <point x="694" y="1531" type="curve" smooth="yes"/>
      <point x="694" y="1693"/>
      <point x="589" y="1798"/>
      <point x="424" y="1798" type="curve" smooth="yes"/>
      <point x="259" y="1798"/>
      <point x="157" y="1693"/>
    </contour>
    <contour>
      <point x="544" y="1529" type="curve" smooth="yes"/>
      <point x="544" y="1439"/>
      <point x="503" y="1395"/>
      <point x="424" y="1395" type="curve" smooth="yes"/>
      <point x="343" y="1395"/>
      <point x="304" y="1442"/>
      <point x="304" y="1531" type="curve" smooth="yes"/>
      <point x="304" y="1624"/>
      <point x="339" y="1671"/>
      <point x="424" y="1671" type="curve" smooth="yes"/>
      <point x="505" y="1671"/>
      <point x="544" y="1628"/>
    </contour>
  </outline>
</glyph>
<glyph name="ogonek" format="1">
  <advance width="848"/>
  <unicode hex="02DB"/>
  <outline>
    <contour>
      <point x="511" y="0" type="move" name="_ogonek"/>
    </contour>
    <contour>
      <point x="454" y="0" type="line"/>
      <point x="284" y="-110"/>
      <point x="235" y="-231"/>
      <point x="235" y="-327" type="curve" smooth="yes"/>
      <point x="235" y="-464"/>
      <point x="362" y="-548"/>
      <point x="515" y="-548" type="curve" smooth="yes"/>
      <point x="581" y="-548"/>
      <point x="645" y="-530"/>
      <point x="692" y="-505" type="curve"/>
      <point x="664" y="-360" type="line"/>
      <point x="638" y="-368"/>
      <point x="610" y="-373"/>
      <point x="584" y="-373" type="curve" smooth="yes"/>
      <point x="510" y="-373"/>
      <point x="444" y="-337"/>
      <point x="444" y="-247" type="curve" smooth="yes"/>
      <point x="444" y="-167"/>
      <point x="491" y="-67"/>
      <point x="582" y="0" type="curve"/>
    </contour>
  </outline>
</glyph>
<glyph name="tilde" format="1">
  <advance width="1087"/>
  <unicode hex="02DC"/>
  <outline>
    <contour>
      <point x="548" y="1129" type="move" name="_top"/>
    </contour>
    <contour>
      <point x="679" y="1296" type="curve" smooth="yes"/>
      <point x="792" y="1296"/>
      <point x="882" y="1368"/>
      <point x="918" y="1505" type="curve"/>
      <point x="870" y="1566" type="line"/>
      <point x="797" y="1502"/>
      <point x="746" y="1477"/>
      <point x="689" y="1477" type="curve" smooth="yes"/>
      <point x="610" y="1477"/>
      <point x="543" y="1557"/>
      <point x="410" y="1557" type="curve" smooth="yes"/>
      <point x="296" y="1557"/>
      <point x="213" y="1506"/>
      <point x="172" y="1376" type="curve"/>
      <point x="212" y="1321" type="line"/>
      <point x="262" y="1371"/>
      <point x="312" y="1392"/>
      <point x="369" y="1392" type="curve" smooth="yes"/>
      <point x="472" y="1392"/>
      <point x="563" y="1296"/>
    </contour>
  </outline>
</glyph>
<glyph name="hungarumlaut" format="1">
  <advance width="1230"/>
  <unicode hex="02DD"/>
  <outline>
    <contour>
      <point x="448" y="1129" type="move" name="_top"/>
    </contour>
    <contour>
      <point x="165" y="1335" type="curve"/>
      <point x="199" y="1345"/>
      <point x="555" y="1472"/>
      <point x="592" y="1491" type="curve" smooth="yes"/>
      <point x="647" y="1516"/>
      <point x="671" y="1564"/>
      <point x="671" y="1608" type="curve" smooth="yes"/>
      <point x="671" y="1665"/>
      <point x="628" y="1720"/>
      <point x="556" y="1720" type="curve" smooth="yes"/>
      <point x="523" y="1720"/>
      <point x="493" y="1705"/>
      <point x="466" y="1685" type="curve" smooth="yes"/>
      <point x="418" y="1649"/>
      <point x="167" y="1393"/>
      <point x="141" y="1369" type="curve"/>
      <point x="135" y="1364"/>
      <point x="136" y="1344"/>
      <point x="139" y="1341" type="curve"/>
      <point x="141" y="1338"/>
      <point x="160" y="1333"/>
    </contour>
    <contour>
      <point x="645" y="1335" type="curve"/>
      <point x="679" y="1345"/>
      <point x="1035" y="1472"/>
      <point x="1073" y="1491" type="curve" smooth="yes"/>
      <point x="1127" y="1516"/>
      <point x="1151" y="1564"/>
      <point x="1151" y="1608" type="curve" smooth="yes"/>
      <point x="1151" y="1665"/>
      <point x="1108" y="1720"/>
      <point x="1036" y="1720" type="curve" smooth="yes"/>
      <point x="1003" y="1720"/>
      <point x="973" y="1705"/>
      <point x="946" y="1685" type="curve" smooth="yes"/>
      <point x="898" y="1649"/>
      <point x="647" y="1393"/>
      <point x="621" y="1369" type="curve"/>
      <point x="615" y="1364"/>
      <point x="616" y="1343"/>
      <point x="619" y="1340" type="curve"/>
      <point x="622" y="1338"/>
      <point x="640" y="1333"/>
    </contour>
  </outline>
</glyph>
<glyph name="uni0307" format="1">
  <advance width="642"/>
  <unicode hex="0307"/>
  <outline>
    <contour>
      <point x="318" y="1172" type="move" name="_top"/>
    </contour>
    <contour>
      <point x="322" y="1300" type="curve" smooth="yes"/>
      <point x="415" y="1300"/>
      <point x="485" y="1368"/>
      <point x="485" y="1479" type="curve" smooth="yes"/>
      <point x="485" y="1589"/>
      <point x="411" y="1657"/>
      <point x="322" y="1657" type="curve" smooth="yes"/>
      <point x="228" y="1657"/>
      <point x="158" y="1590"/>
      <point x="158" y="1479" type="curve" smooth="yes"/>
      <point x="158" y="1369"/>
      <point x="233" y="1300"/>
    </contour>
  </outline>
</glyph>
<glyph name="dblgravecmb" format="1">
  <advance width="1368"/>
  <unicode hex="030F"/>
  <outline>
    <contour>
      <point x="958" y="1172" type="move" name="_top"/>
    </contour>
    <contour>
      <point x="749" y="1349" type="curve" smooth="yes"/>
      <point x="761" y="1343"/>
      <point x="783" y="1349"/>
      <point x="789" y="1357" type="curve"/>
      <point x="797" y="1365"/>
      <point x="797" y="1391"/>
      <point x="782" y="1406" type="curve"/>
      <point x="722" y="1472"/>
      <point x="482" y="1711"/>
      <point x="420" y="1754" type="curve" smooth="yes"/>
      <point x="389" y="1776"/>
      <point x="356" y="1790"/>
      <point x="321" y="1790" type="curve" smooth="yes"/>
      <point x="242" y="1790"/>
      <point x="192" y="1726"/>
      <point x="192" y="1656" type="curve" smooth="yes"/>
      <point x="192" y="1605"/>
      <point x="219" y="1550"/>
      <point x="280" y="1517" type="curve" smooth="yes"/>
      <point x="334" y="1485"/>
      <point x="673" y="1376"/>
    </contour>
    <contour>
      <point x="1282" y="1349" type="curve" smooth="yes"/>
      <point x="1295" y="1343"/>
      <point x="1317" y="1349"/>
      <point x="1323" y="1357" type="curve"/>
      <point x="1330" y="1366"/>
      <point x="1330" y="1391"/>
      <point x="1315" y="1406" type="curve"/>
      <point x="1255" y="1472"/>
      <point x="1015" y="1711"/>
      <point x="953" y="1754" type="curve" smooth="yes"/>
      <point x="922" y="1776"/>
      <point x="888" y="1790"/>
      <point x="854" y="1790" type="curve" smooth="yes"/>
      <point x="774" y="1790"/>
      <point x="725" y="1726"/>
      <point x="725" y="1656" type="curve" smooth="yes"/>
      <point x="725" y="1605"/>
      <point x="752" y="1550"/>
      <point x="813" y="1517" type="curve" smooth="yes"/>
      <point x="867" y="1485"/>
      <point x="1205" y="1376"/>
    </contour>
  </outline>
</glyph>
<glyph name="breveinvertedcomb" format="1">
  <advance width="927"/>
  <unicode hex="0311"/>
  <outline>
    <contour>
      <point x="509" y="1129" type="move" name="_top"/>
    </contour>
    <contour>
      <point x="180" y="1304" type="curve"/>
      <point x="346" y="1304" type="line"/>
      <point x="346" y="1423"/>
      <point x="393" y="1478"/>
      <point x="494" y="1478" type="curve" smooth="yes"/>
      <point x="595" y="1478"/>
      <point x="642" y="1423"/>
      <point x="642" y="1304" type="curve"/>
      <point x="808" y="1304" type="line"/>
      <point x="808" y="1525"/>
      <point x="710" y="1626"/>
      <point x="494" y="1626" type="curve" smooth="yes"/>
      <point x="279" y="1626"/>
      <point x="180" y="1525"/>
    </contour>
  </outline>
</glyph>
<glyph name="commaturnedabovecomb" format="1">
  <advance width="666"/>
  <unicode hex="0312"/>
  <outline>
    <contour>
      <point x="359" y="1129" type="move" name="_top"/>
    </contour>
    <contour>
      <point x="359" y="1277" type="curve" smooth="yes"/>
      <point x="457" y="1277"/>
      <point x="522" y="1371"/>
      <point x="522" y="1440" type="curve" smooth="yes"/>
      <point x="522" y="1552"/>
      <point x="469" y="1611"/>
      <point x="374" y="1616" type="curve"/>
      <point x="375" y="1706"/>
      <point x="429" y="1772"/>
      <point x="506" y="1774" type="curve"/>
      <point x="506" y="1842" type="line"/>
      <point x="322" y="1842"/>
      <point x="181" y="1676"/>
      <point x="181" y="1497" type="curve" smooth="yes"/>
      <point x="181" y="1366"/>
      <point x="248" y="1277"/>
    </contour>
  </outline>
</glyph>
<glyph name="commaaccent" format="1">
  <advance width="584"/>
  <unicode hex="0326"/>
  <outline>
    <contour>
      <point x="311" y="0" type="move" name="_bot"/>
    </contour>
    <contour>
      <point x="164" y="-698" type="line"/>
      <point x="351" y="-698"/>
      <point x="489" y="-535"/>
      <point x="489" y="-356" type="curve" smooth="yes"/>
      <point x="489" y="-225"/>
      <point x="428" y="-155"/>
      <point x="317" y="-155" type="curve" smooth="yes"/>
      <point x="219" y="-155"/>
      <point x="148" y="-217"/>
      <point x="148" y="-310" type="curve" smooth="yes"/>
      <point x="148" y="-406"/>
      <point x="201" y="-466"/>
      <point x="296" y="-472" type="curve"/>
      <point x="295" y="-562"/>
      <point x="241" y="-628"/>
      <point x="164" y="-630" type="curve"/>
    </contour>
  </outline>
</glyph>
<glyph name="Delta" format="1">
  <advance width="1408"/>
  <unicode hex="0394"/>
  <outline>
    <contour>
      <point x="71" y="0" type="line"/>
      <point x="1345" y="0" type="line"/>
      <point x="783" y="1507" type="line"/>
      <point x="606" y="1507" type="line"/>
    </contour>
    <contour>
      <point x="242" y="160" type="line"/>
      <point x="638" y="1304" type="line"/>
      <point x="1036" y="160" type="line"/>
    </contour>
  </outline>
</glyph>
<glyph name="Sigma" format="1">
  <advance width="1229"/>
  <unicode hex="03A3"/>
  <outline>
    <contour>
      <point x="134" y="0" type="line"/>
      <point x="1147" y="0" type="line"/>
      <point x="1147" y="217" type="line"/>
      <point x="428" y="217" type="line"/>
      <point x="888" y="728" type="line"/>
      <point x="888" y="827" type="line"/>
      <point x="436" y="1294" type="line"/>
      <point x="1099" y="1294" type="line"/>
      <point x="1099" y="1507" type="line"/>
      <point x="134" y="1507" type="line"/>
      <point x="134" y="1295" type="line"/>
      <point x="608" y="785" type="line"/>
      <point x="134" y="236" type="line"/>
    </contour>
  </outline>
</glyph>
